<svg viewBox="0 0 600 400" xmlns="http://www.w3.org/2000/svg">
<g transform="translate(72, 364)">
<g>
<g>
<circle cx="0" cy="-170" fill="#DD3355" r="1.5"/>
<circle cx="3.75" cy="-211.30663058355483" fill="#DD3355" r="1.5"/>
<circle cx="7.5" cy="-250.1374452604196" fill="#DD3355" r="1.5"/>
<circle cx="11.25" cy="-284.1650223239931" fill="#DD3355" r="1.5"/>
<circle cx="15" cy="-311.3498340914327" fill="#DD3355" r="1.5"/>
<circle cx="18.75" cy="-330.06249108111354" fill="#DD3355" r="1.5"/>
<circle cx="22.5" cy="-339.18140353427344" fill="#DD3355" r="1.5"/>
<circle cx="26.25" cy="-338.1600066940128" fill="#DD3355" r="1.5"/>
<circle cx="30" cy="-327.05952052691873" fill="#DD3355" r="1.5"/>
<circle cx="33.75" cy="-306.5452803517096" fill="#DD3355" r="1.5"/>
<circle cx="37.5" cy="-277.84685830781973" fill="#DD3355" r="1.5"/>
<circle cx="41.25" cy="-242.68436588314796" fill="#DD3355" r="1.5"/>
<circle cx="45" cy="-203.16535474274187" fill="#DD3355" r="1.5"/>
<circle cx="48.75" cy="-161.658495364339" fill="#DD3355" r="1.5"/>
<circle cx="52.5" cy="-120.65160486674145" fill="#DD3355" r="1.5"/>
<circle cx="56.25" cy="-82.60253348715234" fill="#DD3355" r="1.5"/>
<circle cx="60" cy="-49.79184719828693" fill="#DD3355" r="1.5"/>
<circle cx="63.75" cy="-24.18613629995376" fill="#DD3355" r="1.5"/>
<circle cx="67.5" cy="-7.3201429255245" fill="#DD3355" r="1.5"/>
<circle cx="71.25" cy="-0.20477244512069115" fill="#DD3355" r="1.5"/>
<circle cx="75" cy="-3.266502331450827" fill="#DD3355" r="1.5"/>
<circle cx="78.75" cy="-16.321820169014632" fill="#DD3355" r="1.5"/>
<circle cx="82.5" cy="-38.58822292833473" fill="#DD3355" r="1.5"/>
<circle cx="86.25" cy="-68.73111823628635" fill="#DD3355" r="1.5"/>
<circle cx="90" cy="-104.94381649793463" fill="#DD3355" r="1.5"/>
<circle cx="93.75" cy="-145.0558193425884" fill="#DD3355" r="1.5"/>
<circle cx="97.5" cy="-186.6629138560252" fill="#DD3355" r="1.5"/>
<circle cx="101.25" cy="-227.2712750766773" fill="#DD3355" r="1.5"/>
<circle cx="105" cy="-264.4469396133323" fill="#DD3355" r="1.5"/>
<circle cx="108.75" cy="-295.961691310343" fill="#DD3355" r="1.5"/>
<circle cx="112.5" cy="-319.9266149392203" fill="#DD3355" r="1.5"/>
<circle cx="116.25" cy="-334.90531304307245" fill="#DD3355" r="1.5"/>
<circle cx="120" cy="-340" fill="#DD3355" r="1.5"/>
<circle cx="123.75" cy="-334.9053130430725" fill="#DD3355" r="1.5"/>
<circle cx="127.5" cy="-319.92661493922037" fill="#DD3355" r="1.5"/>
<circle cx="131.25" cy="-295.96169131034316" fill="#DD3355" r="1.5"/>
<circle cx="135" cy="-264.44693961333235" fill="#DD3355" r="1.5"/>
<circle cx="138.75" cy="-227.27127507667754" fill="#DD3355" r="1.5"/>
<circle cx="142.5" cy="-186.6629138560253" fill="#DD3355" r="1.5"/>
<circle cx="146.25" cy="-145.05581934258865" fill="#DD3355" r="1.5"/>
<circle cx="150" cy="-104.94381649793473" fill="#DD3355" r="1.5"/>
<circle cx="153.75" cy="-68.73111823628645" fill="#DD3355" r="1.5"/>
<circle cx="157.5" cy="-38.588222928334694" fill="#DD3355" r="1.5"/>
<circle cx="161.25" cy="-16.32182016901469" fill="#DD3355" r="1.5"/>
<circle cx="165" cy="-3.266502331450808" fill="#DD3355" r="1.5"/>
<circle cx="168.75" cy="-0.20477244512069115" fill="#DD3355" r="1.5"/>
<circle cx="172.5" cy="-7.320142925524519" fill="#DD3355" r="1.5"/>
<circle cx="176.25" cy="-24.186136299953702" fill="#DD3355" r="1.5"/>
<circle cx="180" cy="-49.79184719828676" fill="#DD3355" r="1.5"/>
<circle cx="183.75" cy="-82.60253348715224" fill="#DD3355" r="1.5"/>
<circle cx="187.5" cy="-120.65160486674118" fill="#DD3355" r="1.5"/>
<circle cx="191.25" cy="-161.65849536433888" fill="#DD3355" r="1.5"/>
<circle cx="195" cy="-203.1653547427416" fill="#DD3355" r="1.5"/>
<circle cx="198.75" cy="-242.6843658831479" fill="#DD3355" r="1.5"/>
<circle cx="202.5" cy="-277.8468583078196" fill="#DD3355" r="1.5"/>
<circle cx="206.25" cy="-306.5452803517096" fill="#DD3355" r="1.5"/>
<circle cx="210" cy="-327.05952052691873" fill="#DD3355" r="1.5"/>
<circle cx="213.75" cy="-338.1600066940128" fill="#DD3355" r="1.5"/>
<circle cx="217.5" cy="-339.1814035342735" fill="#DD3355" r="1.5"/>
<circle cx="221.25" cy="-330.06249108111354" fill="#DD3355" r="1.5"/>
<circle cx="225" cy="-311.3498340914328" fill="#DD3355" r="1.5"/>
<circle cx="228.75" cy="-284.1650223239931" fill="#DD3355" r="1.5"/>
<circle cx="232.5" cy="-250.13744526041972" fill="#DD3355" r="1.5"/>
<circle cx="236.25" cy="-211.3066305835548" fill="#DD3355" r="1.5"/>
<circle cx="240" cy="-170.0000000000001" fill="#DD3355" r="1.5"/>
<circle cx="243.75" cy="-128.69336941644536" fill="#DD3355" r="1.5"/>
<circle cx="247.5" cy="-89.86255473958073" fill="#DD3355" r="1.5"/>
<circle cx="251.25" cy="-55.83497767600706" fill="#DD3355" r="1.5"/>
<circle cx="255" cy="-28.65016590856735" fill="#DD3355" r="1.5"/>
<circle cx="258.75" cy="-9.937508918886444" fill="#DD3355" r="1.5"/>
<circle cx="262.5" cy="-0.8185964657265599" fill="#DD3355" r="1.5"/>
<circle cx="266.25" cy="-1.8399933059872087" fill="#DD3355" r="1.5"/>
<circle cx="270" cy="-12.940479473081236" fill="#DD3355" r="1.5"/>
<circle cx="273.75" cy="-33.454719648290435" fill="#DD3355" r="1.5"/>
<circle cx="277.5" cy="-62.15314169218" fill="#DD3355" r="1.5"/>
<circle cx="281.25" cy="-97.3156341168519" fill="#DD3355" r="1.5"/>
<circle cx="285" cy="-136.8346452572582" fill="#DD3355" r="1.5"/>
<circle cx="288.75" cy="-178.34150463566124" fill="#DD3355" r="1.5"/>
<circle cx="292.5" cy="-219.34839513325832" fill="#DD3355" r="1.5"/>
<circle cx="296.25" cy="-257.3974665128476" fill="#DD3355" r="1.5"/>
<circle cx="300" cy="-290.2081528017131" fill="#DD3355" r="1.5"/>
<circle cx="303.75" cy="-315.81386370004606" fill="#DD3355" r="1.5"/>
<circle cx="307.5" cy="-332.6798570744754" fill="#DD3355" r="1.5"/>
<circle cx="311.25" cy="-339.7952275548793" fill="#DD3355" r="1.5"/>
<circle cx="315" cy="-336.73349766854915" fill="#DD3355" r="1.5"/>
<circle cx="318.75" cy="-323.6781798309855" fill="#DD3355" r="1.5"/>
<circle cx="322.5" cy="-301.4117770716654" fill="#DD3355" r="1.5"/>
<circle cx="326.25" cy="-271.26888176371375" fill="#DD3355" r="1.5"/>
<circle cx="330" cy="-235.0561835020652" fill="#DD3355" r="1.5"/>
<circle cx="333.75" cy="-194.94418065741186" fill="#DD3355" r="1.5"/>
<circle cx="337.5" cy="-153.3370861439749" fill="#DD3355" r="1.5"/>
<circle cx="341.25" cy="-112.72872492332264" fill="#DD3355" r="1.5"/>
<circle cx="345" cy="-75.55306038666754" fill="#DD3355" r="1.5"/>
<circle cx="348.75" cy="-44.03830868965718" fill="#DD3355" r="1.5"/>
<circle cx="352.5" cy="-20.073385060779717" fill="#DD3355" r="1.5"/>
<circle cx="356.25" cy="-5.094686956927524" fill="#DD3355" r="1.5"/>
<circle cx="360" cy="-0" fill="#DD3355" r="1.5"/>
<circle cx="363.75" cy="-5.094686956927449" fill="#DD3355" r="1.5"/>
<circle cx="367.5" cy="-20.073385060779586" fill="#DD3355" r="1.5"/>
<circle cx="371.25" cy="-44.03830868965697" fill="#DD3355" r="1.5"/>
<circle cx="375" cy="-75.55306038666727" fill="#DD3355" r="1.5"/>
<circle cx="378.75" cy="-112.72872492332233" fill="#DD3355" r="1.5"/>
<circle cx="382.5" cy="-153.3370861439746" fill="#DD3355" r="1.5"/>
<circle cx="386.25" cy="-194.94418065741155" fill="#DD3355" r="1.5"/>
<circle cx="390" cy="-235.0561835020649" fill="#DD3355" r="1.5"/>
<circle cx="393.75" cy="-271.2688817637135" fill="#DD3355" r="1.5"/>
<circle cx="397.5" cy="-301.41177707166526" fill="#DD3355" r="1.5"/>
<circle cx="401.25" cy="-323.6781798309854" fill="#DD3355" r="1.5"/>
<circle cx="405" cy="-336.7334976685491" fill="#DD3355" r="1.5"/>
<circle cx="408.75" cy="-339.7952275548793" fill="#DD3355" r="1.5"/>
<circle cx="412.5" cy="-332.67985707447554" fill="#DD3355" r="1.5"/>
<circle cx="416.25" cy="-315.81386370004617" fill="#DD3355" r="1.5"/>
<circle cx="420" cy="-290.2081528017133" fill="#DD3355" r="1.5"/>
<circle cx="423.75" cy="-257.3974665128478" fill="#DD3355" r="1.5"/>
<circle cx="427.5" cy="-219.34839513325863" fill="#DD3355" r="1.5"/>
<circle cx="431.25" cy="-178.34150463566152" fill="#DD3355" r="1.5"/>
<circle cx="435" cy="-136.8346452572585" fill="#DD3355" r="1.5"/>
<circle cx="438.75" cy="-97.31563411685218" fill="#DD3355" r="1.5"/>
<circle cx="442.5" cy="-62.15314169218025" fill="#DD3355" r="1.5"/>
<circle cx="446.25" cy="-33.45471964829063" fill="#DD3355" r="1.5"/>
<circle cx="450" cy="-12.940479473081348" fill="#DD3355" r="1.5"/>
<circle cx="453.75" cy="-1.8399933059872464" fill="#DD3355" r="1.5"/>
<circle cx="457.5" cy="-0.818596465726541" fill="#DD3355" r="1.5"/>
<circle cx="461.25" cy="-9.93750891888633" fill="#DD3355" r="1.5"/>
<circle cx="465" cy="-28.65016590856718" fill="#DD3355" r="1.5"/>
<circle cx="468.75" cy="-55.83497767600681" fill="#DD3355" r="1.5"/>
<circle cx="472.5" cy="-89.86255473958046" fill="#DD3355" r="1.5"/>
<circle cx="476.25" cy="-128.69336941644477" fill="#DD3355" r="1.5"/>
</g>
</g>
<g>
<g>
<line stroke="black" stroke-width="1" x1="0" x2="0" y1="0" y2="10"/>
<line stroke="black" stroke-width="1" x1="150" x2="150" y1="0" y2="10"/>
<line stroke="black" stroke-width="1" x1="300" x2="300" y1="0" y2="10"/>
<line stroke="black" stroke-width="1" x1="450" x2="450" y1="0" y2="10"/>
</g>
<line stroke="black" stroke-width="1" x1="0" x2="480" y1="0" y2="0"/>
<g>
<text font-size="12" text-anchor="middle" x="0" y="20">
0
</text>
<text font-size="12" text-anchor="middle" x="150" y="20">
40
</text>
<text font-size="12" text-anchor="middle" x="300" y="20">
80
</text>
<text font-size="12" text-anchor="middle" x="450" y="20">
120
</text>
</g>
<text font-size="12" text-anchor="middle" x="240" y="30">

</text>
</g>
<g>
<g>
<line stroke="black" stroke-width="1" x1="0" x2="-10" y1="-0" y2="-0"/>
<line stroke="black" stroke-width="1" x1="0" x2="-10" y1="-85" y2="-85"/>
<line stroke="black" stroke-width="1" x1="0" x2="-10" y1="-170" y2="-170"/>
<line stroke="black" stroke-width="1" x1="0" x2="-10" y1="-255" y2="-255"/>
<line stroke="black" stroke-width="1" x1="0" x2="-10" y1="-340" y2="-340"/>
</g>
<line stroke="black" stroke-width="1" x1="0" x2="0" y1="0" y2="-340"/>
<g>
<text dominant-baseline="middle" font-size="12" text-anchor="end" x="-15" y="-0">
-1
</text>
<text dominant-baseline="middle" font-size="12" text-anchor="end" x="-15" y="-85">
-0.5
</text>
<text dominant-baseline="middle" font-size="12" text-anchor="end" x="-15" y="-170">
0
</text>
<text dominant-baseline="middle" font-size="12" text-anchor="end" x="-15" y="-255">
0.5
</text>
<text dominant-baseline="middle" font-size="12" text-anchor="end" x="-15" y="-340">
1
</text>
</g>
<text font-size="12" text-anchor="middle" transform="rotate(-90 -48 -170)" x="-48" y="-182">

</text>
</g>
</g>
</svg>