<svg viewBox="0 0 600 400" xmlns="http://www.w3.org/2000/svg">
<g transform="translate(72, 364)">
<g>
<g>
<circle cx="0" cy="-170" fill="#DD3355" r="2.5"/>
<circle cx="0.46920821114369504" cy="-221.38961123226514" fill="#DD3355" r="2.5"/>
<circle cx="0.9384164222873901" cy="-267.97074036216327" fill="#DD3355" r="2.5"/>
<circle cx="1.4076246334310851" cy="-305.3848308573865" fill="#DD3355" r="2.5"/>
<circle cx="1.8768328445747802" cy="-330.1310781738117" fill="#DD3355" r="2.5"/>
<circle cx="2.346041055718475" cy="-339.89399705151044" fill="#DD3355" r="2.5"/>
<circle cx="2.8152492668621703" cy="-333.76007949607293" fill="#DD3355" r="2.5"/>
<circle cx="3.2844574780058653" cy="-312.30327094268483" fill="#DD3355" r="2.5"/>
<circle cx="3.7536656891495603" cy="-277.53126667116754" fill="#DD3355" r="2.5"/>
<circle cx="4.222873900293255" cy="-232.6976534706354" fill="#DD3355" r="2.5"/>
<circle cx="4.69208211143695" cy="-181.9974742980169" fill="#DD3355" r="2.5"/>
<circle cx="5.161290322580645" cy="-130.17470168574602" fill="#DD3355" r="2.5"/>
<circle cx="5.6304985337243405" cy="-82.07834827715429" fill="#DD3355" r="2.5"/>
<circle cx="6.099706744868035" cy="-42.20874884825433" fill="#DD3355" r="2.5"/>
<circle cx="6.568914956011731" cy="-14.296467820246338" fill="#DD3355" r="2.5"/>
<circle cx="7.038123167155425" cy="-0.9532335277309134" fill="#DD3355" r="2.5"/>
<circle cx="7.507331378299121" cy="-3.427561025497389" fill="#DD3355" r="2.5"/>
<circle cx="7.976539589442815" cy="-21.48792959947309" fill="#DD3355" r="2.5"/>
<circle cx="8.44574780058651" cy="-53.444445962518714" fill="#DD3355" r="2.5"/>
<circle cx="8.914956011730204" cy="-96.30696612830975" fill="#DD3355" r="2.5"/>
<circle cx="9.3841642228739" cy="-146.06488063440017" fill="#DD3355" r="2.5"/>
<circle cx="9.853372434017595" cy="-198.06238384972067" fill="#DD3355" r="2.5"/>
<circle cx="10.32258064516129" cy="-247.4341137374078" fill="#DD3355" r="2.5"/>
<circle cx="10.791788856304985" cy="-289.560399631831" fill="#DD3355" r="2.5"/>
<circle cx="11.260997067448681" cy="-320.4995208835192" fill="#DD3355" r="2.5"/>
<circle cx="11.730205278592376" cy="-337.35653029917063" fill="#DD3355" r="2.5"/>
<circle cx="12.19941348973607" cy="-338.5541318819691" fill="#DD3355" r="2.5"/>
<circle cx="12.668621700879765" cy="-323.98026707302364" fill="#DD3355" r="2.5"/>
<circle cx="13.137829912023461" cy="-294.9985999751705" fill="#DD3355" r="2.5"/>
<circle cx="13.607038123167156" cy="-254.3209204656848" fill="#DD3355" r="2.5"/>
<circle cx="14.07624633431085" cy="-205.7534043298461" fill="#DD3355" r="2.5"/>
<circle cx="14.545454545454545" cy="-153.84047263828893" fill="#DD3355" r="2.5"/>
<circle cx="15.014662756598241" cy="-103.4395741425134" fill="#DD3355" r="2.5"/>
<circle cx="15.483870967741936" cy="-59.266677937222234" fill="#DD3355" r="2.5"/>
<circle cx="15.95307917888563" cy="-25.45500425350186" fill="#DD3355" r="2.5"/>
<circle cx="16.422287390029325" cy="-5.168282566253245" fill="#DD3355" r="2.5"/>
<circle cx="16.89149560117302" cy="-0.3047241249830168" fill="#DD3355" r="2.5"/>
<circle cx="17.360703812316714" cy="-11.319407945816746" fill="#DD3355" r="2.5"/>
<circle cx="17.82991202346041" cy="-37.181699456013106" fill="#DD3355" r="2.5"/>
<circle cx="18.299120234604107" cy="-75.47168609209885" fill="#DD3355" r="2.5"/>
<circle cx="18.7683284457478" cy="-122.60660645493874" fill="#DD3355" r="2.5"/>
<circle cx="19.237536656891496" cy="-174.17608623878453" fill="#DD3355" r="2.5"/>
<circle cx="19.70674486803519" cy="-225.35481319427413" fill="#DD3355" r="2.5"/>
<circle cx="20.175953079178885" cy="-271.35403748099435" fill="#DD3355" r="2.5"/>
<circle cx="20.64516129032258" cy="-307.8696509066152" fill="#DD3355" r="2.5"/>
<circle cx="21.114369501466275" cy="-331.48491866027234" fill="#DD3355" r="2.5"/>
<circle cx="21.58357771260997" cy="-339.9901802753233" fill="#DD3355" r="2.5"/>
<circle cx="22.052785923753667" cy="-332.5896056750028" fill="#DD3355" r="2.5"/>
<circle cx="22.521994134897362" cy="-309.9756603140898" fill="#DD3355" r="2.5"/>
<circle cx="22.991202346041057" cy="-274.2643117767793" fill="#DD3355" r="2.5"/>
<circle cx="23.46041055718475" cy="-228.7970404941441" fill="#DD3355" r="2.5"/>
<circle cx="23.929618768328446" cy="-177.82818026952583" fill="#DD3355" r="2.5"/>
<circle cx="24.39882697947214" cy="-126.12684389228646" fill="#DD3355" r="2.5"/>
<circle cx="24.868035190615835" cy="-78.53068132079477" fill="#DD3355" r="2.5"/>
<circle cx="25.33724340175953" cy="-39.493224900956974" fill="#DD3355" r="2.5"/>
<circle cx="25.806451612903224" cy="-12.66717614219504" fill="#DD3355" r="2.5"/>
<circle cx="26.275659824046922" cy="-0.5626255519208923" fill="#DD3355" r="2.5"/>
<circle cx="26.744868035190617" cy="-4.312185607148259" fill="#DD3355" r="2.5"/>
<circle cx="27.21407624633431" cy="-23.56501317081154" fill="#DD3355" r="2.5"/>
<circle cx="27.683284457478006" cy="-56.51963758493254" fill="#DD3355" r="2.5"/>
<circle cx="28.1524926686217" cy="-100.09252274394895" fill="#DD3355" r="2.5"/>
<circle cx="28.621700879765395" cy="-150.2065909387357" fill="#DD3355" r="2.5"/>
<circle cx="29.09090909090909" cy="-202.17271154126982" fill="#DD3355" r="2.5"/>
<circle cx="29.560117302052785" cy="-251.12845895900577" fill="#DD3355" r="2.5"/>
<circle cx="30.029325513196483" cy="-292.49308565131264" fill="#DD3355" r="2.5"/>
<circle cx="30.498533724340177" cy="-322.3961387707836" fill="#DD3355" r="2.5"/>
<circle cx="30.967741935483872" cy="-338.03961513577894" fill="#DD3355" r="2.5"/>
<circle cx="31.436950146627566" cy="-337.9597680022359" fill="#DD3355" r="2.5"/>
<circle cx="31.90615835777126" cy="-322.16406859835354" fill="#DD3355" r="2.5"/>
<circle cx="32.375366568914956" cy="-292.1305070481399" fill="#DD3355" r="2.5"/>
<circle cx="32.84457478005865" cy="-250.66929809581367" fill="#DD3355" r="2.5"/>
<circle cx="33.313782991202345" cy="-201.65993170849436" fill="#DD3355" r="2.5"/>
<circle cx="33.78299120234604" cy="-149.68817250807524" fill="#DD3355" r="2.5"/>
<circle cx="34.252199413489734" cy="-99.61697368589778" fill="#DD3355" r="2.5"/>
<circle cx="34.72140762463343" cy="-56.131454619345625" fill="#DD3355" r="2.5"/>
<circle cx="35.19061583577712" cy="-23.300518246769325" fill="#DD3355" r="2.5"/>
<circle cx="35.65982404692082" cy="-4.1961272891548385" fill="#DD3355" r="2.5"/>
<circle cx="36.12903225806452" cy="-0.6058633178263728" fill="#DD3355" r="2.5"/>
<circle cx="36.598240469208214" cy="-12.865664271113332" fill="#DD3355" r="2.5"/>
<circle cx="37.06744868035191" cy="-39.82839102791912" fill="#DD3355" r="2.5"/>
<circle cx="37.5366568914956" cy="-78.971164237101" fill="#DD3355" r="2.5"/>
<circle cx="38.0058651026393" cy="-126.63142798706369" fill="#DD3355" r="2.5"/>
<circle cx="38.47507331378299" cy="-178.34965203929244" fill="#DD3355" r="2.5"/>
<circle cx="38.94428152492669" cy="-229.286606270069" fill="#DD3355" r="2.5"/>
<circle cx="39.41348973607038" cy="-274.6761633066688" fill="#DD3355" r="2.5"/>
<circle cx="39.882697947214076" cy="-310.2712610014835" fill="#DD3355" r="2.5"/>
<circle cx="40.35190615835777" cy="-332.7412964156442" fill="#DD3355" r="2.5"/>
<circle cx="40.821114369501466" cy="-339.9837674959594" fill="#DD3355" r="2.5"/>
<circle cx="41.29032258064516" cy="-331.3210023991997" fill="#DD3355" r="2.5"/>
<circle cx="41.759530791788855" cy="-307.5635686686088" fill="#DD3355" r="2.5"/>
<circle cx="42.22873900293255" cy="-270.93442912006407" fill="#DD3355" r="2.5"/>
<circle cx="42.697947214076244" cy="-224.8609411069461" fill="#DD3355" r="2.5"/>
<circle cx="43.16715542521994" cy="-173.65416161513912" fill="#DD3355" r="2.5"/>
<circle cx="43.63636363636363" cy="-122.10546533695744" fill="#DD3355" r="2.5"/>
<circle cx="44.105571847507335" cy="-75.03821982686097" fill="#DD3355" r="2.5"/>
<circle cx="44.57478005865103" cy="-36.85646711233471" fill="#DD3355" r="2.5"/>
<circle cx="45.043988269794724" cy="-11.132841236765225" fill="#DD3355" r="2.5"/>
<circle cx="45.51319648093842" cy="-0.27427993843663345" fill="#DD3355" r="2.5"/>
<circle cx="45.98240469208211" cy="-5.296809538786983" fill="#DD3355" r="2.5"/>
<circle cx="46.45161290322581" cy="-25.730476225892325" fill="#DD3355" r="2.5"/>
<circle cx="46.9208211143695" cy="-59.66331923191192" fill="#DD3355" r="2.5"/>
<circle cx="47.3900293255132" cy="-103.92027137177959" fill="#DD3355" r="2.5"/>
<circle cx="47.85923753665689" cy="-154.36024737228638" fill="#DD3355" r="2.5"/>
<circle cx="48.328445747800586" cy="-206.26362168993379" fill="#DD3355" r="2.5"/>
<circle cx="48.79765395894428" cy="-254.77383984854808" fill="#DD3355" r="2.5"/>
<circle cx="49.266862170087975" cy="-295.3518421003663" fill="#DD3355" r="2.5"/>
<circle cx="49.73607038123167" cy="-324.20077937611256" fill="#DD3355" r="2.5"/>
<circle cx="50.205278592375365" cy="-338.6212812147838" fill="#DD3355" r="2.5"/>
<circle cx="50.67448680351906" cy="-337.26403355589906" fill="#DD3355" r="2.5"/>
<circle cx="51.143695014662754" cy="-320.2560329055566" fill="#DD3355" r="2.5"/>
<circle cx="51.61290322580645" cy="-289.18870338164953" fill="#DD3355" r="2.5"/>
<circle cx="52.08211143695015" cy="-246.9689885161852" fill="#DD3355" r="2.5"/>
<circle cx="52.551319648093845" cy="-197.54735102779017" fill="#DD3355" r="2.5"/>
<circle cx="53.02052785923754" cy="-145.54813139373184" fill="#DD3355" r="2.5"/>
<circle cx="53.489736070381234" cy="-95.83685225471594" fill="#DD3355" r="2.5"/>
<circle cx="53.95894428152493" cy="-53.06495561027687" fill="#DD3355" r="2.5"/>
<circle cx="54.42815249266862" cy="-21.234571357247507" fill="#DD3355" r="2.5"/>
<circle cx="54.89736070381232" cy="-3.324041407969789" fill="#DD3355" r="2.5"/>
<circle cx="55.36656891495601" cy="-1.009238777241268" fill="#DD3355" r="2.5"/>
<circle cx="55.83577712609971" cy="-14.506757573354601" fill="#DD3355" r="2.5"/>
<circle cx="56.3049853372434" cy="-42.553646472079045" fill="#DD3355" r="2.5"/>
<circle cx="56.774193548387096" cy="-82.52558199513324" fill="#DD3355" r="2.5"/>
<circle cx="57.24340175953079" cy="-130.68242422025028" fill="#DD3355" r="2.5"/>
<circle cx="57.712609970674485" cy="-182.5181784844337" fill="#DD3355" r="2.5"/>
<circle cx="58.18181818181818" cy="-233.18261746225576" fill="#DD3355" r="2.5"/>
<circle cx="58.651026392961874" cy="-277.93511280082896" fill="#DD3355" r="2.5"/>
<circle cx="59.12023460410557" cy="-312.5882116724019" fill="#DD3355" r="2.5"/>
<circle cx="59.589442815249264" cy="-333.8994531647377" fill="#DD3355" r="2.5"/>
<circle cx="60.058651026392965" cy="-339.8747625837923" fill="#DD3355" r="2.5"/>
<circle cx="60.52785923753666" cy="-329.9550353224534" fill="#DD3355" r="2.5"/>
<circle cx="60.997067448680355" cy="-305.06845180187537" fill="#DD3355" r="2.5"/>
<circle cx="61.46627565982405" cy="-267.54362842094275" fill="#DD3355" r="2.5"/>
<circle cx="61.935483870967744" cy="-220.8917309054709" fill="#DD3355" r="2.5"/>
<circle cx="62.40469208211144" cy="-169.4779375252607" fill="#DD3355" r="2.5"/>
<circle cx="62.87390029325513" cy="-118.11299308564193" fill="#DD3355" r="2.5"/>
<circle cx="63.34310850439883" cy="-71.60307163822736" fill="#DD3355" r="2.5"/>
<circle cx="63.81231671554252" cy="-34.30006687319555" fill="#DD3355" r="2.5"/>
<circle cx="64.28152492668622" cy="-9.694389137617552" fill="#DD3355" r="2.5"/>
<circle cx="64.75073313782991" cy="-0.08837071560996557" fill="#DD3355" r="2.5"/>
<circle cx="65.2199413489736" cy="-6.380838559733823" fill="#DD3355" r="2.5"/>
<circle cx="65.6891495601173" cy="-27.983011819489295" fill="#DD3355" r="2.5"/>
<circle cx="66.158357771261" cy="-62.87359356343457" fill="#DD3355" r="2.5"/>
<circle cx="66.62756598240469" cy="-107.7879018094729" fill="#DD3355" r="2.5"/>
<circle cx="67.09677419354838" cy="-158.52334303407764" fill="#DD3355" r="2.5"/>
<circle cx="67.56598240469208" cy="-210.33264526467877" fill="#DD3355" r="2.5"/>
<circle cx="68.03519061583577" cy="-258.3680562700714" fill="#DD3355" r="2.5"/>
<circle cx="68.50439882697947" cy="-298.13494360294374" fill="#DD3355" r="2.5"/>
<circle cx="68.97360703812316" cy="-325.91235352533675" fill="#DD3355" r="2.5"/>
<circle cx="69.44281524926686" cy="-339.1011774769959" fill="#DD3355" r="2.5"/>
<circle cx="69.91202346041055" cy="-336.4673484470579" fill="#DD3355" r="2.5"/>
<circle cx="70.38123167155425" cy="-318.25731157195145" fill="#DD3355" r="2.5"/>
<circle cx="70.85043988269794" cy="-286.1749644741286" fill="#DD3355" r="2.5"/>
<circle cx="71.31964809384164" cy="-243.22222501446922" fill="#DD3355" r="2.5"/>
<circle cx="71.78885630498533" cy="-193.41814439781533" fill="#DD3355" r="2.5"/>
<circle cx="72.25806451612904" cy="-141.42284797883525" fill="#DD3355" r="2.5"/>
<circle cx="72.72727272727273" cy="-92.10149130634065" fill="#DD3355" r="2.5"/>
<circle cx="73.19648093841643" cy="-50.06903166716934" fill="#DD3355" r="2.5"/>
<circle cx="73.66568914956012" cy="-19.258410468098297" fill="#DD3355" r="2.5"/>
<circle cx="74.13489736070382" cy="-2.552551262076749" fill="#DD3355" r="2.5"/>
<circle cx="74.60410557184751" cy="-1.5146070496951713" fill="#DD3355" r="2.5"/>
<circle cx="75.0733137829912" cy="-16.24169738583604" fill="#DD3355" r="2.5"/>
<circle cx="75.5425219941349" cy="-45.35582098574157" fill="#DD3355" r="2.5"/>
<circle cx="76.0117302052786" cy="-86.13279413018662" fill="#DD3355" r="2.5"/>
<circle cx="76.48093841642229" cy="-134.7571502131375" fill="#DD3355" r="2.5"/>
<circle cx="76.95014662756599" cy="-186.67914969857702" fill="#DD3355" r="2.5"/>
<circle cx="77.41935483870968" cy="-237.04049536926465" fill="#DD3355" r="2.5"/>
<circle cx="77.88856304985337" cy="-281.1289190546107" fill="#DD3355" r="2.5"/>
<circle cx="78.35777126099707" cy="-314.8191045451931" fill="#DD3355" r="2.5"/>
<circle cx="78.82697947214076" cy="-334.9586899127448" fill="#DD3355" r="2.5"/>
<circle cx="79.29618768328446" cy="-339.6632313277301" fill="#DD3355" r="2.5"/>
<circle cx="79.76539589442815" cy="-328.4925288615764" fill="#DD3355" r="2.5"/>
<circle cx="80.23460410557185" cy="-302.4918156186281" fill="#DD3355" r="2.5"/>
<circle cx="80.70381231671554" cy="-264.0939561658583" fill="#DD3355" r="2.5"/>
<circle cx="81.17302052785924" cy="-216.89180546987393" fill="#DD3355" r="2.5"/>
<circle cx="81.64222873900293" cy="-165.30202852136682" fill="#DD3355" r="2.5"/>
<circle cx="82.11143695014663" cy="-114.1518367580921" fill="#DD3355" r="2.5"/>
<circle cx="82.58064516129032" cy="-68.22731000685515" fill="#DD3355" r="2.5"/>
<circle cx="83.04985337243401" cy="-31.825567075290717" fill="#DD3355" r="2.5"/>
<circle cx="83.51906158357771" cy="-8.352688009229693" fill="#DD3355" r="2.5"/>
<circle cx="83.9882697947214" cy="-0.005010087235103322" fill="#DD3355" r="2.5"/>
<circle cx="84.4574780058651" cy="-7.563618414286221" fill="#DD3355" r="2.5"/>
<circle cx="84.9266862170088" cy="-30.321260454550618" fill="#DD3355" r="2.5"/>
<circle cx="85.39589442815249" cy="-66.14852304808058" fill="#DD3355" r="2.5"/>
<circle cx="85.86510263929618" cy="-111.6930797844025" fill="#DD3355" r="2.5"/>
<circle cx="86.33431085043988" cy="-162.69336532617504" fill="#DD3355" r="2.5"/>
<circle cx="86.80351906158357" cy="-214.37732644391068" fill="#DD3355" r="2.5"/>
<circle cx="87.27272727272727" cy="-261.9089389674507" fill="#DD3355" r="2.5"/>
<circle cx="87.74193548387096" cy="-300.8407104438386" fill="#DD3355" r="2.5"/>
<circle cx="88.21114369501467" cy="-327.5298282136881" fill="#DD3355" r="2.5"/>
<circle cx="88.68035190615836" cy="-339.4790142854588" fill="#DD3355" r="2.5"/>
<circle cx="89.14956011730206" cy="-335.5701935076509" fill="#DD3355" r="2.5"/>
<circle cx="89.61876832844575" cy="-316.16911090733794" fill="#DD3355" r="2.5"/>
<circle cx="90.08797653958945" cy="-283.09110923985895" fill="#DD3355" r="2.5"/>
<circle cx="90.55718475073314" cy="-239.4312689151678" fill="#DD3355" r="2.5"/>
<circle cx="91.02639296187684" cy="-189.27480396309284" fill="#DD3355" r="2.5"/>
<circle cx="91.49560117302053" cy="-137.31481204008463" fill="#DD3355" r="2.5"/>
<circle cx="91.96480938416423" cy="-88.41314528337142" fill="#DD3355" r="2.5"/>
<circle cx="92.43401759530792" cy="-47.14549095224851" fill="#DD3355" r="2.5"/>
<circle cx="92.90322580645162" cy="-17.37322827297395" fill="#DD3355" r="2.5"/>
<circle cx="93.37243401759531" cy="-1.8821224772276857" fill="#DD3355" r="2.5"/>
<circle cx="93.841642228739" cy="-2.121663124835025" fill="#DD3355" r="2.5"/>
<circle cx="94.3108504398827" cy="-18.06943660165899" fill="#DD3355" r="2.5"/>
<circle cx="94.7800586510264" cy="-48.23322334236272" fill="#DD3355" r="2.5"/>
<circle cx="95.24926686217009" cy="-89.7906235426974" fill="#DD3355" r="2.5"/>
<circle cx="95.71847507331378" cy="-138.85314670249127" fill="#DD3355" r="2.5"/>
<circle cx="96.18768328445748" cy="-190.83005436597813" fill="#DD3355" r="2.5"/>
<circle cx="96.65689149560117" cy="-240.8579116045174" fill="#DD3355" r="2.5"/>
<circle cx="97.12609970674487" cy="-284.2556544757485" fill="#DD3355" r="2.5"/>
<circle cx="97.59530791788856" cy="-316.9625931850685" fill="#DD3355" r="2.5"/>
<circle cx="98.06451612903226" cy="-335.9183673671093" fill="#DD3355" r="2.5"/>
<circle cx="98.53372434017595" cy="-339.34930139550863" fill="#DD3355" r="2.5"/>
<circle cx="99.00293255131965" cy="-326.9343656988343" fill="#DD3355" r="2.5"/>
<circle cx="99.47214076246334" cy="-299.8352152238343" fill="#DD3355" r="2.5"/>
<circle cx="99.94134897360703" cy="-260.58749437263447" fill="#DD3355" r="2.5"/>
<circle cx="100.41055718475073" cy="-212.8635789182057" fill="#DD3355" r="2.5"/>
<circle cx="100.87976539589442" cy="-161.12895493476807" fill="#DD3355" r="2.5"/>
<circle cx="101.34897360703812" cy="-110.22438707361847" fill="#DD3355" r="2.5"/>
<circle cx="101.81818181818181" cy="-64.91297234249647" fill="#DD3355" r="2.5"/>
<circle cx="102.28739002932551" cy="-29.43446118011873" fill="#DD3355" r="2.5"/>
<circle cx="102.7565982404692" cy="-7.108547622925833" fill="#DD3355" r="2.5"/>
<circle cx="103.2258064516129" cy="-0.024248364849295267" fill="#DD3355" r="2.5"/>
<circle cx="103.69501466275659" cy="-8.844435246587647" fill="#DD3355" r="2.5"/>
<circle cx="104.1642228739003" cy="-32.74381090271181" fill="#DD3355" r="2.5"/>
<circle cx="104.633431085044" cy="-69.48613113240627" fill="#DD3355" r="2.5"/>
<circle cx="105.10263929618769" cy="-115.63344836246925" fill="#DD3355" r="2.5"/>
<circle cx="105.57184750733138" cy="-166.86779747014387" fill="#DD3355" r="2.5"/>
<circle cx="106.04105571847508" cy="-218.39522409766218" fill="#DD3355" r="2.5"/>
<circle cx="106.51026392961877" cy="-265.39435087364075" fill="#DD3355" r="2.5"/>
<circle cx="106.97947214076247" cy="-303.4675095824645" fill="#DD3355" r="2.5"/>
<circle cx="107.44868035190616" cy="-329.0522272292593" fill="#DD3355" r="2.5"/>
<circle cx="107.91788856304986" cy="-339.7545636002565" fill="#DD3355" r="2.5"/>
<circle cx="108.38709677419355" cy="-334.5731102072546" fill="#DD3355" r="2.5"/>
<circle cx="108.85630498533725" cy="-313.99269122594063" fill="#DD3355" r="2.5"/>
<circle cx="109.32551319648094" cy="-279.9389989111848" fill="#DD3355" r="2.5"/>
<circle cx="109.79472140762464" cy="-235.59840821482027" fill="#DD3355" r="2.5"/>
<circle cx="110.26392961876833" cy="-185.1198303984717" fill="#DD3355" r="2.5"/>
<circle cx="110.73313782991202" cy="-133.2265029446301" fill="#DD3355" r="2.5"/>
<circle cx="111.20234604105572" cy="-84.7740402529848" fill="#DD3355" r="2.5"/>
<circle cx="111.67155425219941" cy="-44.29609794150512" fill="#DD3355" r="2.5"/>
<circle cx="112.14076246334311" cy="-15.580162556175688" fill="#DD3355" r="2.5"/>
<circle cx="112.6099706744868" cy="-1.3131596845222804" fill="#DD3355" r="2.5"/>
<circle cx="113.0791788856305" cy="-2.830040619573354" fill="#DD3355" r="2.5"/>
<circle cx="113.54838709677419" cy="-19.988872105702907" fill="#DD3355" r="2.5"/>
<circle cx="114.01759530791789" cy="-51.18411691232672" fill="#DD3355" r="2.5"/>
<circle cx="114.48680351906158" cy="-93.49686258350847" fill="#DD3355" r="2.5"/>
<circle cx="114.95601173020528" cy="-142.9679415874599" fill="#DD3355" r="2.5"/>
<circle cx="115.42521994134897" cy="-194.96838724646275" fill="#DD3355" r="2.5"/>
<circle cx="115.89442815249267" cy="-244.6325622017073" fill="#DD3355" r="2.5"/>
<circle cx="116.36363636363636" cy="-287.3134319519592" fill="#DD3355" r="2.5"/>
<circle cx="116.83284457478005" cy="-319.01738390926096" fill="#DD3355" r="2.5"/>
<circle cx="117.30205278592375" cy="-336.7779063233681" fill="#DD3355" r="2.5"/>
<circle cx="117.77126099706744" cy="-338.9331622566384" fill="#DD3355" r="2.5"/>
<circle cx="118.24046920821114" cy="-325.28148624921096" fill="#DD3355" r="2.5"/>
<circle cx="118.70967741935483" cy="-297.10025398412745" fill="#DD3355" r="2.5"/>
<circle cx="119.17888563049853" cy="-257.02635933390513" fill="#DD3355" r="2.5"/>
<circle cx="119.64809384164222" cy="-208.809482449392" fill="#DD3355" r="2.5"/>
<circle cx="120.11730205278593" cy="-156.9612353854767" fill="#DD3355" r="2.5"/>
<circle cx="120.58651026392963" cy="-106.33301440820645" fill="#DD3355" r="2.5"/>
<circle cx="121.05571847507332" cy="-61.662058983036445" fill="#DD3355" r="2.5"/>
<circle cx="121.52492668621701" cy="-27.128192317556255" fill="#DD3355" r="2.5"/>
<circle cx="121.99413489736071" cy="-5.962718868142778" fill="#DD3355" r="2.5"/>
<circle cx="122.4633431085044" cy="-0.1460739373679132" fill="#DD3355" r="2.5"/>
<circle cx="122.9325513196481" cy="-10.222516031468944" fill="#DD3355" r="2.5"/>
<circle cx="123.4017595307918" cy="-35.249201056021654" fill="#DD3355" r="2.5"/>
<circle cx="123.87096774193549" cy="-72.88440343388525" fill="#DD3355" r="2.5"/>
<circle cx="124.34017595307918" cy="-119.60662937061915" fill="#DD3355" r="2.5"/>
<circle cx="124.80938416422288" cy="-171.04412002601634" fill="#DD3355" r="2.5"/>
<circle cx="125.27859237536657" cy="-222.38391326091485" fill="#DD3355" r="2.5"/>
<circle cx="125.74780058651027" cy="-268.8221884004808" fill="#DD3355" r="2.5"/>
<circle cx="126.21700879765396" cy="-306.01375563846796" fill="#DD3355" r="2.5"/>
<circle cx="126.68621700879766" cy="-330.47863174218435" fill="#DD3355" r="2.5"/>
<circle cx="127.15542521994135" cy="-339.9276591161453" fill="#DD3355" r="2.5"/>
<circle cx="127.62463343108504" cy="-333.476700326287" fill="#DD3355" r="2.5"/>
<circle cx="128.09384164222874" cy="-311.7293660857523" fill="#DD3355" r="2.5"/>
<circle cx="128.56304985337243" cy="-276.7205359151757" fill="#DD3355" r="2.5"/>
<circle cx="129.03225806451613" cy="-231.7259562011009" fill="#DD3355" r="2.5"/>
<circle cx="129.50146627565982" cy="-180.95573139987036" fill="#DD3355" r="2.5"/>
<circle cx="129.97067448680352" cy="-129.1603881536584" fill="#DD3355" r="2.5"/>
<circle cx="130.4398826979472" cy="-81.18637256340374" fill="#DD3355" r="2.5"/>
<circle cx="130.9090909090909" cy="-41.52257235977632" fill="#DD3355" r="2.5"/>
<circle cx="131.3782991202346" cy="-13.88029550595559" fill="#DD3355" r="2.5"/>
<circle cx="131.8475073313783" cy="-0.8460062761999587" fill="#DD3355" r="2.5"/>
<circle cx="132.316715542522" cy="-3.6393119992172696" fill="#DD3355" r="2.5"/>
<circle cx="132.78592375366568" cy="-21.998845440396163" fill="#DD3355" r="2.5"/>
<circle cx="133.25513196480938" cy="-54.20672071107473" fill="#DD3355" r="2.5"/>
<circle cx="133.72434017595307" cy="-97.24927438627866" fill="#DD3355" r="2.5"/>
<circle cx="134.19354838709677" cy="-147.09905142160315" fill="#DD3355" r="2.5"/>
<circle cx="134.66275659824046" cy="-199.09165068745094" fill="#DD3355" r="2.5"/>
<circle cx="135.13196480938416" cy="-248.36216900532906" fill="#DD3355" r="2.5"/>
<circle cx="135.60117302052785" cy="-290.30040598988967" fill="#DD3355" r="2.5"/>
<circle cx="136.07038123167155" cy="-320.9822365678052" fill="#DD3355" r="2.5"/>
<circle cx="136.53958944281524" cy="-337.5367880147238" fill="#DD3355" r="2.5"/>
<circle cx="137.00879765395894" cy="-338.4150650680535" fill="#DD3355" r="2.5"/>
<circle cx="137.47800586510263" cy="-323.5348880928331" fill="#DD3355" r="2.5"/>
<circle cx="137.94721407624633" cy="-294.2885825601004" fill="#DD3355" r="2.5"/>
<circle cx="138.41642228739002" cy="-253.4127003398217" fill="#DD3355" r="2.5"/>
<circle cx="138.88563049853371" cy="-204.73196287591531" fill="#DD3355" r="2.5"/>
<circle cx="139.3548387096774" cy="-152.80138526213722" fill="#DD3355" r="2.5"/>
<circle cx="139.8240469208211" cy="-102.480067363883" fill="#DD3355" r="2.5"/>
<circle cx="140.2932551319648" cy="-58.47653198720482" fill="#DD3355" r="2.5"/>
<circle cx="140.7624633431085" cy="-24.908152414871978" fill="#DD3355" r="2.5"/>
<circle cx="141.2316715542522" cy="-4.915893299243617" fill="#DD3355" r="2.5"/>
<circle cx="141.70087976539588" cy="-0.3704132780917435" fill="#DD3355" r="2.5"/>
<circle cx="142.17008797653958" cy="-11.69702904100237" fill="#DD3355" r="2.5"/>
<circle cx="142.63929618768327" cy="-37.8359188094002" fill="#DD3355" r="2.5"/>
<circle cx="143.10850439882697" cy="-76.34128895665354" fill="#DD3355" r="2.5"/>
<circle cx="143.57771260997066" cy="-123.61022483214755" fill="#DD3355" r="2.5"/>
<circle cx="144.04692082111438" cy="-175.2198124128912" fill="#DD3355" r="2.5"/>
<circle cx="144.51612903225808" cy="-226.34098659716724" fill="#DD3355" r="2.5"/>
<circle cx="144.98533724340177" cy="-272.190382708289" fill="#DD3355" r="2.5"/>
<circle cx="145.45454545454547" cy="-308.4779118485565" fill="#DD3355" r="2.5"/>
<circle cx="145.92375366568916" cy="-331.8081808591956" fill="#DD3355" r="2.5"/>
<circle cx="146.39296187683286" cy="-339.99819636292546" fill="#DD3355" r="2.5"/>
<circle cx="146.86217008797655" cy="-332.2816255928023" fill="#DD3355" r="2.5"/>
<circle cx="147.33137829912025" cy="-309.3805014957593" fill="#DD3355" r="2.5"/>
<circle cx="147.80058651026394" cy="-273.43766272544985" fill="#DD3355" r="2.5"/>
<circle cx="148.26979472140764" cy="-227.81625005665103" fill="#DD3355" r="2.5"/>
<circle cx="148.73900293255133" cy="-176.7850201707761" fill="#DD3355" r="2.5"/>
<circle cx="149.20821114369502" cy="-125.11892173320047" fill="#DD3355" r="2.5"/>
<circle cx="149.67741935483872" cy="-77.65230751832972" fill="#DD3355" r="2.5"/>
<circle cx="150.1466275659824" cy="-38.82658814280739" fill="#DD3355" r="2.5"/>
<circle cx="150.6158357771261" cy="-12.274653061369401" fill="#DD3355" r="2.5"/>
<circle cx="151.0850439882698" cy="-0.4809441983842777" fill="#DD3355" r="2.5"/>
<circle cx="151.5542521994135" cy="-4.548988835499373" fill="#DD3355" r="2.5"/>
<circle cx="152.0234604105572" cy="-24.098143504898957" fill="#DD3355" r="2.5"/>
<circle cx="152.4926686217009" cy="-57.29921047400515" fill="#DD3355" r="2.5"/>
<circle cx="152.96187683284458" cy="-101.0455942175249" fill="#DD3355" r="2.5"/>
<circle cx="153.43108504398828" cy="-151.24398291173202" fill="#DD3355" r="2.5"/>
<circle cx="153.90029325513197" cy="-203.19735613137178" fill="#DD3355" r="2.5"/>
<circle cx="154.36950146627566" cy="-252.04448104564844" fill="#DD3355" r="2.5"/>
<circle cx="154.83870967741936" cy="-293.21477382895114" fill="#DD3355" r="2.5"/>
<circle cx="155.30791788856305" cy="-322.8559652920289" fill="#DD3355" r="2.5"/>
<circle cx="155.77712609970675" cy="-338.19455442514015" fill="#DD3355" r="2.5"/>
<circle cx="156.24633431085044" cy="-337.7953225225264" fill="#DD3355" r="2.5"/>
<circle cx="156.71554252199414" cy="-321.69562537288346" fill="#DD3355" r="2.5"/>
<circle cx="157.18475073313783" cy="-291.40189791007106" fill="#DD3355" r="2.5"/>
<circle cx="157.65395894428153" cy="-249.74869838089862" fill="#DD3355" r="2.5"/>
<circle cx="158.12316715542522" cy="-200.6334811470495" fill="#DD3355" r="2.5"/>
<circle cx="158.59237536656892" cy="-148.65191520386392" fill="#DD3355" r="2.5"/>
<circle cx="159.0615835777126" cy="-98.66787135124643" fill="#DD3355" r="2.5"/>
<circle cx="159.5307917888563" cy="-55.3583139503966" fill="#DD3355" r="2.5"/>
<circle cx="160" cy="-22.775681356646174" fill="#DD3355" r="2.5"/>
<circle cx="160.4692082111437" cy="-3.9687027181307033" fill="#DD3355" r="2.5"/>
<circle cx="160.9384164222874" cy="-0.6971309890840838" fill="#DD3355" r="2.5"/>
<circle cx="161.40762463343108" cy="-13.267084346477873" fill="#DD3355" r="2.5"/>
<circle cx="161.87683284457478" cy="-40.502402973235384" fill="#DD3355" r="2.5"/>
<circle cx="162.34604105571847" cy="-79.85470132938559" fill="#DD3355" r="2.5"/>
<circle cx="162.81524926686217" cy="-127.64181841399788" fill="#DD3355" r="2.5"/>
<circle cx="163.28445747800586" cy="-179.39235443019993" fill="#DD3355" r="2.5"/>
<circle cx="163.75366568914956" cy="-230.2640558513571" fill="#DD3355" r="2.5"/>
<circle cx="164.22287390029325" cy="-275.49690095450364" fill="#DD3355" r="2.5"/>
<circle cx="164.69208211143695" cy="-310.858490994013" fill="#DD3355" r="2.5"/>
<circle cx="165.16129032258064" cy="-333.0400721432046" fill="#DD3355" r="2.5"/>
<circle cx="165.63049853372434" cy="-339.96613276849314" fill="#DD3355" r="2.5"/>
<circle cx="166.09970674486803" cy="-330.98860728311934" fill="#DD3355" r="2.5"/>
<circle cx="166.56891495601172" cy="-306.947515091488" fill="#DD3355" r="2.5"/>
<circle cx="167.03812316715542" cy="-270.0923606897946" fill="#DD3355" r="2.5"/>
<circle cx="167.5073313782991" cy="-223.8716494485063" fill="#DD3355" r="2.5"/>
<circle cx="167.9765395894428" cy="-172.61021390542822" fill="#DD3355" r="2.5"/>
<circle cx="168.4457478005865" cy="-121.10454287298265" fill="#DD3355" r="2.5"/>
<circle cx="168.9149560117302" cy="-74.17397807007391" fill="#DD3355" r="2.5"/>
<circle cx="169.3841642228739" cy="-36.20977242696931" fill="#DD3355" r="2.5"/>
<circle cx="169.8533724340176" cy="-10.764204293086612" fill="#DD3355" r="2.5"/>
<circle cx="170.32258064516128" cy="-0.2181937809211254" fill="#DD3355" r="2.5"/>
<circle cx="170.79178885630498" cy="-5.558522101368471" fill="#DD3355" r="2.5"/>
<circle cx="171.26099706744867" cy="-26.285499287256105" fill="#DD3355" r="2.5"/>
<circle cx="171.73020527859236" cy="-60.45971975748206" fill="#DD3355" r="2.5"/>
<circle cx="172.19941348973606" cy="-104.88353084347808" fill="#DD3355" r="2.5"/>
<circle cx="172.66862170087975" cy="-155.40023442273298" fill="#DD3355" r="2.5"/>
<circle cx="173.13782991202345" cy="-207.283025617632" fill="#DD3355" r="2.5"/>
<circle cx="173.60703812316714" cy="-255.6772758972412" fill="#DD3355" r="2.5"/>
<circle cx="174.07624633431084" cy="-296.0547765293484" fill="#DD3355" r="2.5"/>
<circle cx="174.54545454545453" cy="-324.63743921026725" fill="#DD3355" r="2.5"/>
<circle cx="175.01466275659823" cy="-338.7508085657764" fill="#DD3355" r="2.5"/>
<circle cx="175.48387096774192" cy="-337.0743086599458" fill="#DD3355" r="2.5"/>
<circle cx="175.95307917888562" cy="-319.7648081593902" fill="#DD3355" r="2.5"/>
<circle cx="176.42228739002934" cy="-288.44194226589667" fill="#DD3355" r="2.5"/>
<circle cx="176.89149560117303" cy="-246.036564831671" fill="#DD3355" r="2.5"/>
<circle cx="177.36070381231673" cy="-196.5165108635837" fill="#DD3355" r="2.5"/>
<circle cx="177.82991202346042" cy="-144.51532958498842" fill="#DD3355" r="2.5"/>
<circle cx="178.29912023460412" cy="-94.89872718599509" fill="#DD3355" r="2.5"/>
<circle cx="178.7683284457478" cy="-52.3092868443062" fill="#DD3355" r="2.5"/>
<circle cx="179.2375366568915" cy="-20.732066176086818" fill="#DD3355" r="2.5"/>
<circle cx="179.7067448680352" cy="-3.1217187929299897" fill="#DD3355" r="2.5"/>
<circle cx="180.1759530791789" cy="-1.1260298828878423" fill="#DD3355" r="2.5"/>
<circle cx="180.6451612903226" cy="-14.93173435552038" fill="#DD3355" r="2.5"/>
<circle cx="181.11436950146629" cy="-43.24704421564242" fill="#DD3355" r="2.5"/>
<circle cx="181.58357771260998" cy="-83.42252006449787" fill="#DD3355" r="2.5"/>
<circle cx="182.05278592375367" cy="-131.69897688509727" fill="#DD3355" r="2.5"/>
<circle cx="182.52199413489737" cy="-183.55922777874073" fill="#DD3355" r="2.5"/>
<circle cx="182.99120234604106" cy="-234.15075329127407" fill="#DD3355" r="2.5"/>
<circle cx="183.46041055718476" cy="-278.73974752057984" fill="#DD3355" r="2.5"/>
<circle cx="183.92961876832845" cy="-313.15405629827967" fill="#DD3355" r="2.5"/>
<circle cx="184.39882697947215" cy="-334.1735620976033" fill="#DD3355" r="2.5"/>
<circle cx="184.86803519061584" cy="-339.83148768453464" fill="#DD3355" r="2.5"/>
<circle cx="185.33724340175954" cy="-329.5984257864944" fill="#DD3355" r="2.5"/>
<circle cx="185.80645161290323" cy="-304.4318752794088" fill="#DD3355" r="2.5"/>
<circle cx="186.27565982404693" cy="-266.6866488343583" fill="#DD3355" r="2.5"/>
<circle cx="186.74486803519062" cy="-219.89453510392912" fill="#DD3355" r="2.5"/>
<circle cx="187.21407624633432" cy="-168.43383226958474" fill="#DD3355" r="2.5"/>
<circle cx="187.683284457478" cy="-117.11967441428463" fill="#DD3355" r="2.5"/>
<circle cx="188.1524926686217" cy="-70.75348353225097" fill="#DD3355" r="2.5"/>
<circle cx="188.6217008797654" cy="-33.67370456722141" fill="#DD3355" r="2.5"/>
<circle cx="189.0909090909091" cy="-9.349860818507231" fill="#DD3355" r="2.5"/>
<circle cx="189.5601173020528" cy="-0.05791360439772353" fill="#DD3355" r="2.5"/>
<circle cx="190.02932551319648" cy="-6.667302502345399" fill="#DD3355" r="2.5"/>
<circle cx="190.49853372434018" cy="-28.5595926290863" fill="#DD3355" r="2.5"/>
<circle cx="190.96774193548387" cy="-63.68634106531961" fill="#DD3355" r="2.5"/>
<circle cx="191.43695014662757" cy="-108.76076791293929" fill="#DD3355" r="2.5"/>
<circle cx="191.90615835777126" cy="-159.5652974873986" fill="#DD3355" r="2.5"/>
<circle cx="192.37536656891496" cy="-211.3461932781461" fill="#DD3355" r="2.5"/>
<circle cx="192.84457478005865" cy="-259.25836102032935" fill="#DD3355" r="2.5"/>
<circle cx="193.31378299120234" cy="-298.8187000336899" fill="#DD3355" r="2.5"/>
<circle cx="193.78299120234604" cy="-326.3255831303928" fill="#DD3355" r="2.5"/>
<circle cx="194.25219941348973" cy="-339.20521471458324" fill="#DD3355" r="2.5"/>
<circle cx="194.72140762463343" cy="-336.2524586415696" fill="#DD3355" r="2.5"/>
<circle cx="195.19061583577712" cy="-317.74360177924865" fill="#DD3355" r="2.5"/>
<circle cx="195.65982404692082" cy="-285.41050208146305" fill="#DD3355" r="2.5"/>
<circle cx="196.1290322580645" cy="-242.27854011606155" fill="#DD3355" r="2.5"/>
<circle cx="196.5982404692082" cy="-192.3835367849081" fill="#DD3355" r="2.5"/>
<circle cx="197.0674486803519" cy="-140.39412500355297" fill="#DD3355" r="2.5"/>
<circle cx="197.5366568914956" cy="-91.17490970026503" fill="#DD3355" r="2.5"/>
<circle cx="198.0058651026393" cy="-49.331290881080896" fill="#DD3355" r="2.5"/>
<circle cx="198.47507331378299" cy="-18.778540278263563" fill="#DD3355" r="2.5"/>
<circle cx="198.94428152492668" cy="-2.3754527129668688" fill="#DD3355" r="2.5"/>
<circle cx="199.41348973607037" cy="-1.6568511015370613" fill="#DD3355" r="2.5"/>
<circle cx="199.88269794721407" cy="-16.689974383993853" fill="#DD3355" r="2.5"/>
<circle cx="200.35190615835776" cy="-46.06818603374571" fill="#DD3355" r="2.5"/>
<circle cx="200.82111436950146" cy="-87.04259183794102" fill="#DD3355" r="2.5"/>
<circle cx="201.29032258064515" cy="-135.77925158492945" fill="#DD3355" r="2.5"/>
<circle cx="201.75953079178885" cy="-187.71791758059902" fill="#DD3355" r="2.5"/>
<circle cx="202.22873900293254" cy="-237.99873313657577" fill="#DD3355" r="2.5"/>
<circle cx="202.69794721407624" cy="-281.9169652164236" fill="#DD3355" r="2.5"/>
<circle cx="203.16715542521993" cy="-315.3632222941206" fill="#DD3355" r="2.5"/>
<circle cx="203.63636363636363" cy="-335.2079666150025" fill="#DD3355" r="2.5"/>
<circle cx="204.10557184750732" cy="-339.59434237484675" fill="#DD3355" r="2.5"/>
<circle cx="204.57478005865102" cy="-328.11192013413176" fill="#DD3355" r="2.5"/>
<circle cx="205.0439882697947" cy="-301.8351003506958" fill="#DD3355" r="2.5"/>
<circle cx="205.5131964809384" cy="-263.22258264507434" fill="#DD3355" r="2.5"/>
<circle cx="205.9824046920821" cy="-215.88730737353805" fill="#DD3355" r="2.5"/>
<circle cx="206.4516129032258" cy="-164.25839587981375" fill="#DD3355" r="2.5"/>
<circle cx="206.9208211143695" cy="-113.16672138766494" fill="#DD3355" r="2.5"/>
<circle cx="207.39002932551318" cy="-67.39288831274155" fill="#DD3355" r="2.5"/>
<circle cx="207.85923753665688" cy="-31.219915183891352" fill="#DD3355" r="2.5"/>
<circle cx="208.3284457478006" cy="-8.032476251571065" fill="#DD3355" r="2.5"/>
<circle cx="208.7976539589443" cy="-0.00020040443438618105" fill="#DD3355" r="2.5"/>
<circle cx="209.266862170088" cy="-7.874660844260362" fill="#DD3355" r="2.5"/>
<circle cx="209.73607038123168" cy="-30.919051022360588" fill="#DD3355" r="2.5"/>
<circle cx="210.20527859237538" cy="-66.97712700003413" fill="#DD3355" r="2.5"/>
<circle cx="210.67448680351907" cy="-112.67496535528542" fill="#DD3355" r="2.5"/>
<circle cx="211.14369501466277" cy="-163.73665832038472" fill="#DD3355" r="2.5"/>
<circle cx="211.61290322580646" cy="-215.38440682560235" fill="#DD3355" r="2.5"/>
<circle cx="212.08211143695016" cy="-262.7855750840721" fill="#DD3355" r="2.5"/>
<circle cx="212.55131964809385" cy="-301.50487620146754" fill="#DD3355" r="2.5"/>
<circle cx="213.02052785923755" cy="-327.9193781887322" fill="#DD3355" r="2.5"/>
<circle cx="213.48973607038124" cy="-339.55749861892724" fill="#DD3355" r="2.5"/>
<circle cx="213.95894428152494" cy="-335.33026848738535" fill="#DD3355" r="2.5"/>
<circle cx="214.42815249266863" cy="-315.63322611289556" fill="#DD3355" r="2.5"/>
<circle cx="214.89736070381232" cy="-282.30940695450016" fill="#DD3355" r="2.5"/>
<circle cx="215.36656891495602" cy="-238.47689235516964" fill="#DD3355" r="2.5"/>
<circle cx="215.8357771260997" cy="-188.23705332935575" fill="#DD3355" r="2.5"/>
<circle cx="216.3049853372434" cy="-136.29078877451215" fill="#DD3355" r="2.5"/>
<circle cx="216.7741935483871" cy="-87.49866636971528" fill="#DD3355" r="2.5"/>
<circle cx="217.2434017595308" cy="-46.4261234026745" fill="#DD3355" r="2.5"/>
<circle cx="217.7126099706745" cy="-16.916282695684696" fill="#DD3355" r="2.5"/>
<circle cx="218.1818181818182" cy="-1.7303548802412927" fill="#DD3355" r="2.5"/>
<circle cx="218.65102639296188" cy="-2.2892742727888207" fill="#DD3355" r="2.5"/>
<circle cx="219.12023460410558" cy="-18.540743262365126" fill="#DD3355" r="2.5"/>
<circle cx="219.58944281524927" cy="-48.96412575346688" fill="#DD3355" r="2.5"/>
<circle cx="220.05865102639297" cy="-90.71273178883948" fill="#DD3355" r="2.5"/>
<circle cx="220.52785923753666" cy="-139.88017990138243" fill="#DD3355" r="2.5"/>
<circle cx="220.99706744868035" cy="-191.8659138969593" fill="#DD3355" r="2.5"/>
<circle cx="221.46627565982405" cy="-241.80567297456216" fill="#DD3355" r="2.5"/>
<circle cx="221.93548387096774" cy="-285.02663646163944" fill="#DD3355" r="2.5"/>
<circle cx="222.40469208211144" cy="-317.4846556598066" fill="#DD3355" r="2.5"/>
<circle cx="222.87390029325513" cy="-336.142661390107" fill="#DD3355" r="2.5"/>
<circle cx="223.34310850439883" cy="-339.2548399662902" fill="#DD3355" r="2.5"/>
<circle cx="223.81231671554252" cy="-326.5299874927851" fill="#DD3355" r="2.5"/>
<circle cx="224.28152492668622" cy="-299.1587575648734" fill="#DD3355" r="2.5"/>
<circle cx="224.7507331378299" cy="-259.70225282709106" fill="#DD3355" r="2.5"/>
<circle cx="225.2199413489736" cy="-211.8523847826282" fill="#DD3355" r="2.5"/>
<circle cx="225.6891495601173" cy="-160.08642478216944" fill="#DD3355" r="2.5"/>
<circle cx="226.158357771261" cy="-109.24806956140418" fill="#DD3355" r="2.5"/>
<circle cx="226.6275659824047" cy="-64.09422066775385" fill="#DD3355" r="2.5"/>
<circle cx="227.09677419354838" cy="-28.849885238895638" fill="#DD3355" r="2.5"/>
<circle cx="227.56598240469208" cy="-6.8128456875684105" fill="#DD3355" r="2.5"/>
<circle cx="228.03519061583577" cy="-0.04508901329980497" fill="#DD3355" r="2.5"/>
<circle cx="228.50439882697947" cy="-9.17986843713932" fill="#DD3355" r="2.5"/>
<circle cx="228.97360703812316" cy="-33.362450437756294" fill="#DD3355" r="2.5"/>
<circle cx="229.44281524926686" cy="-70.33009143817237" fill="#DD3355" r="2.5"/>
<circle cx="229.91202346041055" cy="-116.62376079279713" fill="#DD3355" r="2.5"/>
<circle cx="230.38123167155425" cy="-167.91179933538726" fill="#DD3355" r="2.5"/>
<circle cx="230.85043988269794" cy="-219.39522903351823" fill="#DD3355" r="2.5"/>
<circle cx="231.31964809384164" cy="-266.25678927099034" fill="#DD3355" r="2.5"/>
<circle cx="231.78885630498533" cy="-304.11168381587396" fill="#DD3355" r="2.5"/>
<circle cx="232.25806451612902" cy="-329.4178624650022" fill="#DD3355" r="2.5"/>
<circle cx="232.72727272727272" cy="-339.8074476611114" fill="#DD3355" r="2.5"/>
<circle cx="233.1964809384164" cy="-334.3082947767405" fill="#DD3355" r="2.5"/>
<circle cx="233.6656891495601" cy="-313.4349548580778" fill="#DD3355" r="2.5"/>
<circle cx="234.1348973607038" cy="-279.1405285223251" fill="#DD3355" r="2.5"/>
<circle cx="234.6041055718475" cy="-234.63391599838926" fill="#DD3355" r="2.5"/>
<circle cx="235.0733137829912" cy="-184.07956306871452" fill="#DD3355" r="2.5"/>
<circle cx="235.5425219941349" cy="-132.20779742854384" fill="#DD3355" r="2.5"/>
<circle cx="236.01173020527858" cy="-83.87221595704769" fill="#DD3355" r="2.5"/>
<circle cx="236.48093841642228" cy="-43.59553779609149" fill="#DD3355" r="2.5"/>
<circle cx="236.95014662756597" cy="-15.146417376714439" fill="#DD3355" r="2.5"/>
<circle cx="237.41935483870967" cy="-1.1868146375912492" fill="#DD3355" r="2.5"/>
<circle cx="237.88856304985336" cy="-3.0229177034801347" fill="#DD3355" r="2.5"/>
<circle cx="238.35777126099705" cy="-20.482923976172167" fill="#DD3355" r="2.5"/>
<circle cx="238.82697947214075" cy="-51.9331155571284" fill="#DD3355" r="2.5"/>
<circle cx="239.29618768328444" cy="-94.4307248381277" fill="#DD3355" r="2.5"/>
<circle cx="239.76539589442814" cy="-143.9992867570517" fill="#DD3355" r="2.5"/>
<circle cx="240.23460410557186" cy="-196.00071324294862" fill="#DD3355" r="2.5"/>
<circle cx="240.70381231671556" cy="-245.56927516186826" fill="#DD3355" r="2.5"/>
<circle cx="241.17302052785925" cy="-288.06688444287187" fill="#DD3355" r="2.5"/>
<circle cx="241.64222873900295" cy="-319.51707602382567" fill="#DD3355" r="2.5"/>
<circle cx="242.11143695014664" cy="-336.97708229651994" fill="#DD3355" r="2.5"/>
<circle cx="242.58064516129033" cy="-338.8131853624087" fill="#DD3355" r="2.5"/>
<circle cx="243.04985337243403" cy="-324.8535826232894" fill="#DD3355" r="2.5"/>
<circle cx="243.51906158357772" cy="-296.4044622039083" fill="#DD3355" r="2.5"/>
<circle cx="243.98826979472142" cy="-256.12778404295204" fill="#DD3355" r="2.5"/>
<circle cx="244.4574780058651" cy="-207.79220257146054" fill="#DD3355" r="2.5"/>
<circle cx="244.9266862170088" cy="-155.92043693128514" fill="#DD3355" r="2.5"/>
<circle cx="245.3958944281525" cy="-105.3660840016149" fill="#DD3355" r="2.5"/>
<circle cx="245.8651026392962" cy="-60.85947147767463" fill="#DD3355" r="2.5"/>
<circle cx="246.3343108504399" cy="-26.565045141922077" fill="#DD3355" r="2.5"/>
<circle cx="246.8035190615836" cy="-5.6917052232606204" fill="#DD3355" r="2.5"/>
<circle cx="247.27272727272728" cy="-0.1925523388886463" fill="#DD3355" r="2.5"/>
<circle cx="247.74193548387098" cy="-10.582137534996273" fill="#DD3355" r="2.5"/>
<circle cx="248.21114369501467" cy="-35.88831618412627" fill="#DD3355" r="2.5"/>
<circle cx="248.68035190615836" cy="-73.74321072900995" fill="#DD3355" r="2.5"/>
<circle cx="249.14956011730206" cy="-120.60477096647287" fill="#DD3355" r="2.5"/>
<circle cx="249.61876832844575" cy="-172.08820066461308" fill="#DD3355" r="2.5"/>
<circle cx="250.08797653958945" cy="-223.37623920719858" fill="#DD3355" r="2.5"/>
<circle cx="250.55718475073314" cy="-269.6699085618279" fill="#DD3355" r="2.5"/>
<circle cx="251.02639296187684" cy="-306.6375495622439" fill="#DD3355" r="2.5"/>
<circle cx="251.49560117302053" cy="-330.8201315628593" fill="#DD3355" r="2.5"/>
<circle cx="251.96480938416423" cy="-339.9549109867002" fill="#DD3355" r="2.5"/>
<circle cx="252.43401759530792" cy="-333.1871543124315" fill="#DD3355" r="2.5"/>
<circle cx="252.90322580645162" cy="-311.15011476110686" fill="#DD3355" r="2.5"/>
<circle cx="253.3724340175953" cy="-275.9057793322459" fill="#DD3355" r="2.5"/>
<circle cx="253.841642228739" cy="-230.75193043860006" fill="#DD3355" r="2.5"/>
<circle cx="254.3108504398827" cy="-179.9135752178302" fill="#DD3355" r="2.5"/>
<circle cx="254.7800586510264" cy="-128.14761521737145" fill="#DD3355" r="2.5"/>
<circle cx="255.2492668621701" cy="-80.29774717291689" fill="#DD3355" r="2.5"/>
<circle cx="255.71847507331378" cy="-40.84124243512637" fill="#DD3355" r="2.5"/>
<circle cx="256.1876832844575" cy="-13.470012507216644" fill="#DD3355" r="2.5"/>
<circle cx="256.6568914956012" cy="-0.7451600337097397" fill="#DD3355" r="2.5"/>
<circle cx="257.12609970674487" cy="-3.8573386098930906" fill="#DD3355" r="2.5"/>
<circle cx="257.5953079178886" cy="-22.515344340188744" fill="#DD3355" r="2.5"/>
<circle cx="258.06451612903226" cy="-54.97336353836085" fill="#DD3355" r="2.5"/>
<circle cx="258.533724340176" cy="-98.19432702543375" fill="#DD3355" r="2.5"/>
<circle cx="259.00293255131965" cy="-148.13408610304103" fill="#DD3355" r="2.5"/>
<circle cx="259.47214076246337" cy="-200.1198200986179" fill="#DD3355" r="2.5"/>
<circle cx="259.94134897360703" cy="-249.28726821115654" fill="#DD3355" r="2.5"/>
<circle cx="260.41055718475076" cy="-291.03587424653335" fill="#DD3355" r="2.5"/>
<circle cx="260.8797653958944" cy="-321.45925673763503" fill="#DD3355" r="2.5"/>
<circle cx="261.34897360703815" cy="-337.71072572720965" fill="#DD3355" r="2.5"/>
<circle cx="261.8181818181818" cy="-338.26964511975865" fill="#DD3355" r="2.5"/>
<circle cx="262.28739002932554" cy="-323.08371730431725" fill="#DD3355" r="2.5"/>
<circle cx="262.7565982404692" cy="-293.5738765973253" fill="#DD3355" r="2.5"/>
<circle cx="263.2258064516129" cy="-252.50133363028442" fill="#DD3355" r="2.5"/>
<circle cx="263.6950146627566" cy="-203.709211225497" fill="#DD3355" r="2.5"/>
<circle cx="264.1642228739003" cy="-151.7629466706439" fill="#DD3355" r="2.5"/>
<circle cx="264.633431085044" cy="-101.52310764483445" fill="#DD3355" r="2.5"/>
<circle cx="265.1026392961877" cy="-57.690593045499554" fill="#DD3355" r="2.5"/>
<circle cx="265.57184750733137" cy="-24.36677388710428" fill="#DD3355" r="2.5"/>
<circle cx="266.0410557184751" cy="-4.669731512615698" fill="#DD3355" r="2.5"/>
<circle cx="266.51026392961876" cy="-0.442501381072804" fill="#DD3355" r="2.5"/>
<circle cx="266.9794721407625" cy="-12.08062181126615" fill="#DD3355" r="2.5"/>
<circle cx="267.44868035190615" cy="-38.495123798529654" fill="#DD3355" r="2.5"/>
<circle cx="267.91788856304987" cy="-77.21442491592819" fill="#DD3355" r="2.5"/>
<circle cx="268.38709677419354" cy="-124.6155931743933" fill="#DD3355" r="2.5"/>
<circle cx="268.85630498533726" cy="-176.26334167961562" fill="#DD3355" r="2.5"/>
<circle cx="269.3255131964809" cy="-227.32503464471486" fill="#DD3355" r="2.5"/>
<circle cx="269.79472140762465" cy="-273.02287299995845" fill="#DD3355" r="2.5"/>
<circle cx="270.2639296187683" cy="-309.0809489776396" fill="#DD3355" r="2.5"/>
<circle cx="270.73313782991204" cy="-332.1253391557383" fill="#DD3355" r="2.5"/>
<circle cx="271.2023460410557" cy="-339.9997995955656" fill="#DD3355" r="2.5"/>
<circle cx="271.6715542521994" cy="-331.96752374842885" fill="#DD3355" r="2.5"/>
<circle cx="272.1407624633431" cy="-308.78008481611124" fill="#DD3355" r="2.5"/>
<circle cx="272.6099706744868" cy="-272.6071116872582" fill="#DD3355" r="2.5"/>
<circle cx="273.0791788856305" cy="-226.8332786123393" fill="#DD3355" r="2.5"/>
<circle cx="273.5483870967742" cy="-175.74160412019074" fill="#DD3355" r="2.5"/>
<circle cx="274.0175953079179" cy="-124.11269262646164" fill="#DD3355" r="2.5"/>
<circle cx="274.4868035190616" cy="-76.77741735492943" fill="#DD3355" r="2.5"/>
<circle cx="274.95601173020526" cy="-38.16489964930399" fill="#DD3355" r="2.5"/>
<circle cx="275.425219941349" cy="-11.888079865869928" fill="#DD3355" r="2.5"/>
<circle cx="275.89442815249265" cy="-0.4056576251535726" fill="#DD3355" r="2.5"/>
<circle cx="276.3636363636364" cy="-4.792033384997617" fill="#DD3355" r="2.5"/>
<circle cx="276.83284457478004" cy="-24.63677770587708" fill="#DD3355" r="2.5"/>
<circle cx="277.30205278592376" cy="-58.08303478357668" fill="#DD3355" r="2.5"/>
<circle cx="277.77126099706743" cy="-102.00126686342456" fill="#DD3355" r="2.5"/>
<circle cx="278.24046920821115" cy="-152.28208241939654" fill="#DD3355" r="2.5"/>
<circle cx="278.7096774193548" cy="-204.22074841507086" fill="#DD3355" r="2.5"/>
<circle cx="279.17888563049854" cy="-252.95740816205506" fill="#DD3355" r="2.5"/>
<circle cx="279.6480938416422" cy="-293.9318139662512" fill="#DD3355" r="2.5"/>
<circle cx="280.11730205278593" cy="-323.31002561600627" fill="#DD3355" r="2.5"/>
<circle cx="280.5865102639296" cy="-338.3431488984623" fill="#DD3355" r="2.5"/>
<circle cx="281.0557184750733" cy="-337.62454728703307" fill="#DD3355" r="2.5"/>
<circle cx="281.524926686217" cy="-321.2214597217385" fill="#DD3355" r="2.5"/>
<circle cx="281.9941348973607" cy="-290.66870911892227" fill="#DD3355" r="2.5"/>
<circle cx="282.4633431085044" cy="-248.82509029973465" fill="#DD3355" r="2.5"/>
<circle cx="282.9325513196481" cy="-199.60587499645143" fill="#DD3355" r="2.5"/>
<circle cx="283.40175953079176" cy="-147.61646321509156" fill="#DD3355" r="2.5"/>
<circle cx="283.8709677419355" cy="-97.7214598839425" fill="#DD3355" r="2.5"/>
<circle cx="284.34017595307915" cy="-54.5894979185332" fill="#DD3355" r="2.5"/>
<circle cx="284.8093841642229" cy="-22.25639822075357" fill="#DD3355" r="2.5"/>
<circle cx="285.27859237536654" cy="-3.747541358430868" fill="#DD3355" r="2.5"/>
<circle cx="285.74780058651027" cy="-0.7947852854165682" fill="#DD3355" r="2.5"/>
<circle cx="286.21700879765393" cy="-13.674416869606416" fill="#DD3355" r="2.5"/>
<circle cx="286.68621700879766" cy="-41.18129996630876" fill="#DD3355" r="2.5"/>
<circle cx="287.1554252199413" cy="-80.74163897966683" fill="#DD3355" r="2.5"/>
<circle cx="287.62463343108504" cy="-128.65380672185188" fill="#DD3355" r="2.5"/>
<circle cx="288.09384164222877" cy="-180.43470251259933" fill="#DD3355" r="2.5"/>
<circle cx="288.56304985337243" cy="-231.23923208705878" fill="#DD3355" r="2.5"/>
<circle cx="289.03225806451616" cy="-276.3136589346769" fill="#DD3355" r="2.5"/>
<circle cx="289.5014662756598" cy="-311.4404073709125" fill="#DD3355" r="2.5"/>
<circle cx="289.97067448680355" cy="-333.332697497654" fill="#DD3355" r="2.5"/>
<circle cx="290.4398826979472" cy="-339.9420863956022" fill="#DD3355" r="2.5"/>
<circle cx="290.90909090909093" cy="-330.65013918149424" fill="#DD3355" r="2.5"/>
<circle cx="291.3782991202346" cy="-306.32629543278125" fill="#DD3355" r="2.5"/>
<circle cx="291.8475073313783" cy="-269.2465164677507" fill="#DD3355" r="2.5"/>
<circle cx="292.316715542522" cy="-222.88032558571737" fill="#DD3355" r="2.5"/>
<circle cx="292.7859237536657" cy="-171.5661677304125" fill="#DD3355" r="2.5"/>
<circle cx="293.2551319648094" cy="-120.10546489607519" fill="#DD3355" r="2.5"/>
<circle cx="293.7243401759531" cy="-73.31335116564338" fill="#DD3355" r="2.5"/>
<circle cx="294.19354838709677" cy="-35.56812472059246" fill="#DD3355" r="2.5"/>
<circle cx="294.6627565982405" cy="-10.401574213506349" fill="#DD3355" r="2.5"/>
<circle cx="295.13196480938416" cy="-0.16851231546554324" fill="#DD3355" r="2.5"/>
<circle cx="295.6011730205279" cy="-5.826437902395569" fill="#DD3355" r="2.5"/>
<circle cx="296.07038123167155" cy="-26.84594370171919" fill="#DD3355" r="2.5"/>
<circle cx="296.53958944281527" cy="-61.260252479422284" fill="#DD3355" r="2.5"/>
<circle cx="297.00879765395894" cy="-105.84924670872401" fill="#DD3355" r="2.5"/>
<circle cx="297.47800586510266" cy="-156.4407722212548" fill="#DD3355" r="2.5"/>
<circle cx="297.9472140762463" cy="-208.30102311490072" fill="#DD3355" r="2.5"/>
<circle cx="298.41642228739005" cy="-256.5774799355003" fill="#DD3355" r="2.5"/>
<circle cx="298.8856304985337" cy="-296.7529557843594" fill="#DD3355" r="2.5"/>
<circle cx="299.35483870967744" cy="-325.0682656444778" fill="#DD3355" r="2.5"/>
<circle cx="299.8240469208211" cy="-338.87397011711187" fill="#DD3355" r="2.5"/>
<circle cx="300.2932551319648" cy="-336.8782812070704" fill="#DD3355" r="2.5"/>
<circle cx="300.7624633431085" cy="-319.2679338239142" fill="#DD3355" r="2.5"/>
<circle cx="301.2316715542522" cy="-287.6907131556936" fill="#DD3355" r="2.5"/>
<circle cx="301.7008797653959" cy="-245.10127281400895" fill="#DD3355" r="2.5"/>
<circle cx="302.1700879765396" cy="-195.48467041501365" fill="#DD3355" r="2.5"/>
<circle cx="302.63929618768327" cy="-143.4834891364136" fill="#DD3355" r="2.5"/>
<circle cx="303.108504398827" cy="-93.96343516833088" fill="#DD3355" r="2.5"/>
<circle cx="303.57771260997066" cy="-51.55805773410654" fill="#DD3355" r="2.5"/>
<circle cx="304.0469208211144" cy="-20.23519184061074" fill="#DD3355" r="2.5"/>
<circle cx="304.51612903225805" cy="-2.925691340054588" fill="#DD3355" r="2.5"/>
<circle cx="304.9853372434018" cy="-1.2491914342239274" fill="#DD3355" r="2.5"/>
<circle cx="305.45454545454544" cy="-15.362560789730864" fill="#DD3355" r="2.5"/>
<circle cx="305.92375366568916" cy="-43.94522347064863" fill="#DD3355" r="2.5"/>
<circle cx="306.3929618768328" cy="-84.32272410275702" fill="#DD3355" r="2.5"/>
<circle cx="306.86217008797655" cy="-132.71697438236595" fill="#DD3355" r="2.5"/>
<circle cx="307.3313782991202" cy="-184.59976557726733" fill="#DD3355" r="2.5"/>
<circle cx="307.80058651026394" cy="-235.11646915651775" fill="#DD3355" r="2.5"/>
<circle cx="308.2697947214076" cy="-279.5402802425163" fill="#DD3355" r="2.5"/>
<circle cx="308.73900293255133" cy="-313.7145007127454" fill="#DD3355" r="2.5"/>
<circle cx="309.208211143695" cy="-334.441477898631" fill="#DD3355" r="2.5"/>
<circle cx="309.6774193548387" cy="-339.7818062190789" fill="#DD3355" r="2.5"/>
<circle cx="310.1466275659824" cy="-329.235795706915" fill="#DD3355" r="2.5"/>
<circle cx="310.6158357771261" cy="-303.790227573032" fill="#DD3355" r="2.5"/>
<circle cx="311.0850439882698" cy="-265.8260219299238" fill="#DD3355" r="2.5"/>
<circle cx="311.5542521994135" cy="-218.89545712702167" fill="#DD3355" r="2.5"/>
<circle cx="312.02346041055716" cy="-167.38978609457627" fill="#DD3355" r="2.5"/>
<circle cx="312.4926686217009" cy="-116.12835055149571" fill="#DD3355" r="2.5"/>
<circle cx="312.96187683284455" cy="-69.9076393102071" fill="#DD3355" r="2.5"/>
<circle cx="313.4310850439883" cy="-33.05248490851181" fill="#DD3355" r="2.5"/>
<circle cx="313.90029325513194" cy="-9.011392716882137" fill="#DD3355" r="2.5"/>
<circle cx="314.36950146627566" cy="-0.033867231506954365" fill="#DD3355" r="2.5"/>
<circle cx="314.83870967741933" cy="-6.959927856794847" fill="#DD3355" r="2.5"/>
<circle cx="315.30791788856305" cy="-29.141509005985863" fill="#DD3355" r="2.5"/>
<circle cx="315.7771260997067" cy="-64.50309904549664" fill="#DD3355" r="2.5"/>
<circle cx="316.24633431085044" cy="-109.73594414863868" fill="#DD3355" r="2.5"/>
<circle cx="316.7155425219941" cy="-160.607645569798" fill="#DD3355" r="2.5"/>
<circle cx="317.18475073313783" cy="-212.35818158600478" fill="#DD3355" r="2.5"/>
<circle cx="317.6539589442815" cy="-260.1452986706106" fill="#DD3355" r="2.5"/>
<circle cx="318.1231671554252" cy="-299.4975970267648" fill="#DD3355" r="2.5"/>
<circle cx="318.5923753665689" cy="-326.73291565352037" fill="#DD3355" r="2.5"/>
<circle cx="319.0615835777126" cy="-339.3028690109157" fill="#DD3355" r="2.5"/>
<circle cx="319.5307917888563" cy="-336.03129728186923" fill="#DD3355" r="2.5"/>
<circle cx="320" cy="-317.22431864335607" fill="#DD3355" r="2.5"/>
<circle cx="320.4692082111437" cy="-284.64168604960673" fill="#DD3355" r="2.5"/>
<circle cx="320.9384164222874" cy="-241.33212864875549" fill="#DD3355" r="2.5"/>
<circle cx="321.4076246334311" cy="-191.34808479613812" fill="#DD3355" r="2.5"/>
<circle cx="321.8768328445748" cy="-139.36651885295015" fill="#DD3355" r="2.5"/>
<circle cx="322.3460410557185" cy="-90.25130161910539" fill="#DD3355" r="2.5"/>
<circle cx="322.81524926686217" cy="-48.59810208993213" fill="#DD3355" r="2.5"/>
<circle cx="323.2844574780059" cy="-18.30437462711528" fill="#DD3355" r="2.5"/>
<circle cx="323.75366568914956" cy="-2.2046774774743194" fill="#DD3355" r="2.5"/>
<circle cx="324.2228739002933" cy="-1.8054455748599096" fill="#DD3355" r="2.5"/>
<circle cx="324.69208211143695" cy="-17.144034707969183" fill="#DD3355" r="2.5"/>
<circle cx="325.16129032258067" cy="-46.78522617104741" fill="#DD3355" r="2.5"/>
<circle cx="325.63049853372434" cy="-87.955518954354" fill="#DD3355" r="2.5"/>
<circle cx="326.09970674486806" cy="-136.80264386862382" fill="#DD3355" r="2.5"/>
<circle cx="326.5689149560117" cy="-188.7560170882683" fill="#DD3355" r="2.5"/>
<circle cx="327.03812316715545" cy="-238.95440578247099" fill="#DD3355" r="2.5"/>
<circle cx="327.5073313782991" cy="-282.7007895259933" fill="#DD3355" r="2.5"/>
<circle cx="327.97653958944284" cy="-315.90185649510124" fill="#DD3355" r="2.5"/>
<circle cx="328.4457478005865" cy="-335.45101116449956" fill="#DD3355" r="2.5"/>
<circle cx="328.9149560117302" cy="-339.5190558016161" fill="#DD3355" r="2.5"/>
<circle cx="329.3841642228739" cy="-327.72534693862957" fill="#DD3355" r="2.5"/>
<circle cx="329.8533724340176" cy="-301.1734118571955" fill="#DD3355" r="2.5"/>
<circle cx="330.3225806451613" cy="-262.34769248167" fill="#DD3355" r="2.5"/>
<circle cx="330.791788856305" cy="-214.88107826680388" fill="#DD3355" r="2.5"/>
<circle cx="331.26099706744867" cy="-163.21497982922835" fill="#DD3355" r="2.5"/>
<circle cx="331.7302052785924" cy="-112.18374994334638" fill="#DD3355" r="2.5"/>
<circle cx="332.19941348973606" cy="-66.56233727455376" fill="#DD3355" r="2.5"/>
<circle cx="332.6686217008798" cy="-30.61949850424053" fill="#DD3355" r="2.5"/>
<circle cx="333.13782991202345" cy="-7.718374407199059" fill="#DD3355" r="2.5"/>
<circle cx="333.6070381231672" cy="-0.0018036370745189156" fill="#DD3355" r="2.5"/>
<circle cx="334.07624633431084" cy="-8.191819140804524" fill="#DD3355" r="2.5"/>
<circle cx="334.54545454545456" cy="-31.52208815144085" fill="#DD3355" r="2.5"/>
<circle cx="335.0146627565982" cy="-67.80961729171122" fill="#DD3355" r="2.5"/>
<circle cx="335.48387096774195" cy="-113.65901340283307" fill="#DD3355" r="2.5"/>
<circle cx="335.9530791788856" cy="-164.7801875871043" fill="#DD3355" r="2.5"/>
<circle cx="336.42228739002934" cy="-216.38977516785275" fill="#DD3355" r="2.5"/>
<circle cx="336.891495601173" cy="-263.6587110433427" fill="#DD3355" r="2.5"/>
<circle cx="337.36070381231673" cy="-302.16408119059696" fill="#DD3355" r="2.5"/>
<circle cx="337.8299120234604" cy="-328.3029709589986" fill="#DD3355" r="2.5"/>
<circle cx="338.2991202346041" cy="-339.62958672190797" fill="#DD3355" r="2.5"/>
<circle cx="338.7683284457478" cy="-335.0841067007563" fill="#DD3355" r="2.5"/>
<circle cx="339.2375366568915" cy="-315.0918475851303" fill="#DD3355" r="2.5"/>
<circle cx="339.7067448680352" cy="-281.52346801279856" fill="#DD3355" r="2.5"/>
<circle cx="340.1759530791789" cy="-237.5199326361167" fill="#DD3355" r="2.5"/>
<circle cx="340.64516129032256" cy="-187.19861473786725" fill="#DD3355" r="2.5"/>
<circle cx="341.1143695014663" cy="-135.26803712408437" fill="#DD3355" r="2.5"/>
<circle cx="341.58357771260995" cy="-86.587299660178" fill="#DD3355" r="2.5"/>
<circle cx="342.0527859237537" cy="-45.711417439902654" fill="#DD3355" r="2.5"/>
<circle cx="342.52199413489734" cy="-16.465111907166726" fill="#DD3355" r="2.5"/>
<circle cx="342.99120234604106" cy="-1.5849349319471673" fill="#DD3355" r="2.5"/>
<circle cx="343.46041055718473" cy="-2.4632119852762435" fill="#DD3355" r="2.5"/>
<circle cx="343.92961876832845" cy="-19.01776343219495" fill="#DD3355" r="2.5"/>
<circle cx="344.3988269794721" cy="-49.699594010107205" fill="#DD3355" r="2.5"/>
<circle cx="344.86803519061584" cy="-91.63783099467125" fill="#DD3355" r="2.5"/>
<circle cx="345.3372434017595" cy="-140.9083493125446" fill="#DD3355" r="2.5"/>
<circle cx="345.80645161290323" cy="-192.9009485783924" fill="#DD3355" r="2.5"/>
<circle cx="346.2756598240469" cy="-242.75072561372167" fill="#DD3355" r="2.5"/>
<circle cx="346.7448680351906" cy="-285.79327928892195" fill="#DD3355" r="2.5"/>
<circle cx="347.2140762463343" cy="-318.001154559604" fill="#DD3355" r="2.5"/>
<circle cx="347.683284457478" cy="-336.3606880007828" fill="#DD3355" r="2.5"/>
<circle cx="348.1524926686217" cy="-339.15399372380074" fill="#DD3355" r="2.5"/>
<circle cx="348.6217008797654" cy="-326.1197044940443" fill="#DD3355" r="2.5"/>
<circle cx="349.09090909090907" cy="-298.4774276402266" fill="#DD3355" r="2.5"/>
<circle cx="349.5601173020528" cy="-258.813627436596" fill="#DD3355" r="2.5"/>
<circle cx="350.02932551319645" cy="-210.83961184634128" fill="#DD3355" r="2.5"/>
<circle cx="350.4985337243402" cy="-159.04426860013413" fill="#DD3355" r="2.5"/>
<circle cx="350.96774193548384" cy="-108.27404379889876" fill="#DD3355" r="2.5"/>
<circle cx="351.43695014662757" cy="-63.27946408482785" fill="#DD3355" r="2.5"/>
<circle cx="351.90615835777123" cy="-28.2706339142475" fill="#DD3355" r="2.5"/>
<circle cx="352.37536656891496" cy="-6.523299673713536" fill="#DD3355" r="2.5"/>
<circle cx="352.8445747800587" cy="-0.07234088385454807" fill="#DD3355" r="2.5"/>
<circle cx="353.31378299120234" cy="-9.52136825781577" fill="#DD3355" r="2.5"/>
<circle cx="353.78299120234607" cy="-33.98624436153226" fill="#DD3355" r="2.5"/>
<circle cx="354.25219941348973" cy="-71.17781159951555" fill="#DD3355" r="2.5"/>
<circle cx="354.72140762463346" cy="-117.61608673908547" fill="#DD3355" r="2.5"/>
<circle cx="355.1906158357771" cy="-168.95587997397917" fill="#DD3355" r="2.5"/>
<circle cx="355.65982404692085" cy="-220.3933706293812" fill="#DD3355" r="2.5"/>
<circle cx="356.1290322580645" cy="-267.115596566115" fill="#DD3355" r="2.5"/>
<circle cx="356.59824046920824" cy="-304.75079894397413" fill="#DD3355" r="2.5"/>
<circle cx="357.0674486803519" cy="-329.7774839685312" fill="#DD3355" r="2.5"/>
<circle cx="357.5366568914956" cy="-339.8539260626319" fill="#DD3355" r="2.5"/>
<circle cx="358.0058651026393" cy="-334.0372811318571" fill="#DD3355" r="2.5"/>
<circle cx="358.475073313783" cy="-312.87180768244485" fill="#DD3355" r="2.5"/>
<circle cx="358.9442815249267" cy="-278.337941016967" fill="#DD3355" r="2.5"/>
<circle cx="359.4134897360704" cy="-233.6669855917932" fill="#DD3355" r="2.5"/>
<circle cx="359.88269794721407" cy="-183.03876461452296" fill="#DD3355" r="2.5"/>
<circle cx="360.3519061583578" cy="-131.19051755060767" fill="#DD3355" r="2.5"/>
<circle cx="360.82111436950146" cy="-82.97364066609671" fill="#DD3355" r="2.5"/>
<circle cx="361.2903225806452" cy="-42.89974601587556" fill="#DD3355" r="2.5"/>
<circle cx="361.75953079178885" cy="-14.718513750788897" fill="#DD3355" r="2.5"/>
<circle cx="362.22873900293257" cy="-1.0668377433615983" fill="#DD3355" r="2.5"/>
<circle cx="362.69794721407624" cy="-3.22209367663055" fill="#DD3355" r="2.5"/>
<circle cx="363.16715542521996" cy="-20.982616090739185" fill="#DD3355" r="2.5"/>
<circle cx="363.6363636363636" cy="-52.686568048037536" fill="#DD3355" r="2.5"/>
<circle cx="364.10557184750735" cy="-95.36743779829301" fill="#DD3355" r="2.5"/>
<circle cx="364.574780058651" cy="-145.03161275353517" fill="#DD3355" r="2.5"/>
<circle cx="365.04398826979474" cy="-197.03205841253327" fill="#DD3355" r="2.5"/>
<circle cx="365.5131964809384" cy="-246.50313741649182" fill="#DD3355" r="2.5"/>
<circle cx="365.9824046920821" cy="-288.8158830876735" fill="#DD3355" r="2.5"/>
<circle cx="366.4516129032258" cy="-320.01112789429726" fill="#DD3355" r="2.5"/>
<circle cx="366.9208211143695" cy="-337.1699593804263" fill="#DD3355" r="2.5"/>
<circle cx="367.3900293255132" cy="-338.68684031547826" fill="#DD3355" r="2.5"/>
<circle cx="367.8592375366569" cy="-324.4198374438242" fill="#DD3355" r="2.5"/>
<circle cx="368.3284457478006" cy="-295.70390205849463" fill="#DD3355" r="2.5"/>
<circle cx="368.7976539589443" cy="-255.2259597470212" fill="#DD3355" r="2.5"/>
<circle cx="369.26686217008796" cy="-206.7734970553719" fill="#DD3355" r="2.5"/>
<circle cx="369.7360703812317" cy="-154.88016960153277" fill="#DD3355" r="2.5"/>
<circle cx="370.20527859237535" cy="-104.4015917851794" fill="#DD3355" r="2.5"/>
<circle cx="370.6744868035191" cy="-60.06100108881679" fill="#DD3355" r="2.5"/>
<circle cx="371.14369501466274" cy="-26.007308774063056" fill="#DD3355" r="2.5"/>
<circle cx="371.61290322580646" cy="-5.426889792745327" fill="#DD3355" r="2.5"/>
<circle cx="372.08211143695013" cy="-0.24543639974322629" fill="#DD3355" r="2.5"/>
<circle cx="372.55131964809385" cy="-10.947772770740837" fill="#DD3355" r="2.5"/>
<circle cx="373.0205278592375" cy="-36.53249041753415" fill="#DD3355" r="2.5"/>
<circle cx="373.48973607038124" cy="-74.60564912635351" fill="#DD3355" r="2.5"/>
<circle cx="373.9589442815249" cy="-121.60477590233815" fill="#DD3355" r="2.5"/>
<circle cx="374.42815249266863" cy="-173.13220252985644" fill="#DD3355" r="2.5"/>
<circle cx="374.8973607038123" cy="-224.36655163752874" fill="#DD3355" r="2.5"/>
<circle cx="375.366568914956" cy="-270.51386886759207" fill="#DD3355" r="2.5"/>
<circle cx="375.8357771260997" cy="-307.2561890972855" fill="#DD3355" r="2.5"/>
<circle cx="376.3049853372434" cy="-331.1555647534124" fill="#DD3355" r="2.5"/>
<circle cx="376.7741935483871" cy="-339.9757516351507" fill="#DD3355" r="2.5"/>
<circle cx="377.2434017595308" cy="-332.8914523770762" fill="#DD3355" r="2.5"/>
<circle cx="377.71260997067446" cy="-310.5655388198824" fill="#DD3355" r="2.5"/>
<circle cx="378.1818181818182" cy="-275.08702765750706" fill="#DD3355" r="2.5"/>
<circle cx="378.65102639296185" cy="-229.77561292638123" fill="#DD3355" r="2.5"/>
<circle cx="379.1202346041056" cy="-178.871045065234" fill="#DD3355" r="2.5"/>
<circle cx="379.58944281524924" cy="-127.136421081801" fill="#DD3355" r="2.5"/>
<circle cx="380.05865102639297" cy="-79.4125056273652" fill="#DD3355" r="2.5"/>
<circle cx="380.52785923753663" cy="-40.16478477616544" fill="#DD3355" r="2.5"/>
<circle cx="380.99706744868035" cy="-13.065634301166488" fill="#DD3355" r="2.5"/>
<circle cx="381.466275659824" cy="-0.6506986044915697" fill="#DD3355" r="2.5"/>
<circle cx="381.93548387096774" cy="-4.081632632889217" fill="#DD3355" r="2.5"/>
<circle cx="382.4046920821114" cy="-23.037406814930442" fill="#DD3355" r="2.5"/>
<circle cx="382.87390029325513" cy="-55.74434552425085" fill="#DD3355" r="2.5"/>
<circle cx="383.3431085043988" cy="-99.14208839548179" fill="#DD3355" r="2.5"/>
<circle cx="383.8123167155425" cy="-149.169945634021" fill="#DD3355" r="2.5"/>
<circle cx="384.28152492668625" cy="-201.14685329750313" fill="#DD3355" r="2.5"/>
<circle cx="384.7507331378299" cy="-250.2093764573018" fill="#DD3355" r="2.5"/>
<circle cx="385.21994134897363" cy="-291.7667766576367" fill="#DD3355" r="2.5"/>
<circle cx="385.6891495601173" cy="-321.93056339833794" fill="#DD3355" r="2.5"/>
<circle cx="386.158357771261" cy="-337.87833687516485" fill="#DD3355" r="2.5"/>
<circle cx="386.6275659824047" cy="-338.11787752277263" fill="#DD3355" r="2.5"/>
<circle cx="387.0967741935484" cy="-322.62677172702644" fill="#DD3355" r="2.5"/>
<circle cx="387.5659824046921" cy="-292.8545090477529" fill="#DD3355" r="2.5"/>
<circle cx="388.0351906158358" cy="-251.58685471663355" fill="#DD3355" r="2.5"/>
<circle cx="388.50439882697947" cy="-202.68518795991625" fill="#DD3355" r="2.5"/>
<circle cx="388.9736070381232" cy="-150.72519603690805" fill="#DD3355" r="2.5"/>
<circle cx="389.44281524926686" cy="-100.568731084833" fill="#DD3355" r="2.5"/>
<circle cx="389.9120234604106" cy="-56.90889076014167" fill="#DD3355" r="2.5"/>
<circle cx="390.38123167155425" cy="-23.830889092664968" fill="#DD3355" r="2.5"/>
<circle cx="390.85043988269797" cy="-4.429806492349551" fill="#DD3355" r="2.5"/>
<circle cx="391.31964809384164" cy="-0.520985714541542" fill="#DD3355" r="2.5"/>
<circle cx="391.78885630498536" cy="-12.470171786309244" fill="#DD3355" r="2.5"/>
<circle cx="392.258064516129" cy="-39.15928955615777" fill="#DD3355" r="2.5"/>
<circle cx="392.72727272727275" cy="-78.09106103255161" fill="#DD3355" r="2.5"/>
<circle cx="393.1964809384164" cy="-125.62267355609313" fill="#DD3355" r="2.5"/>
<circle cx="393.66568914956014" cy="-177.30663467381808" fill="#DD3355" r="2.5"/>
<circle cx="394.1348973607038" cy="-228.30692021559213" fill="#DD3355" r="2.5"/>
<circle cx="394.6041055718475" cy="-273.8514769519149" fill="#DD3355" r="2.5"/>
<circle cx="395.0733137829912" cy="-309.6787395454509" fill="#DD3355" r="2.5"/>
<circle cx="395.5425219941349" cy="-332.43638158571497" fill="#DD3355" r="2.5"/>
<circle cx="396.0117302052786" cy="-339.99498991276494" fill="#DD3355" r="2.5"/>
<circle cx="396.4809384164223" cy="-331.6473119907721" fill="#DD3355" r="2.5"/>
<circle cx="396.95014662756597" cy="-308.1744329247133" fill="#DD3355" r="2.5"/>
<circle cx="397.4193548387097" cy="-271.7726899931417" fill="#DD3355" r="2.5"/>
<circle cx="397.88856304985336" cy="-225.84816324190533" fill="#DD3355" r="2.5"/>
<circle cx="398.3577712609971" cy="-174.6979714786389" fill="#DD3355" r="2.5"/>
<circle cx="398.82697947214075" cy="-123.1081945301327" fill="#DD3355" r="2.5"/>
<circle cx="399.2961876832845" cy="-75.90604383414747" fill="#DD3355" r="2.5"/>
<circle cx="399.76539589442814" cy="-37.508184381370164" fill="#DD3355" r="2.5"/>
<circle cx="400.23460410557186" cy="-11.507471138422623" fill="#DD3355" r="2.5"/>
<circle cx="400.7038123167155" cy="-0.3367686722702601" fill="#DD3355" r="2.5"/>
<circle cx="401.17302052785925" cy="-5.041310087253557" fill="#DD3355" r="2.5"/>
<circle cx="401.6422287390029" cy="-25.180895454803892" fill="#DD3355" r="2.5"/>
<circle cx="402.11143695014664" cy="-58.87108094539135" fill="#DD3355" r="2.5"/>
<circle cx="402.5806451612903" cy="-102.95950463073896" fill="#DD3355" r="2.5"/>
<circle cx="403.04985337243403" cy="-153.3208503014257" fill="#DD3355" r="2.5"/>
<circle cx="403.5190615835777" cy="-205.24284978685577" fill="#DD3355" r="2.5"/>
<circle cx="403.9882697947214" cy="-253.86720586980738" fill="#DD3355" r="2.5"/>
<circle cx="404.4574780058651" cy="-294.6441790142603" fill="#DD3355" r="2.5"/>
<circle cx="404.9266862170088" cy="-323.75830261416513" fill="#DD3355" r="2.5"/>
<circle cx="405.3958944281525" cy="-338.4853929503052" fill="#DD3355" r="2.5"/>
<circle cx="405.8651026392962" cy="-337.4474487379242" fill="#DD3355" r="2.5"/>
<circle cx="406.33431085043986" cy="-320.74158953190494" fill="#DD3355" r="2.5"/>
<circle cx="406.8035190615836" cy="-289.93096833283465" fill="#DD3355" r="2.5"/>
<circle cx="407.27272727272725" cy="-247.8985086936569" fill="#DD3355" r="2.5"/>
<circle cx="407.741935483871" cy="-198.57715202116202" fill="#DD3355" r="2.5"/>
<circle cx="408.21114369501464" cy="-146.5818556021915" fill="#DD3355" r="2.5"/>
<circle cx="408.68035190615836" cy="-96.77777498553702" fill="#DD3355" r="2.5"/>
<circle cx="409.14956011730203" cy="-53.825035525876416" fill="#DD3355" r="2.5"/>
<circle cx="409.61876832844575" cy="-21.742688428047188" fill="#DD3355" r="2.5"/>
<circle cx="410.0879765395894" cy="-3.532651552941537" fill="#DD3355" r="2.5"/>
<circle cx="410.55718475073314" cy="-0.8988225230033953" fill="#DD3355" r="2.5"/>
<circle cx="411.0263929618768" cy="-14.087646474660454" fill="#DD3355" r="2.5"/>
<circle cx="411.49560117302053" cy="-41.86505639705172" fill="#DD3355" r="2.5"/>
<circle cx="411.9648093841642" cy="-81.63194372993097" fill="#DD3355" r="2.5"/>
<circle cx="412.4340175953079" cy="-129.66735473532387" fill="#DD3355" r="2.5"/>
<circle cx="412.9032258064516" cy="-181.47665696591545" fill="#DD3355" r="2.5"/>
<circle cx="413.3724340175953" cy="-232.2120981905207" fill="#DD3355" r="2.5"/>
<circle cx="413.841642228739" cy="-277.1264064365601" fill="#DD3355" r="2.5"/>
<circle cx="414.3108504398827" cy="-312.0169881805122" fill="#DD3355" r="2.5"/>
<circle cx="414.78005865102637" cy="-333.6191614402669" fill="#DD3355" r="2.5"/>
<circle cx="415.2492668621701" cy="-339.91162928438996" fill="#DD3355" r="2.5"/>
<circle cx="415.71847507331375" cy="-330.30561086238475" fill="#DD3355" r="2.5"/>
<circle cx="416.1876832844575" cy="-305.69993312680936" fill="#DD3355" r="2.5"/>
<circle cx="416.6568914956012" cy="-268.3969283617704" fill="#DD3355" r="2.5"/>
<circle cx="417.12609970674487" cy="-221.88700691435545" fill="#DD3355" r="2.5"/>
<circle cx="417.5953079178886" cy="-170.52206247473657" fill="#DD3355" r="2.5"/>
<circle cx="418.06451612903226" cy="-119.10826909453571" fill="#DD3355" r="2.5"/>
<circle cx="418.533724340176" cy="-72.4563715790629" fill="#DD3355" r="2.5"/>
<circle cx="419.00293255131965" cy="-34.93154819812299" fill="#DD3355" r="2.5"/>
<circle cx="419.47214076246337" cy="-10.044964677545655" fill="#DD3355" r="2.5"/>
<circle cx="419.94134897360703" cy="-0.12523741620755424" fill="#DD3355" r="2.5"/>
<circle cx="420.41055718475076" cy="-6.100546835260165" fill="#DD3355" r="2.5"/>
<circle cx="420.8797653958944" cy="-27.411788327594376" fill="#DD3355" r="2.5"/>
<circle cx="421.34897360703815" cy="-62.06488719917225" fill="#DD3355" r="2.5"/>
<circle cx="421.8181818181818" cy="-106.81738253774675" fill="#DD3355" r="2.5"/>
<circle cx="422.28739002932554" cy="-157.48182151556784" fill="#DD3355" r="2.5"/>
<circle cx="422.7565982404692" cy="-209.317575779743" fill="#DD3355" r="2.5"/>
<circle cx="423.2258064516129" cy="-257.4744180048608" fill="#DD3355" r="2.5"/>
<circle cx="423.6950146627566" cy="-297.4463535279164" fill="#DD3355" r="2.5"/>
<circle cx="424.1642228739003" cy="-325.49324242664653" fill="#DD3355" r="2.5"/>
<circle cx="424.633431085044" cy="-338.9907612227589" fill="#DD3355" r="2.5"/>
<circle cx="425.1026392961877" cy="-336.6759585920316" fill="#DD3355" r="2.5"/>
<circle cx="425.57184750733137" cy="-318.76542864275643" fill="#DD3355" r="2.5"/>
<circle cx="426.0410557184751" cy="-286.93504438972815" fill="#DD3355" r="2.5"/>
<circle cx="426.51026392961876" cy="-244.16314774528269" fill="#DD3355" r="2.5"/>
<circle cx="426.9794721407625" cy="-194.45186860626544" fill="#DD3355" r="2.5"/>
<circle cx="427.44868035190615" cy="-142.45264897220832" fill="#DD3355" r="2.5"/>
<circle cx="427.91788856304987" cy="-93.03101148382099" fill="#DD3355" r="2.5"/>
<circle cx="428.38709677419354" cy="-50.81129661835625" fill="#DD3355" r="2.5"/>
<circle cx="428.85630498533726" cy="-19.743967094442688" fill="#DD3355" r="2.5"/>
<circle cx="429.3255131964809" cy="-2.7359664441004226" fill="#DD3355" r="2.5"/>
<circle cx="429.79472140762465" cy="-1.3787187852164617" fill="#DD3355" r="2.5"/>
<circle cx="430.2639296187683" cy="-15.799220623884526" fill="#DD3355" r="2.5"/>
<circle cx="430.73313782991204" cy="-44.64815789962821" fill="#DD3355" r="2.5"/>
<circle cx="431.2023460410557" cy="-85.22616015145329" fill="#DD3355" r="2.5"/>
<circle cx="431.6715542521994" cy="-133.7363783100683" fill="#DD3355" r="2.5"/>
<circle cx="432.1407624633431" cy="-185.63975262771575" fill="#DD3355" r="2.5"/>
<circle cx="432.6099706744868" cy="-236.0797286282135" fill="#DD3355" r="2.5"/>
<circle cx="433.0791788856305" cy="-280.3366807680823" fill="#DD3355" r="2.5"/>
<circle cx="433.5483870967742" cy="-314.2695237741088" fill="#DD3355" r="2.5"/>
<circle cx="434.0175953079179" cy="-334.7031904612136" fill="#DD3355" r="2.5"/>
<circle cx="434.4868035190616" cy="-339.7257200615632" fill="#DD3355" r="2.5"/>
<circle cx="434.95601173020526" cy="-328.86715876323746" fill="#DD3355" r="2.5"/>
<circle cx="435.425219941349" cy="-303.14353288767035" fill="#DD3355" r="2.5"/>
<circle cx="435.89442815249265" cy="-264.96178017313775" fill="#DD3355" r="2.5"/>
<circle cx="436.3636363636364" cy="-217.8945346630411" fill="#DD3355" r="2.5"/>
<circle cx="436.83284457478004" cy="-166.34583838485932" fill="#DD3355" r="2.5"/>
<circle cx="437.30205278592376" cy="-115.13905889306103" fill="#DD3355" r="2.5"/>
<circle cx="437.77126099706743" cy="-69.065570879942" fill="#DD3355" r="2.5"/>
<circle cx="438.24046920821115" cy="-32.43643133138993" fill="#DD3355" r="2.5"/>
<circle cx="438.7096774193548" cy="-8.678997600799635" fill="#DD3355" r="2.5"/>
<circle cx="439.17888563049854" cy="-0.016232504040591955" fill="#DD3355" r="2.5"/>
<circle cx="439.6480938416422" cy="-7.258703584356287" fill="#DD3355" r="2.5"/>
<circle cx="440.11730205278593" cy="-29.728738998511922" fill="#DD3355" r="2.5"/>
<circle cx="440.5865102639296" cy="-65.32383669332485" fill="#DD3355" r="2.5"/>
<circle cx="441.0557184750733" cy="-110.71339372993245" fill="#DD3355" r="2.5"/>
<circle cx="441.524926686217" cy="-161.6503479607091" fill="#DD3355" r="2.5"/>
<circle cx="441.9941348973607" cy="-213.3685720129378" fill="#DD3355" r="2.5"/>
<circle cx="442.4633431085044" cy="-261.0288357628922" fill="#DD3355" r="2.5"/>
<circle cx="442.9325513196481" cy="-300.17160897207606" fill="#DD3355" r="2.5"/>
<circle cx="443.40175953079176" cy="-327.1343357288875" fill="#DD3355" r="2.5"/>
<circle cx="443.8709677419355" cy="-339.3941366821738" fill="#DD3355" r="2.5"/>
<circle cx="444.34017595307915" cy="-335.8038727108448" fill="#DD3355" r="2.5"/>
<circle cx="444.8093841642229" cy="-316.6994817532348" fill="#DD3355" r="2.5"/>
<circle cx="445.27859237536654" cy="-283.8685453806604" fill="#DD3355" r="2.5"/>
<circle cx="445.74780058651027" cy="-240.38302631410082" fill="#DD3355" r="2.5"/>
<circle cx="446.21700879765393" cy="-190.31182749192322" fill="#DD3355" r="2.5"/>
<circle cx="446.68621700879766" cy="-138.34006829150414" fill="#DD3355" r="2.5"/>
<circle cx="447.1554252199413" cy="-89.33070190419348" fill="#DD3355" r="2.5"/>
<circle cx="447.62463343108504" cy="-47.869492951865745" fill="#DD3355" r="2.5"/>
<circle cx="448.09384164222877" cy="-17.835931401646043" fill="#DD3355" r="2.5"/>
<circle cx="448.56304985337243" cy="-2.0402319977638825" fill="#DD3355" r="2.5"/>
<circle cx="449.03225806451616" cy="-1.9603848642212918" fill="#DD3355" r="2.5"/>
<circle cx="449.5014662756598" cy="-17.6038612292128" fill="#DD3355" r="2.5"/>
<circle cx="449.97067448680355" cy="-47.50691434868173" fill="#DD3355" r="2.5"/>
<circle cx="450.4398826979472" cy="-88.87154104099558" fill="#DD3355" r="2.5"/>
<circle cx="450.90909090909093" cy="-137.82728845873172" fill="#DD3355" r="2.5"/>
<circle cx="451.3782991202346" cy="-189.79340906126586" fill="#DD3355" r="2.5"/>
<circle cx="451.8475073313783" cy="-239.90747725605246" fill="#DD3355" r="2.5"/>
<circle cx="452.316715542522" cy="-283.48036241506094" fill="#DD3355" r="2.5"/>
<circle cx="452.7859237536657" cy="-316.4349868291889" fill="#DD3355" r="2.5"/>
<circle cx="453.2551319648094" cy="-335.687814392852" fill="#DD3355" r="2.5"/>
<circle cx="453.7243401759531" cy="-339.437374448079" fill="#DD3355" r="2.5"/>
<circle cx="454.19354838709677" cy="-327.3328238578046" fill="#DD3355" r="2.5"/>
<circle cx="454.6627565982405" cy="-300.50677509904824" fill="#DD3355" r="2.5"/>
<circle cx="455.13196480938416" cy="-261.4693186792039" fill="#DD3355" r="2.5"/>
<circle cx="455.6011730205279" cy="-213.87315610771265" fill="#DD3355" r="2.5"/>
<circle cx="456.07038123167155" cy="-162.17181973047295" fill="#DD3355" r="2.5"/>
<circle cx="456.53958944281527" cy="-111.20295950585475" fill="#DD3355" r="2.5"/>
<circle cx="457.00879765395894" cy="-65.73568822322733" fill="#DD3355" r="2.5"/>
<circle cx="457.47800586510266" cy="-30.02433968591502" fill="#DD3355" r="2.5"/>
<circle cx="457.9472140762463" cy="-7.410394324996884" fill="#DD3355" r="2.5"/>
<circle cx="458.41642228739005" cy="-0.00981972467670178" fill="#DD3355" r="2.5"/>
<circle cx="458.8856304985337" cy="-8.515081339728072" fill="#DD3355" r="2.5"/>
<circle cx="459.35483870967744" cy="-32.13034909337981" fill="#DD3355" r="2.5"/>
<circle cx="459.8240469208211" cy="-68.64596251899862" fill="#DD3355" r="2.5"/>
<circle cx="460.2932551319648" cy="-114.6451868057268" fill="#DD3355" r="2.5"/>
<circle cx="460.7624633431085" cy="-165.82391376121637" fill="#DD3355" r="2.5"/>
<circle cx="461.2316715542522" cy="-217.39339354506217" fill="#DD3355" r="2.5"/>
<circle cx="461.7008797653959" cy="-264.52831390789413" fill="#DD3355" r="2.5"/>
<circle cx="462.1700879765396" cy="-302.8183005439814" fill="#DD3355" r="2.5"/>
<circle cx="462.63929618768327" cy="-328.6805920541836" fill="#DD3355" r="2.5"/>
<circle cx="463.108504398827" cy="-339.69527587501705" fill="#DD3355" r="2.5"/>
<circle cx="463.57771260997066" cy="-334.8317174337466" fill="#DD3355" r="2.5"/>
<circle cx="464.0469208211144" cy="-314.5449957465029" fill="#DD3355" r="2.5"/>
<circle cx="464.51612903225805" cy="-280.7333220627844" fill="#DD3355" r="2.5"/>
<circle cx="464.9853372434018" cy="-236.56042585748574" fill="#DD3355" r="2.5"/>
<circle cx="465.45454545454544" cy="-186.15952736171016" fill="#DD3355" r="2.5"/>
<circle cx="465.92375366568916" cy="-134.246595670153" fill="#DD3355" r="2.5"/>
<circle cx="466.3929618768328" cy="-85.67907953431464" fill="#DD3355" r="2.5"/>
<circle cx="466.86217008797655" cy="-45.00140002483562" fill="#DD3355" r="2.5"/>
<circle cx="467.3313782991202" cy="-16.019732926975916" fill="#DD3355" r="2.5"/>
<circle cx="467.80058651026394" cy="-1.4458681180308097" fill="#DD3355" r="2.5"/>
<circle cx="468.2697947214076" cy="-2.6434697008295394" fill="#DD3355" r="2.5"/>
<circle cx="468.73900293255133" cy="-19.500479116481152" fill="#DD3355" r="2.5"/>
<circle cx="469.208211143695" cy="-50.43960036816257" fill="#DD3355" r="2.5"/>
<circle cx="469.6774193548387" cy="-92.56588626259287" fill="#DD3355" r="2.5"/>
<circle cx="470.1466275659824" cy="-141.93761615027998" fill="#DD3355" r="2.5"/>
<circle cx="470.6158357771261" cy="-193.93511936560049" fill="#DD3355" r="2.5"/>
<circle cx="471.0850439882698" cy="-243.6930338716908" fill="#DD3355" r="2.5"/>
<circle cx="471.5542521994135" cy="-286.55555403747474" fill="#DD3355" r="2.5"/>
<circle cx="472.02346041055716" cy="-318.5120704005272" fill="#DD3355" r="2.5"/>
<circle cx="472.4926686217009" cy="-336.57243897450275" fill="#DD3355" r="2.5"/>
<circle cx="472.96187683284455" cy="-339.04676647226904" fill="#DD3355" r="2.5"/>
<circle cx="473.4310850439883" cy="-325.7035321797535" fill="#DD3355" r="2.5"/>
<circle cx="473.90029325513194" cy="-297.79125115175174" fill="#DD3355" r="2.5"/>
<circle cx="474.36950146627566" cy="-257.9216517228535" fill="#DD3355" r="2.5"/>
<circle cx="474.83870967741933" cy="-209.82529831425344" fill="#DD3355" r="2.5"/>
<circle cx="475.30791788856305" cy="-158.00252570198262" fill="#DD3355" r="2.5"/>
<circle cx="475.7771260997067" cy="-107.30234652936414" fill="#DD3355" r="2.5"/>
<circle cx="476.24633431085044" cy="-62.46873332883958" fill="#DD3355" r="2.5"/>
<circle cx="476.7155425219941" cy="-27.696729057320223" fill="#DD3355" r="2.5"/>
<circle cx="477.18475073313783" cy="-6.2399205039269265" fill="#DD3355" r="2.5"/>
<circle cx="477.6539589442815" cy="-0.10600294848960634" fill="#DD3355" r="2.5"/>
<circle cx="478.1231671554252" cy="-9.868921826188435" fill="#DD3355" r="2.5"/>
<circle cx="478.5923753665689" cy="-34.615169142613816" fill="#DD3355" r="2.5"/>
<circle cx="479.0615835777126" cy="-72.02925963782911" fill="#DD3355" r="2.5"/>
<circle cx="479.5307917888563" cy="-118.6103887677352" fill="#DD3355" r="2.5"/>
</g>
</g>
<g>
<g>
<line stroke="black" stroke-width="1" x1="0" x2="0" y1="0" y2="10"/>
<line stroke="black" stroke-width="1" x1="93.841642228739" x2="93.841642228739" y1="0" y2="10"/>
<line stroke="black" stroke-width="1" x1="187.683284457478" x2="187.683284457478" y1="0" y2="10"/>
<line stroke="black" stroke-width="1" x1="281.524926686217" x2="281.524926686217" y1="0" y2="10"/>
<line stroke="black" stroke-width="1" x1="375.366568914956" x2="375.366568914956" y1="0" y2="10"/>
<line stroke="black" stroke-width="1" x1="469.208211143695" x2="469.208211143695" y1="0" y2="10"/>
</g>
<line stroke="black" stroke-width="1" x1="0" x2="480" y1="0" y2="0"/>
<g>
<text font-size="12" text-anchor="middle" x="0" y="20">
0
</text>
<text font-size="12" text-anchor="middle" x="93.841642228739" y="20">
200
</text>
<text font-size="12" text-anchor="middle" x="187.683284457478" y="20">
400
</text>
<text font-size="12" text-anchor="middle" x="281.524926686217" y="20">
600
</text>
<text font-size="12" text-anchor="middle" x="375.366568914956" y="20">
800
</text>
<text font-size="12" text-anchor="middle" x="469.208211143695" y="20">
1000
</text>
</g>
<text font-size="12" text-anchor="middle" x="240" y="30">

</text>
</g>
<g>
<g>
<line stroke="black" stroke-width="1" x1="0" x2="-10" y1="-0" y2="-0"/>
<line stroke="black" stroke-width="1" x1="0" x2="-10" y1="-85" y2="-85"/>
<line stroke="black" stroke-width="1" x1="0" x2="-10" y1="-170" y2="-170"/>
<line stroke="black" stroke-width="1" x1="0" x2="-10" y1="-255" y2="-255"/>
<line stroke="black" stroke-width="1" x1="0" x2="-10" y1="-340" y2="-340"/>
</g>
<line stroke="black" stroke-width="1" x1="0" x2="0" y1="0" y2="-340"/>
<g>
<text dominant-baseline="middle" font-size="12" text-anchor="end" x="-15" y="-0">
-1
</text>
<text dominant-baseline="middle" font-size="12" text-anchor="end" x="-15" y="-85">
-0.5
</text>
<text dominant-baseline="middle" font-size="12" text-anchor="end" x="-15" y="-170">
0
</text>
<text dominant-baseline="middle" font-size="12" text-anchor="end" x="-15" y="-255">
0.5
</text>
<text dominant-baseline="middle" font-size="12" text-anchor="end" x="-15" y="-340">
1
</text>
</g>
<text font-size="12" text-anchor="middle" transform="rotate(-90 -48 -170)" x="-48" y="-182">

</text>
</g>
</g>
</svg>