<svg viewBox="0 0 600 400" xmlns="http://www.w3.org/2000/svg">
<g transform="translate(72, 364)">
<g>
<g>
<circle cx="0" cy="-170" fill="#DD3355" r="1.5"/>
<circle cx="4.8" cy="-201.85482347957318" fill="#DD3355" r="1.5"/>
<circle cx="9.6" cy="-232.58117395639525" fill="#DD3355" r="1.5"/>
<circle cx="14.4" cy="-261.09055514642944" fill="#DD3355" r="1.5"/>
<circle cx="19.2" cy="-286.3730080078771" fill="#DD3355" r="1.5"/>
<circle cx="24" cy="-307.5328890437411" fill="#DD3355" r="1.5"/>
<circle cx="28.8" cy="-323.8205989192233" fill="#DD3355" r="1.5"/>
<circle cx="33.6" cy="-334.65913739186726" fill="#DD3355" r="1.5"/>
<circle cx="38.4" cy="-339.66454383280615" fill="#DD3355" r="1.5"/>
<circle cx="43.2" cy="-338.65949922346124" fill="#DD3355" r="1.5"/>
<circle cx="48" cy="-331.6796077701761" fill="#DD3355" r="1.5"/>
<circle cx="52.8" cy="-318.9721356074568" fill="#DD3355" r="1.5"/>
<circle cx="57.6" cy="-300.9872512718842" fill="#DD3355" r="1.5"/>
<circle cx="62.4" cy="-278.36207825727723" fill="#DD3355" r="1.5"/>
<circle cx="67.2" cy="-251.8981245972916" fill="#DD3355" r="1.5"/>
<circle cx="72" cy="-222.53288904374108" fill="#DD3355" r="1.5"/>
<circle cx="76.8" cy="-191.30664970593176" fill="#DD3355" r="1.5"/>
<circle cx="81.6" cy="-159.32561168001672" fill="#DD3355" r="1.5"/>
<circle cx="86.4" cy="-127.72271918197471" fill="#DD3355" r="1.5"/>
<circle cx="91.2" cy="-97.61752043393773" fill="#DD3355" r="1.5"/>
<circle cx="96" cy="-70.07650711027964" fill="#DD3355" r="1.5"/>
<circle cx="100.8" cy="-46.07533333836004" fill="#DD3355" r="1.5"/>
<circle cx="105.6" cy="-26.4642526646574" fill="#DD3355" r="1.5"/>
<circle cx="110.4" cy="-11.937997398997252" fill="#DD3355" r="1.5"/>
<circle cx="115.2" cy="-3.011167376122917" fill="#DD3355" r="1.5"/>
<circle cx="120" cy="-0" fill="#DD3355" r="1.5"/>
<circle cx="124.8" cy="-3.011167376122917" fill="#DD3355" r="1.5"/>
<circle cx="129.6" cy="-11.937997398997233" fill="#DD3355" r="1.5"/>
<circle cx="134.4" cy="-26.464252664657455" fill="#DD3355" r="1.5"/>
<circle cx="139.2" cy="-46.07533333835994" fill="#DD3355" r="1.5"/>
<circle cx="144" cy="-70.07650711027952" fill="#DD3355" r="1.5"/>
<circle cx="148.8" cy="-97.61752043393759" fill="#DD3355" r="1.5"/>
<circle cx="153.6" cy="-127.7227191819746" fill="#DD3355" r="1.5"/>
<circle cx="158.4" cy="-159.32561168001675" fill="#DD3355" r="1.5"/>
<circle cx="163.2" cy="-191.30664970593173" fill="#DD3355" r="1.5"/>
<circle cx="168" cy="-222.53288904374102" fill="#DD3355" r="1.5"/>
<circle cx="172.8" cy="-251.8981245972915" fill="#DD3355" r="1.5"/>
<circle cx="177.6" cy="-278.3620782572773" fill="#DD3355" r="1.5"/>
<circle cx="182.4" cy="-300.9872512718841" fill="#DD3355" r="1.5"/>
<circle cx="187.2" cy="-318.9721356074568" fill="#DD3355" r="1.5"/>
<circle cx="192" cy="-331.67960777017606" fill="#DD3355" r="1.5"/>
<circle cx="196.8" cy="-338.65949922346124" fill="#DD3355" r="1.5"/>
<circle cx="201.6" cy="-339.66454383280615" fill="#DD3355" r="1.5"/>
<circle cx="206.4" cy="-334.65913739186726" fill="#DD3355" r="1.5"/>
<circle cx="211.2" cy="-323.82059891922324" fill="#DD3355" r="1.5"/>
<circle cx="216" cy="-307.5328890437411" fill="#DD3355" r="1.5"/>
<circle cx="220.8" cy="-286.373008007877" fill="#DD3355" r="1.5"/>
<circle cx="225.6" cy="-261.09055514642955" fill="#DD3355" r="1.5"/>
<circle cx="230.4" cy="-232.58117395639525" fill="#DD3355" r="1.5"/>
<circle cx="235.2" cy="-201.85482347957307" fill="#DD3355" r="1.5"/>
<circle cx="240" cy="-170.00000000000009" fill="#DD3355" r="1.5"/>
<circle cx="244.8" cy="-138.14517652042676" fill="#DD3355" r="1.5"/>
<circle cx="249.6" cy="-107.41882604360487" fill="#DD3355" r="1.5"/>
<circle cx="254.4" cy="-78.90944485357059" fill="#DD3355" r="1.5"/>
<circle cx="259.2" cy="-53.62699199212307" fill="#DD3355" r="1.5"/>
<circle cx="264" cy="-32.46711095625916" fill="#DD3355" r="1.5"/>
<circle cx="268.8" cy="-16.179401080776653" fill="#DD3355" r="1.5"/>
<circle cx="273.6" cy="-5.340862608132736" fill="#DD3355" r="1.5"/>
<circle cx="278.4" cy="-0.33545616719385385" fill="#DD3355" r="1.5"/>
<circle cx="283.2" cy="-1.34050077653878" fill="#DD3355" r="1.5"/>
<circle cx="288" cy="-8.320392229823861" fill="#DD3355" r="1.5"/>
<circle cx="292.8" cy="-21.02786439254306" fill="#DD3355" r="1.5"/>
<circle cx="297.6" cy="-39.01274872811573" fill="#DD3355" r="1.5"/>
<circle cx="302.4" cy="-61.637921742722746" fill="#DD3355" r="1.5"/>
<circle cx="307.2" cy="-88.10187540270823" fill="#DD3355" r="1.5"/>
<circle cx="312" cy="-117.46711095625886" fill="#DD3355" r="1.5"/>
<circle cx="316.8" cy="-148.69335029406832" fill="#DD3355" r="1.5"/>
<circle cx="321.6" cy="-180.67438831998314" fill="#DD3355" r="1.5"/>
<circle cx="326.4" cy="-212.27728081802528" fill="#DD3355" r="1.5"/>
<circle cx="331.2" cy="-242.38247956606216" fill="#DD3355" r="1.5"/>
<circle cx="336" cy="-269.92349288972036" fill="#DD3355" r="1.5"/>
<circle cx="340.8" cy="-293.92466666164" fill="#DD3355" r="1.5"/>
<circle cx="345.6" cy="-313.5357473353425" fill="#DD3355" r="1.5"/>
<circle cx="350.4" cy="-328.06200260100275" fill="#DD3355" r="1.5"/>
<circle cx="355.2" cy="-336.9888326238771" fill="#DD3355" r="1.5"/>
<circle cx="360" cy="-340" fill="#DD3355" r="1.5"/>
<circle cx="364.8" cy="-336.9888326238771" fill="#DD3355" r="1.5"/>
<circle cx="369.6" cy="-328.0620026010027" fill="#DD3355" r="1.5"/>
<circle cx="374.4" cy="-313.5357473353426" fill="#DD3355" r="1.5"/>
<circle cx="379.2" cy="-293.9246666616401" fill="#DD3355" r="1.5"/>
<circle cx="384" cy="-269.92349288972076" fill="#DD3355" r="1.5"/>
<circle cx="388.8" cy="-242.3824795660623" fill="#DD3355" r="1.5"/>
<circle cx="393.6" cy="-212.27728081802547" fill="#DD3355" r="1.5"/>
<circle cx="398.4" cy="-180.67438831998362" fill="#DD3355" r="1.5"/>
<circle cx="403.2" cy="-148.6933502940682" fill="#DD3355" r="1.5"/>
<circle cx="408" cy="-117.46711095625875" fill="#DD3355" r="1.5"/>
<circle cx="412.8" cy="-88.1018754027084" fill="#DD3355" r="1.5"/>
<circle cx="417.6" cy="-61.637921742722874" fill="#DD3355" r="1.5"/>
<circle cx="422.4" cy="-39.012748728115675" fill="#DD3355" r="1.5"/>
<circle cx="427.2" cy="-21.027864392543155" fill="#DD3355" r="1.5"/>
<circle cx="432" cy="-8.320392229823918" fill="#DD3355" r="1.5"/>
<circle cx="436.8" cy="-1.3405007765387233" fill="#DD3355" r="1.5"/>
<circle cx="441.6" cy="-0.335456167193835" fill="#DD3355" r="1.5"/>
<circle cx="446.4" cy="-5.340862608132698" fill="#DD3355" r="1.5"/>
<circle cx="451.2" cy="-16.17940108077658" fill="#DD3355" r="1.5"/>
<circle cx="456" cy="-32.46711095625905" fill="#DD3355" r="1.5"/>
<circle cx="460.8" cy="-53.62699199212294" fill="#DD3355" r="1.5"/>
<circle cx="465.6" cy="-78.90944485357042" fill="#DD3355" r="1.5"/>
<circle cx="470.4" cy="-107.41882604360498" fill="#DD3355" r="1.5"/>
<circle cx="475.2" cy="-138.14517652042687" fill="#DD3355" r="1.5"/>
</g>
</g>
<g>
<g>
<line stroke="black" stroke-width="1" x1="0" x2="0" y1="0" y2="10"/>
<line stroke="black" stroke-width="1" x1="96" x2="96" y1="0" y2="10"/>
<line stroke="black" stroke-width="1" x1="192" x2="192" y1="0" y2="10"/>
<line stroke="black" stroke-width="1" x1="288" x2="288" y1="0" y2="10"/>
<line stroke="black" stroke-width="1" x1="384" x2="384" y1="0" y2="10"/>
<line stroke="black" stroke-width="1" x1="480" x2="480" y1="0" y2="10"/>
</g>
<line stroke="black" stroke-width="1" x1="0" x2="480" y1="0" y2="0"/>
<g>
<text font-size="12" text-anchor="middle" x="0" y="20">
0
</text>
<text font-size="12" text-anchor="middle" x="96" y="20">
20
</text>
<text font-size="12" text-anchor="middle" x="192" y="20">
40
</text>
<text font-size="12" text-anchor="middle" x="288" y="20">
60
</text>
<text font-size="12" text-anchor="middle" x="384" y="20">
80
</text>
<text font-size="12" text-anchor="middle" x="480" y="20">
100
</text>
</g>
<text font-size="12" text-anchor="middle" x="240" y="30">

</text>
</g>
<g>
<g>
<line stroke="black" stroke-width="1" x1="0" x2="-10" y1="-0" y2="-0"/>
<line stroke="black" stroke-width="1" x1="0" x2="-10" y1="-85" y2="-85"/>
<line stroke="black" stroke-width="1" x1="0" x2="-10" y1="-170" y2="-170"/>
<line stroke="black" stroke-width="1" x1="0" x2="-10" y1="-255" y2="-255"/>
<line stroke="black" stroke-width="1" x1="0" x2="-10" y1="-340" y2="-340"/>
</g>
<line stroke="black" stroke-width="1" x1="0" x2="0" y1="0" y2="-340"/>
<g>
<text dominant-baseline="middle" font-size="12" text-anchor="end" x="-15" y="-0">
-1
</text>
<text dominant-baseline="middle" font-size="12" text-anchor="end" x="-15" y="-85">
-0.5
</text>
<text dominant-baseline="middle" font-size="12" text-anchor="end" x="-15" y="-170">
0
</text>
<text dominant-baseline="middle" font-size="12" text-anchor="end" x="-15" y="-255">
0.5
</text>
<text dominant-baseline="middle" font-size="12" text-anchor="end" x="-15" y="-340">
1
</text>
</g>
<text font-size="12" text-anchor="middle" transform="rotate(-90 -48 -170)" x="-48" y="-182">

</text>
</g>
</g>
</svg>