<svg viewBox="0 0 600 400" xmlns="http://www.w3.org/2000/svg">
<g transform="translate(72, 364)">
<g>
<g>
<circle cx="0" cy="-170" fill="#4287f5" r="2.5"/>
<circle cx="0.46920821114369504" cy="-169.99335288367547" fill="#4287f5" r="2.5"/>
<circle cx="0.9384164222873901" cy="-169.9867057673509" fill="#4287f5" r="2.5"/>
<circle cx="1.4076246334310851" cy="-169.98005865102638" fill="#4287f5" r="2.5"/>
<circle cx="1.8768328445747802" cy="-169.97341153470185" fill="#4287f5" r="2.5"/>
<circle cx="2.346041055718475" cy="-169.96676441837732" fill="#4287f5" r="2.5"/>
<circle cx="2.8152492668621703" cy="-169.9601173020528" fill="#4287f5" r="2.5"/>
<circle cx="3.2844574780058653" cy="-169.95347018572826" fill="#4287f5" r="2.5"/>
<circle cx="3.7536656891495603" cy="-169.9468230694037" fill="#4287f5" r="2.5"/>
<circle cx="4.222873900293255" cy="-169.94017595307918" fill="#4287f5" r="2.5"/>
<circle cx="4.69208211143695" cy="-169.93020527859238" fill="#4287f5" r="2.5"/>
<circle cx="5.161290322580645" cy="-169.92355816226782" fill="#4287f5" r="2.5"/>
<circle cx="5.6304985337243405" cy="-169.9169110459433" fill="#4287f5" r="2.5"/>
<circle cx="6.099706744868035" cy="-169.9069403714565" fill="#4287f5" r="2.5"/>
<circle cx="6.568914956011731" cy="-169.90029325513197" fill="#4287f5" r="2.5"/>
<circle cx="7.038123167155425" cy="-169.89032258064518" fill="#4287f5" r="2.5"/>
<circle cx="7.507331378299121" cy="-169.88367546432062" fill="#4287f5" r="2.5"/>
<circle cx="7.976539589442815" cy="-169.87370478983382" fill="#4287f5" r="2.5"/>
<circle cx="8.44574780058651" cy="-169.863734115347" fill="#4287f5" r="2.5"/>
<circle cx="8.914956011730204" cy="-169.8537634408602" fill="#4287f5" r="2.5"/>
<circle cx="9.3841642228739" cy="-169.8437927663734" fill="#4287f5" r="2.5"/>
<circle cx="9.853372434017595" cy="-169.83382209188662" fill="#4287f5" r="2.5"/>
<circle cx="10.32258064516129" cy="-169.82052785923753" fill="#4287f5" r="2.5"/>
<circle cx="10.791788856304985" cy="-169.80723362658847" fill="#4287f5" r="2.5"/>
<circle cx="11.260997067448681" cy="-169.79393939393938" fill="#4287f5" r="2.5"/>
<circle cx="11.730205278592376" cy="-169.78064516129032" fill="#4287f5" r="2.5"/>
<circle cx="12.19941348973607" cy="-169.76735092864126" fill="#4287f5" r="2.5"/>
<circle cx="12.668621700879765" cy="-169.7507331378299" fill="#4287f5" r="2.5"/>
<circle cx="13.137829912023461" cy="-169.7307917888563" fill="#4287f5" r="2.5"/>
<circle cx="13.607038123167156" cy="-169.71417399804497" fill="#4287f5" r="2.5"/>
<circle cx="14.07624633431085" cy="-169.6909090909091" fill="#4287f5" r="2.5"/>
<circle cx="14.545454545454545" cy="-169.67096774193547" fill="#4287f5" r="2.5"/>
<circle cx="15.014662756598241" cy="-169.64437927663735" fill="#4287f5" r="2.5"/>
<circle cx="15.483870967741936" cy="-169.6177908113392" fill="#4287f5" r="2.5"/>
<circle cx="15.95307917888563" cy="-169.58455522971653" fill="#4287f5" r="2.5"/>
<circle cx="16.422287390029325" cy="-169.55131964809382" fill="#4287f5" r="2.5"/>
<circle cx="16.89149560117302" cy="-169.51143695014662" fill="#4287f5" r="2.5"/>
<circle cx="17.360703812316714" cy="-169.46490713587488" fill="#4287f5" r="2.5"/>
<circle cx="17.82991202346041" cy="-169.4117302052786" fill="#4287f5" r="2.5"/>
<circle cx="18.299120234604107" cy="-169.3485826001955" fill="#4287f5" r="2.5"/>
<circle cx="18.7683284457478" cy="-169.27546432062562" fill="#4287f5" r="2.5"/>
<circle cx="19.237536656891496" cy="-169.18240469208212" fill="#4287f5" r="2.5"/>
<circle cx="19.70674486803519" cy="-169.069403714565" fill="#4287f5" r="2.5"/>
<circle cx="20.175953079178885" cy="-168.9231671554252" fill="#4287f5" r="2.5"/>
<circle cx="20.64516129032258" cy="-168.73040078201367" fill="#4287f5" r="2.5"/>
<circle cx="21.114369501466275" cy="-168.46119257087" fill="#4287f5" r="2.5"/>
<circle cx="21.58357771260997" cy="-168.06236559139785" fill="#4287f5" r="2.5"/>
<circle cx="22.052785923753667" cy="-167.3976539589443" fill="#4287f5" r="2.5"/>
<circle cx="22.521994134897362" cy="-166.08484848484846" fill="#4287f5" r="2.5"/>
<circle cx="22.991202346041057" cy="-162.27605083088955" fill="#4287f5" r="2.5"/>
<circle cx="23.46041055718475" cy="-2.5757575757575735" fill="#4287f5" r="2.5"/>
<circle cx="23.929618768328446" cy="-178.68445747800587" fill="#4287f5" r="2.5"/>
<circle cx="24.39882697947214" cy="-174.27409579667645" fill="#4287f5" r="2.5"/>
<circle cx="24.868035190615835" cy="-172.85161290322583" fill="#4287f5" r="2.5"/>
<circle cx="25.33724340175953" cy="-172.14701857282503" fill="#4287f5" r="2.5"/>
<circle cx="25.806451612903224" cy="-171.7282502443793" fill="#4287f5" r="2.5"/>
<circle cx="26.275659824046922" cy="-171.44907135874877" fill="#4287f5" r="2.5"/>
<circle cx="26.744868035190617" cy="-171.2496578690127" fill="#4287f5" r="2.5"/>
<circle cx="27.21407624633431" cy="-171.10342130987294" fill="#4287f5" r="2.5"/>
<circle cx="27.683284457478006" cy="-170.98709677419356" fill="#4287f5" r="2.5"/>
<circle cx="28.1524926686217" cy="-170.89403714565006" fill="#4287f5" r="2.5"/>
<circle cx="28.621700879765395" cy="-170.8175953079179" fill="#4287f5" r="2.5"/>
<circle cx="29.09090909090909" cy="-170.7544477028348" fill="#4287f5" r="2.5"/>
<circle cx="29.560117302052785" cy="-170.70127077223853" fill="#4287f5" r="2.5"/>
<circle cx="30.029325513196483" cy="-170.65474095796677" fill="#4287f5" r="2.5"/>
<circle cx="30.498533724340177" cy="-170.61485826001956" fill="#4287f5" r="2.5"/>
<circle cx="30.967741935483872" cy="-170.58162267839688" fill="#4287f5" r="2.5"/>
<circle cx="31.436950146627566" cy="-170.54838709677418" fill="#4287f5" r="2.5"/>
<circle cx="31.90615835777126" cy="-170.52179863147606" fill="#4287f5" r="2.5"/>
<circle cx="32.375366568914956" cy="-170.49853372434018" fill="#4287f5" r="2.5"/>
<circle cx="32.84457478005865" cy="-170.4752688172043" fill="#4287f5" r="2.5"/>
<circle cx="33.313782991202345" cy="-170.4553274682307" fill="#4287f5" r="2.5"/>
<circle cx="33.78299120234604" cy="-170.43538611925706" fill="#4287f5" r="2.5"/>
<circle cx="34.252199413489734" cy="-170.41876832844574" fill="#4287f5" r="2.5"/>
<circle cx="34.72140762463343" cy="-170.40547409579668" fill="#4287f5" r="2.5"/>
<circle cx="35.19061583577712" cy="-170.38885630498532" fill="#4287f5" r="2.5"/>
<circle cx="35.65982404692082" cy="-170.37556207233627" fill="#4287f5" r="2.5"/>
<circle cx="36.12903225806452" cy="-170.36559139784947" fill="#4287f5" r="2.5"/>
<circle cx="36.598240469208214" cy="-170.35229716520038" fill="#4287f5" r="2.5"/>
<circle cx="37.06744868035191" cy="-170.3423264907136" fill="#4287f5" r="2.5"/>
<circle cx="37.5366568914956" cy="-170.3323558162268" fill="#4287f5" r="2.5"/>
<circle cx="38.0058651026393" cy="-170.32238514174" fill="#4287f5" r="2.5"/>
<circle cx="38.47507331378299" cy="-170.3124144672532" fill="#4287f5" r="2.5"/>
<circle cx="38.94428152492669" cy="-170.30576735092862" fill="#4287f5" r="2.5"/>
<circle cx="39.41348973607038" cy="-170.2991202346041" fill="#4287f5" r="2.5"/>
<circle cx="39.882697947214076" cy="-170.2891495601173" fill="#4287f5" r="2.5"/>
<circle cx="40.35190615835777" cy="-170.28250244379277" fill="#4287f5" r="2.5"/>
<circle cx="40.821114369501466" cy="-170.27585532746824" fill="#4287f5" r="2.5"/>
<circle cx="41.29032258064516" cy="-170.26920821114368" fill="#4287f5" r="2.5"/>
<circle cx="41.759530791788855" cy="-170.2658846529814" fill="#4287f5" r="2.5"/>
<circle cx="42.22873900293255" cy="-170.25923753665688" fill="#4287f5" r="2.5"/>
<circle cx="42.697947214076244" cy="-170.25259042033235" fill="#4287f5" r="2.5"/>
<circle cx="43.16715542521994" cy="-170.2492668621701" fill="#4287f5" r="2.5"/>
<circle cx="43.63636363636363" cy="-170.24261974584556" fill="#4287f5" r="2.5"/>
<circle cx="44.105571847507335" cy="-170.2392961876833" fill="#4287f5" r="2.5"/>
<circle cx="44.57478005865103" cy="-170.23264907135876" fill="#4287f5" r="2.5"/>
<circle cx="45.043988269794724" cy="-170.2293255131965" fill="#4287f5" r="2.5"/>
<circle cx="45.51319648093842" cy="-170.2260019550342" fill="#4287f5" r="2.5"/>
<circle cx="45.98240469208211" cy="-170.21935483870968" fill="#4287f5" r="2.5"/>
<circle cx="46.45161290322581" cy="-170.2160312805474" fill="#4287f5" r="2.5"/>
<circle cx="46.9208211143695" cy="-170.21270772238515" fill="#4287f5" r="2.5"/>
<circle cx="47.3900293255132" cy="-170.20938416422288" fill="#4287f5" r="2.5"/>
<circle cx="47.85923753665689" cy="-170.20606060606062" fill="#4287f5" r="2.5"/>
<circle cx="48.328445747800586" cy="-170.20273704789835" fill="#4287f5" r="2.5"/>
<circle cx="48.79765395894428" cy="-170.1994134897361" fill="#4287f5" r="2.5"/>
<circle cx="49.266862170087975" cy="-170.19608993157382" fill="#4287f5" r="2.5"/>
<circle cx="49.73607038123167" cy="-170.19276637341156" fill="#4287f5" r="2.5"/>
<circle cx="50.205278592375365" cy="-170.1894428152493" fill="#4287f5" r="2.5"/>
<circle cx="50.67448680351906" cy="-170.18611925708697" fill="#4287f5" r="2.5"/>
<circle cx="51.143695014662754" cy="-170.18611925708697" fill="#4287f5" r="2.5"/>
<circle cx="51.61290322580645" cy="-170.1827956989247" fill="#4287f5" r="2.5"/>
<circle cx="52.08211143695015" cy="-170.17947214076244" fill="#4287f5" r="2.5"/>
<circle cx="52.551319648093845" cy="-170.17614858260018" fill="#4287f5" r="2.5"/>
<circle cx="53.02052785923754" cy="-170.1728250244379" fill="#4287f5" r="2.5"/>
<circle cx="53.489736070381234" cy="-170.1728250244379" fill="#4287f5" r="2.5"/>
<circle cx="53.95894428152493" cy="-170.16950146627565" fill="#4287f5" r="2.5"/>
<circle cx="54.42815249266862" cy="-170.16617790811338" fill="#4287f5" r="2.5"/>
<circle cx="54.89736070381232" cy="-170.16617790811338" fill="#4287f5" r="2.5"/>
<circle cx="55.36656891495601" cy="-170.16285434995112" fill="#4287f5" r="2.5"/>
<circle cx="55.83577712609971" cy="-170.15953079178885" fill="#4287f5" r="2.5"/>
<circle cx="56.3049853372434" cy="-170.15953079178885" fill="#4287f5" r="2.5"/>
<circle cx="56.774193548387096" cy="-170.1562072336266" fill="#4287f5" r="2.5"/>
<circle cx="57.24340175953079" cy="-170.1562072336266" fill="#4287f5" r="2.5"/>
<circle cx="57.712609970674485" cy="-170.15288367546432" fill="#4287f5" r="2.5"/>
<circle cx="58.18181818181818" cy="-170.15288367546432" fill="#4287f5" r="2.5"/>
<circle cx="58.651026392961874" cy="-170.14956011730206" fill="#4287f5" r="2.5"/>
<circle cx="59.12023460410557" cy="-170.1462365591398" fill="#4287f5" r="2.5"/>
<circle cx="59.589442815249264" cy="-170.1462365591398" fill="#4287f5" r="2.5"/>
<circle cx="60.058651026392965" cy="-170.1429130009775" fill="#4287f5" r="2.5"/>
<circle cx="60.52785923753666" cy="-170.1429130009775" fill="#4287f5" r="2.5"/>
<circle cx="60.997067448680355" cy="-170.13958944281524" fill="#4287f5" r="2.5"/>
<circle cx="61.46627565982405" cy="-170.13958944281524" fill="#4287f5" r="2.5"/>
<circle cx="61.935483870967744" cy="-170.13958944281524" fill="#4287f5" r="2.5"/>
<circle cx="62.40469208211144" cy="-170.13626588465297" fill="#4287f5" r="2.5"/>
<circle cx="62.87390029325513" cy="-170.13626588465297" fill="#4287f5" r="2.5"/>
<circle cx="63.34310850439883" cy="-170.1329423264907" fill="#4287f5" r="2.5"/>
<circle cx="63.81231671554252" cy="-170.1329423264907" fill="#4287f5" r="2.5"/>
<circle cx="64.28152492668622" cy="-170.12961876832844" fill="#4287f5" r="2.5"/>
<circle cx="64.75073313782991" cy="-170.12961876832844" fill="#4287f5" r="2.5"/>
<circle cx="65.2199413489736" cy="-170.12961876832844" fill="#4287f5" r="2.5"/>
<circle cx="65.6891495601173" cy="-170.12629521016618" fill="#4287f5" r="2.5"/>
<circle cx="66.158357771261" cy="-170.12629521016618" fill="#4287f5" r="2.5"/>
<circle cx="66.62756598240469" cy="-170.1229716520039" fill="#4287f5" r="2.5"/>
<circle cx="67.09677419354838" cy="-170.1229716520039" fill="#4287f5" r="2.5"/>
<circle cx="67.56598240469208" cy="-170.1229716520039" fill="#4287f5" r="2.5"/>
<circle cx="68.03519061583577" cy="-170.11964809384165" fill="#4287f5" r="2.5"/>
<circle cx="68.50439882697947" cy="-170.11964809384165" fill="#4287f5" r="2.5"/>
<circle cx="68.97360703812316" cy="-170.11964809384165" fill="#4287f5" r="2.5"/>
<circle cx="69.44281524926686" cy="-170.11632453567938" fill="#4287f5" r="2.5"/>
<circle cx="69.91202346041055" cy="-170.11632453567938" fill="#4287f5" r="2.5"/>
<circle cx="70.38123167155425" cy="-170.11632453567938" fill="#4287f5" r="2.5"/>
<circle cx="70.85043988269794" cy="-170.11300097751712" fill="#4287f5" r="2.5"/>
<circle cx="71.31964809384164" cy="-170.11300097751712" fill="#4287f5" r="2.5"/>
<circle cx="71.78885630498533" cy="-170.11300097751712" fill="#4287f5" r="2.5"/>
<circle cx="72.25806451612904" cy="-170.10967741935485" fill="#4287f5" r="2.5"/>
<circle cx="72.72727272727273" cy="-170.10967741935485" fill="#4287f5" r="2.5"/>
<circle cx="73.19648093841643" cy="-170.10967741935485" fill="#4287f5" r="2.5"/>
<circle cx="73.66568914956012" cy="-170.1063538611926" fill="#4287f5" r="2.5"/>
<circle cx="74.13489736070382" cy="-170.1063538611926" fill="#4287f5" r="2.5"/>
<circle cx="74.60410557184751" cy="-170.1063538611926" fill="#4287f5" r="2.5"/>
<circle cx="75.0733137829912" cy="-170.1063538611926" fill="#4287f5" r="2.5"/>
<circle cx="75.5425219941349" cy="-170.1030303030303" fill="#4287f5" r="2.5"/>
<circle cx="76.0117302052786" cy="-170.1030303030303" fill="#4287f5" r="2.5"/>
<circle cx="76.48093841642229" cy="-170.1030303030303" fill="#4287f5" r="2.5"/>
<circle cx="76.95014662756599" cy="-170.1030303030303" fill="#4287f5" r="2.5"/>
<circle cx="77.41935483870968" cy="-170.09970674486803" fill="#4287f5" r="2.5"/>
<circle cx="77.88856304985337" cy="-170.09970674486803" fill="#4287f5" r="2.5"/>
<circle cx="78.35777126099707" cy="-170.09970674486803" fill="#4287f5" r="2.5"/>
<circle cx="78.82697947214076" cy="-170.09970674486803" fill="#4287f5" r="2.5"/>
<circle cx="79.29618768328446" cy="-170.09638318670576" fill="#4287f5" r="2.5"/>
<circle cx="79.76539589442815" cy="-170.09638318670576" fill="#4287f5" r="2.5"/>
<circle cx="80.23460410557185" cy="-170.09638318670576" fill="#4287f5" r="2.5"/>
<circle cx="80.70381231671554" cy="-170.09638318670576" fill="#4287f5" r="2.5"/>
<circle cx="81.17302052785924" cy="-170.0930596285435" fill="#4287f5" r="2.5"/>
<circle cx="81.64222873900293" cy="-170.0930596285435" fill="#4287f5" r="2.5"/>
<circle cx="82.11143695014663" cy="-170.0930596285435" fill="#4287f5" r="2.5"/>
<circle cx="82.58064516129032" cy="-170.0930596285435" fill="#4287f5" r="2.5"/>
<circle cx="83.04985337243401" cy="-170.08973607038124" fill="#4287f5" r="2.5"/>
<circle cx="83.51906158357771" cy="-170.08973607038124" fill="#4287f5" r="2.5"/>
<circle cx="83.9882697947214" cy="-170.08973607038124" fill="#4287f5" r="2.5"/>
<circle cx="84.4574780058651" cy="-170.08973607038124" fill="#4287f5" r="2.5"/>
<circle cx="84.9266862170088" cy="-170.08973607038124" fill="#4287f5" r="2.5"/>
<circle cx="85.39589442815249" cy="-170.08641251221897" fill="#4287f5" r="2.5"/>
<circle cx="85.86510263929618" cy="-170.08641251221897" fill="#4287f5" r="2.5"/>
<circle cx="86.33431085043988" cy="-170.08641251221897" fill="#4287f5" r="2.5"/>
<circle cx="86.80351906158357" cy="-170.08641251221897" fill="#4287f5" r="2.5"/>
<circle cx="87.27272727272727" cy="-170.08641251221897" fill="#4287f5" r="2.5"/>
<circle cx="87.74193548387096" cy="-170.0830889540567" fill="#4287f5" r="2.5"/>
<circle cx="88.21114369501467" cy="-170.0830889540567" fill="#4287f5" r="2.5"/>
<circle cx="88.68035190615836" cy="-170.0830889540567" fill="#4287f5" r="2.5"/>
<circle cx="89.14956011730206" cy="-170.0830889540567" fill="#4287f5" r="2.5"/>
<circle cx="89.61876832844575" cy="-170.0830889540567" fill="#4287f5" r="2.5"/>
<circle cx="90.08797653958945" cy="-170.07976539589444" fill="#4287f5" r="2.5"/>
<circle cx="90.55718475073314" cy="-170.07976539589444" fill="#4287f5" r="2.5"/>
<circle cx="91.02639296187684" cy="-170.07976539589444" fill="#4287f5" r="2.5"/>
<circle cx="91.49560117302053" cy="-170.07976539589444" fill="#4287f5" r="2.5"/>
<circle cx="91.96480938416423" cy="-170.07976539589444" fill="#4287f5" r="2.5"/>
<circle cx="92.43401759530792" cy="-170.07976539589444" fill="#4287f5" r="2.5"/>
<circle cx="92.90322580645162" cy="-170.07644183773218" fill="#4287f5" r="2.5"/>
<circle cx="93.37243401759531" cy="-170.07644183773218" fill="#4287f5" r="2.5"/>
<circle cx="93.841642228739" cy="-170.07644183773218" fill="#4287f5" r="2.5"/>
<circle cx="94.3108504398827" cy="-170.07644183773218" fill="#4287f5" r="2.5"/>
<circle cx="94.7800586510264" cy="-170.07644183773218" fill="#4287f5" r="2.5"/>
<circle cx="95.24926686217009" cy="-170.07644183773218" fill="#4287f5" r="2.5"/>
<circle cx="95.71847507331378" cy="-170.0731182795699" fill="#4287f5" r="2.5"/>
<circle cx="96.18768328445748" cy="-170.0731182795699" fill="#4287f5" r="2.5"/>
<circle cx="96.65689149560117" cy="-170.0731182795699" fill="#4287f5" r="2.5"/>
<circle cx="97.12609970674487" cy="-170.0731182795699" fill="#4287f5" r="2.5"/>
<circle cx="97.59530791788856" cy="-170.0731182795699" fill="#4287f5" r="2.5"/>
<circle cx="98.06451612903226" cy="-170.0731182795699" fill="#4287f5" r="2.5"/>
<circle cx="98.53372434017595" cy="-170.0731182795699" fill="#4287f5" r="2.5"/>
<circle cx="99.00293255131965" cy="-170.06979472140765" fill="#4287f5" r="2.5"/>
<circle cx="99.47214076246334" cy="-170.06979472140765" fill="#4287f5" r="2.5"/>
<circle cx="99.94134897360703" cy="-170.06979472140765" fill="#4287f5" r="2.5"/>
<circle cx="100.41055718475073" cy="-170.06979472140765" fill="#4287f5" r="2.5"/>
<circle cx="100.87976539589442" cy="-170.06979472140765" fill="#4287f5" r="2.5"/>
<circle cx="101.34897360703812" cy="-170.06979472140765" fill="#4287f5" r="2.5"/>
<circle cx="101.81818181818181" cy="-170.06979472140765" fill="#4287f5" r="2.5"/>
<circle cx="102.28739002932551" cy="-170.06647116324538" fill="#4287f5" r="2.5"/>
<circle cx="102.7565982404692" cy="-170.06647116324538" fill="#4287f5" r="2.5"/>
<circle cx="103.2258064516129" cy="-170.06647116324538" fill="#4287f5" r="2.5"/>
<circle cx="103.69501466275659" cy="-170.06647116324538" fill="#4287f5" r="2.5"/>
<circle cx="104.1642228739003" cy="-170.06647116324538" fill="#4287f5" r="2.5"/>
<circle cx="104.633431085044" cy="-170.06647116324538" fill="#4287f5" r="2.5"/>
<circle cx="105.10263929618769" cy="-170.06647116324538" fill="#4287f5" r="2.5"/>
<circle cx="105.57184750733138" cy="-170.06314760508312" fill="#4287f5" r="2.5"/>
<circle cx="106.04105571847508" cy="-170.06314760508312" fill="#4287f5" r="2.5"/>
<circle cx="106.51026392961877" cy="-170.06314760508312" fill="#4287f5" r="2.5"/>
<circle cx="106.97947214076247" cy="-170.06314760508312" fill="#4287f5" r="2.5"/>
<circle cx="107.44868035190616" cy="-170.06314760508312" fill="#4287f5" r="2.5"/>
<circle cx="107.91788856304986" cy="-170.06314760508312" fill="#4287f5" r="2.5"/>
<circle cx="108.38709677419355" cy="-170.06314760508312" fill="#4287f5" r="2.5"/>
<circle cx="108.85630498533725" cy="-170.06314760508312" fill="#4287f5" r="2.5"/>
<circle cx="109.32551319648094" cy="-170.0598240469208" fill="#4287f5" r="2.5"/>
<circle cx="109.79472140762464" cy="-170.0598240469208" fill="#4287f5" r="2.5"/>
<circle cx="110.26392961876833" cy="-170.0598240469208" fill="#4287f5" r="2.5"/>
<circle cx="110.73313782991202" cy="-170.0598240469208" fill="#4287f5" r="2.5"/>
<circle cx="111.20234604105572" cy="-170.0598240469208" fill="#4287f5" r="2.5"/>
<circle cx="111.67155425219941" cy="-170.0598240469208" fill="#4287f5" r="2.5"/>
<circle cx="112.14076246334311" cy="-170.0598240469208" fill="#4287f5" r="2.5"/>
<circle cx="112.6099706744868" cy="-170.0598240469208" fill="#4287f5" r="2.5"/>
<circle cx="113.0791788856305" cy="-170.05650048875853" fill="#4287f5" r="2.5"/>
<circle cx="113.54838709677419" cy="-170.05650048875853" fill="#4287f5" r="2.5"/>
<circle cx="114.01759530791789" cy="-170.05650048875853" fill="#4287f5" r="2.5"/>
<circle cx="114.48680351906158" cy="-170.05650048875853" fill="#4287f5" r="2.5"/>
<circle cx="114.95601173020528" cy="-170.05650048875853" fill="#4287f5" r="2.5"/>
<circle cx="115.42521994134897" cy="-170.05650048875853" fill="#4287f5" r="2.5"/>
<circle cx="115.89442815249267" cy="-170.05650048875853" fill="#4287f5" r="2.5"/>
<circle cx="116.36363636363636" cy="-170.05650048875853" fill="#4287f5" r="2.5"/>
<circle cx="116.83284457478005" cy="-170.05650048875853" fill="#4287f5" r="2.5"/>
<circle cx="117.30205278592375" cy="-170.05317693059627" fill="#4287f5" r="2.5"/>
<circle cx="117.77126099706744" cy="-170.05317693059627" fill="#4287f5" r="2.5"/>
<circle cx="118.24046920821114" cy="-170.05317693059627" fill="#4287f5" r="2.5"/>
<circle cx="118.70967741935483" cy="-170.05317693059627" fill="#4287f5" r="2.5"/>
<circle cx="119.17888563049853" cy="-170.05317693059627" fill="#4287f5" r="2.5"/>
<circle cx="119.64809384164222" cy="-170.05317693059627" fill="#4287f5" r="2.5"/>
<circle cx="120.11730205278593" cy="-170.05317693059627" fill="#4287f5" r="2.5"/>
<circle cx="120.58651026392963" cy="-170.05317693059627" fill="#4287f5" r="2.5"/>
<circle cx="121.05571847507332" cy="-170.05317693059627" fill="#4287f5" r="2.5"/>
<circle cx="121.52492668621701" cy="-170.05317693059627" fill="#4287f5" r="2.5"/>
<circle cx="121.99413489736071" cy="-170.049853372434" fill="#4287f5" r="2.5"/>
<circle cx="122.4633431085044" cy="-170.049853372434" fill="#4287f5" r="2.5"/>
<circle cx="122.9325513196481" cy="-170.049853372434" fill="#4287f5" r="2.5"/>
<circle cx="123.4017595307918" cy="-170.049853372434" fill="#4287f5" r="2.5"/>
<circle cx="123.87096774193549" cy="-170.049853372434" fill="#4287f5" r="2.5"/>
<circle cx="124.34017595307918" cy="-170.049853372434" fill="#4287f5" r="2.5"/>
<circle cx="124.80938416422288" cy="-170.049853372434" fill="#4287f5" r="2.5"/>
<circle cx="125.27859237536657" cy="-170.049853372434" fill="#4287f5" r="2.5"/>
<circle cx="125.74780058651027" cy="-170.049853372434" fill="#4287f5" r="2.5"/>
<circle cx="126.21700879765396" cy="-170.049853372434" fill="#4287f5" r="2.5"/>
<circle cx="126.68621700879766" cy="-170.04652981427174" fill="#4287f5" r="2.5"/>
<circle cx="127.15542521994135" cy="-170.04652981427174" fill="#4287f5" r="2.5"/>
<circle cx="127.62463343108504" cy="-170.04652981427174" fill="#4287f5" r="2.5"/>
<circle cx="128.09384164222874" cy="-170.04652981427174" fill="#4287f5" r="2.5"/>
<circle cx="128.56304985337243" cy="-170.04652981427174" fill="#4287f5" r="2.5"/>
<circle cx="129.03225806451613" cy="-170.04652981427174" fill="#4287f5" r="2.5"/>
<circle cx="129.50146627565982" cy="-170.04652981427174" fill="#4287f5" r="2.5"/>
<circle cx="129.97067448680352" cy="-170.04652981427174" fill="#4287f5" r="2.5"/>
<circle cx="130.4398826979472" cy="-170.04652981427174" fill="#4287f5" r="2.5"/>
<circle cx="130.9090909090909" cy="-170.04652981427174" fill="#4287f5" r="2.5"/>
<circle cx="131.3782991202346" cy="-170.04652981427174" fill="#4287f5" r="2.5"/>
<circle cx="131.8475073313783" cy="-170.04652981427174" fill="#4287f5" r="2.5"/>
<circle cx="132.316715542522" cy="-170.04320625610947" fill="#4287f5" r="2.5"/>
<circle cx="132.78592375366568" cy="-170.04320625610947" fill="#4287f5" r="2.5"/>
<circle cx="133.25513196480938" cy="-170.04320625610947" fill="#4287f5" r="2.5"/>
<circle cx="133.72434017595307" cy="-170.04320625610947" fill="#4287f5" r="2.5"/>
<circle cx="134.19354838709677" cy="-170.04320625610947" fill="#4287f5" r="2.5"/>
<circle cx="134.66275659824046" cy="-170.04320625610947" fill="#4287f5" r="2.5"/>
<circle cx="135.13196480938416" cy="-170.04320625610947" fill="#4287f5" r="2.5"/>
<circle cx="135.60117302052785" cy="-170.04320625610947" fill="#4287f5" r="2.5"/>
<circle cx="136.07038123167155" cy="-170.04320625610947" fill="#4287f5" r="2.5"/>
<circle cx="136.53958944281524" cy="-170.04320625610947" fill="#4287f5" r="2.5"/>
<circle cx="137.00879765395894" cy="-170.04320625610947" fill="#4287f5" r="2.5"/>
<circle cx="137.47800586510263" cy="-170.0398826979472" fill="#4287f5" r="2.5"/>
<circle cx="137.94721407624633" cy="-170.0398826979472" fill="#4287f5" r="2.5"/>
<circle cx="138.41642228739002" cy="-170.0398826979472" fill="#4287f5" r="2.5"/>
<circle cx="138.88563049853371" cy="-170.0398826979472" fill="#4287f5" r="2.5"/>
<circle cx="139.3548387096774" cy="-170.0398826979472" fill="#4287f5" r="2.5"/>
<circle cx="139.8240469208211" cy="-170.0398826979472" fill="#4287f5" r="2.5"/>
<circle cx="140.2932551319648" cy="-170.0398826979472" fill="#4287f5" r="2.5"/>
<circle cx="140.7624633431085" cy="-170.0398826979472" fill="#4287f5" r="2.5"/>
<circle cx="141.2316715542522" cy="-170.0398826979472" fill="#4287f5" r="2.5"/>
<circle cx="141.70087976539588" cy="-170.0398826979472" fill="#4287f5" r="2.5"/>
<circle cx="142.17008797653958" cy="-170.0398826979472" fill="#4287f5" r="2.5"/>
<circle cx="142.63929618768327" cy="-170.0398826979472" fill="#4287f5" r="2.5"/>
<circle cx="143.10850439882697" cy="-170.0398826979472" fill="#4287f5" r="2.5"/>
<circle cx="143.57771260997066" cy="-170.03655913978494" fill="#4287f5" r="2.5"/>
<circle cx="144.04692082111438" cy="-170.03655913978494" fill="#4287f5" r="2.5"/>
<circle cx="144.51612903225808" cy="-170.03655913978494" fill="#4287f5" r="2.5"/>
<circle cx="144.98533724340177" cy="-170.03655913978494" fill="#4287f5" r="2.5"/>
<circle cx="145.45454545454547" cy="-170.03655913978494" fill="#4287f5" r="2.5"/>
<circle cx="145.92375366568916" cy="-170.03655913978494" fill="#4287f5" r="2.5"/>
<circle cx="146.39296187683286" cy="-170.03655913978494" fill="#4287f5" r="2.5"/>
<circle cx="146.86217008797655" cy="-170.03655913978494" fill="#4287f5" r="2.5"/>
<circle cx="147.33137829912025" cy="-170.03655913978494" fill="#4287f5" r="2.5"/>
<circle cx="147.80058651026394" cy="-170.03655913978494" fill="#4287f5" r="2.5"/>
<circle cx="148.26979472140764" cy="-170.03655913978494" fill="#4287f5" r="2.5"/>
<circle cx="148.73900293255133" cy="-170.03655913978494" fill="#4287f5" r="2.5"/>
<circle cx="149.20821114369502" cy="-170.03655913978494" fill="#4287f5" r="2.5"/>
<circle cx="149.67741935483872" cy="-170.03655913978494" fill="#4287f5" r="2.5"/>
<circle cx="150.1466275659824" cy="-170.03323558162268" fill="#4287f5" r="2.5"/>
<circle cx="150.6158357771261" cy="-170.03323558162268" fill="#4287f5" r="2.5"/>
<circle cx="151.0850439882698" cy="-170.03323558162268" fill="#4287f5" r="2.5"/>
<circle cx="151.5542521994135" cy="-170.03323558162268" fill="#4287f5" r="2.5"/>
<circle cx="152.0234604105572" cy="-170.03323558162268" fill="#4287f5" r="2.5"/>
<circle cx="152.4926686217009" cy="-170.03323558162268" fill="#4287f5" r="2.5"/>
<circle cx="152.96187683284458" cy="-170.03323558162268" fill="#4287f5" r="2.5"/>
<circle cx="153.43108504398828" cy="-170.03323558162268" fill="#4287f5" r="2.5"/>
<circle cx="153.90029325513197" cy="-170.03323558162268" fill="#4287f5" r="2.5"/>
<circle cx="154.36950146627566" cy="-170.03323558162268" fill="#4287f5" r="2.5"/>
<circle cx="154.83870967741936" cy="-170.03323558162268" fill="#4287f5" r="2.5"/>
<circle cx="155.30791788856305" cy="-170.03323558162268" fill="#4287f5" r="2.5"/>
<circle cx="155.77712609970675" cy="-170.03323558162268" fill="#4287f5" r="2.5"/>
<circle cx="156.24633431085044" cy="-170.03323558162268" fill="#4287f5" r="2.5"/>
<circle cx="156.71554252199414" cy="-170.0299120234604" fill="#4287f5" r="2.5"/>
<circle cx="157.18475073313783" cy="-170.0299120234604" fill="#4287f5" r="2.5"/>
<circle cx="157.65395894428153" cy="-170.0299120234604" fill="#4287f5" r="2.5"/>
<circle cx="158.12316715542522" cy="-170.0299120234604" fill="#4287f5" r="2.5"/>
<circle cx="158.59237536656892" cy="-170.0299120234604" fill="#4287f5" r="2.5"/>
<circle cx="159.0615835777126" cy="-170.0299120234604" fill="#4287f5" r="2.5"/>
<circle cx="159.5307917888563" cy="-170.0299120234604" fill="#4287f5" r="2.5"/>
<circle cx="160" cy="-170.0299120234604" fill="#4287f5" r="2.5"/>
<circle cx="160.4692082111437" cy="-170.0299120234604" fill="#4287f5" r="2.5"/>
<circle cx="160.9384164222874" cy="-170.0299120234604" fill="#4287f5" r="2.5"/>
<circle cx="161.40762463343108" cy="-170.0299120234604" fill="#4287f5" r="2.5"/>
<circle cx="161.87683284457478" cy="-170.0299120234604" fill="#4287f5" r="2.5"/>
<circle cx="162.34604105571847" cy="-170.0299120234604" fill="#4287f5" r="2.5"/>
<circle cx="162.81524926686217" cy="-170.0299120234604" fill="#4287f5" r="2.5"/>
<circle cx="163.28445747800586" cy="-170.0299120234604" fill="#4287f5" r="2.5"/>
<circle cx="163.75366568914956" cy="-170.0299120234604" fill="#4287f5" r="2.5"/>
<circle cx="164.22287390029325" cy="-170.02658846529815" fill="#4287f5" r="2.5"/>
<circle cx="164.69208211143695" cy="-170.02658846529815" fill="#4287f5" r="2.5"/>
<circle cx="165.16129032258064" cy="-170.02658846529815" fill="#4287f5" r="2.5"/>
<circle cx="165.63049853372434" cy="-170.02658846529815" fill="#4287f5" r="2.5"/>
<circle cx="166.09970674486803" cy="-170.02658846529815" fill="#4287f5" r="2.5"/>
<circle cx="166.56891495601172" cy="-170.02658846529815" fill="#4287f5" r="2.5"/>
<circle cx="167.03812316715542" cy="-170.02658846529815" fill="#4287f5" r="2.5"/>
<circle cx="167.5073313782991" cy="-170.02658846529815" fill="#4287f5" r="2.5"/>
<circle cx="167.9765395894428" cy="-170.02658846529815" fill="#4287f5" r="2.5"/>
<circle cx="168.4457478005865" cy="-170.02658846529815" fill="#4287f5" r="2.5"/>
<circle cx="168.9149560117302" cy="-170.02658846529815" fill="#4287f5" r="2.5"/>
<circle cx="169.3841642228739" cy="-170.02658846529815" fill="#4287f5" r="2.5"/>
<circle cx="169.8533724340176" cy="-170.02658846529815" fill="#4287f5" r="2.5"/>
<circle cx="170.32258064516128" cy="-170.02658846529815" fill="#4287f5" r="2.5"/>
<circle cx="170.79178885630498" cy="-170.02658846529815" fill="#4287f5" r="2.5"/>
<circle cx="171.26099706744867" cy="-170.02658846529815" fill="#4287f5" r="2.5"/>
<circle cx="171.73020527859236" cy="-170.02326490713588" fill="#4287f5" r="2.5"/>
<circle cx="172.19941348973606" cy="-170.02326490713588" fill="#4287f5" r="2.5"/>
<circle cx="172.66862170087975" cy="-170.02326490713588" fill="#4287f5" r="2.5"/>
<circle cx="173.13782991202345" cy="-170.02326490713588" fill="#4287f5" r="2.5"/>
<circle cx="173.60703812316714" cy="-170.02326490713588" fill="#4287f5" r="2.5"/>
<circle cx="174.07624633431084" cy="-170.02326490713588" fill="#4287f5" r="2.5"/>
<circle cx="174.54545454545453" cy="-170.02326490713588" fill="#4287f5" r="2.5"/>
<circle cx="175.01466275659823" cy="-170.02326490713588" fill="#4287f5" r="2.5"/>
<circle cx="175.48387096774192" cy="-170.02326490713588" fill="#4287f5" r="2.5"/>
<circle cx="175.95307917888562" cy="-170.02326490713588" fill="#4287f5" r="2.5"/>
<circle cx="176.42228739002934" cy="-170.02326490713588" fill="#4287f5" r="2.5"/>
<circle cx="176.89149560117303" cy="-170.02326490713588" fill="#4287f5" r="2.5"/>
<circle cx="177.36070381231673" cy="-170.02326490713588" fill="#4287f5" r="2.5"/>
<circle cx="177.82991202346042" cy="-170.02326490713588" fill="#4287f5" r="2.5"/>
<circle cx="178.29912023460412" cy="-170.02326490713588" fill="#4287f5" r="2.5"/>
<circle cx="178.7683284457478" cy="-170.02326490713588" fill="#4287f5" r="2.5"/>
<circle cx="179.2375366568915" cy="-170.02326490713588" fill="#4287f5" r="2.5"/>
<circle cx="179.7067448680352" cy="-170.0199413489736" fill="#4287f5" r="2.5"/>
<circle cx="180.1759530791789" cy="-170.0199413489736" fill="#4287f5" r="2.5"/>
<circle cx="180.6451612903226" cy="-170.0199413489736" fill="#4287f5" r="2.5"/>
<circle cx="181.11436950146629" cy="-170.0199413489736" fill="#4287f5" r="2.5"/>
<circle cx="181.58357771260998" cy="-170.0199413489736" fill="#4287f5" r="2.5"/>
<circle cx="182.05278592375367" cy="-170.0199413489736" fill="#4287f5" r="2.5"/>
<circle cx="182.52199413489737" cy="-170.0199413489736" fill="#4287f5" r="2.5"/>
<circle cx="182.99120234604106" cy="-170.0199413489736" fill="#4287f5" r="2.5"/>
<circle cx="183.46041055718476" cy="-170.0199413489736" fill="#4287f5" r="2.5"/>
<circle cx="183.92961876832845" cy="-170.0199413489736" fill="#4287f5" r="2.5"/>
<circle cx="184.39882697947215" cy="-170.0199413489736" fill="#4287f5" r="2.5"/>
<circle cx="184.86803519061584" cy="-170.0199413489736" fill="#4287f5" r="2.5"/>
<circle cx="185.33724340175954" cy="-170.0199413489736" fill="#4287f5" r="2.5"/>
<circle cx="185.80645161290323" cy="-170.0199413489736" fill="#4287f5" r="2.5"/>
<circle cx="186.27565982404693" cy="-170.0199413489736" fill="#4287f5" r="2.5"/>
<circle cx="186.74486803519062" cy="-170.0199413489736" fill="#4287f5" r="2.5"/>
<circle cx="187.21407624633432" cy="-170.0199413489736" fill="#4287f5" r="2.5"/>
<circle cx="187.683284457478" cy="-170.0199413489736" fill="#4287f5" r="2.5"/>
<circle cx="188.1524926686217" cy="-170.0199413489736" fill="#4287f5" r="2.5"/>
<circle cx="188.6217008797654" cy="-170.01661779081132" fill="#4287f5" r="2.5"/>
<circle cx="189.0909090909091" cy="-170.01661779081132" fill="#4287f5" r="2.5"/>
<circle cx="189.5601173020528" cy="-170.01661779081132" fill="#4287f5" r="2.5"/>
<circle cx="190.02932551319648" cy="-170.01661779081132" fill="#4287f5" r="2.5"/>
<circle cx="190.49853372434018" cy="-170.01661779081132" fill="#4287f5" r="2.5"/>
<circle cx="190.96774193548387" cy="-170.01661779081132" fill="#4287f5" r="2.5"/>
<circle cx="191.43695014662757" cy="-170.01661779081132" fill="#4287f5" r="2.5"/>
<circle cx="191.90615835777126" cy="-170.01661779081132" fill="#4287f5" r="2.5"/>
<circle cx="192.37536656891496" cy="-170.01661779081132" fill="#4287f5" r="2.5"/>
<circle cx="192.84457478005865" cy="-170.01661779081132" fill="#4287f5" r="2.5"/>
<circle cx="193.31378299120234" cy="-170.01661779081132" fill="#4287f5" r="2.5"/>
<circle cx="193.78299120234604" cy="-170.01661779081132" fill="#4287f5" r="2.5"/>
<circle cx="194.25219941348973" cy="-170.01661779081132" fill="#4287f5" r="2.5"/>
<circle cx="194.72140762463343" cy="-170.01661779081132" fill="#4287f5" r="2.5"/>
<circle cx="195.19061583577712" cy="-170.01661779081132" fill="#4287f5" r="2.5"/>
<circle cx="195.65982404692082" cy="-170.01661779081132" fill="#4287f5" r="2.5"/>
<circle cx="196.1290322580645" cy="-170.01661779081132" fill="#4287f5" r="2.5"/>
<circle cx="196.5982404692082" cy="-170.01661779081132" fill="#4287f5" r="2.5"/>
<circle cx="197.0674486803519" cy="-170.01329423264906" fill="#4287f5" r="2.5"/>
<circle cx="197.5366568914956" cy="-170.01329423264906" fill="#4287f5" r="2.5"/>
<circle cx="198.0058651026393" cy="-170.01329423264906" fill="#4287f5" r="2.5"/>
<circle cx="198.47507331378299" cy="-170.01329423264906" fill="#4287f5" r="2.5"/>
<circle cx="198.94428152492668" cy="-170.01329423264906" fill="#4287f5" r="2.5"/>
<circle cx="199.41348973607037" cy="-170.01329423264906" fill="#4287f5" r="2.5"/>
<circle cx="199.88269794721407" cy="-170.01329423264906" fill="#4287f5" r="2.5"/>
<circle cx="200.35190615835776" cy="-170.01329423264906" fill="#4287f5" r="2.5"/>
<circle cx="200.82111436950146" cy="-170.01329423264906" fill="#4287f5" r="2.5"/>
<circle cx="201.29032258064515" cy="-170.01329423264906" fill="#4287f5" r="2.5"/>
<circle cx="201.75953079178885" cy="-170.01329423264906" fill="#4287f5" r="2.5"/>
<circle cx="202.22873900293254" cy="-170.01329423264906" fill="#4287f5" r="2.5"/>
<circle cx="202.69794721407624" cy="-170.01329423264906" fill="#4287f5" r="2.5"/>
<circle cx="203.16715542521993" cy="-170.01329423264906" fill="#4287f5" r="2.5"/>
<circle cx="203.63636363636363" cy="-170.01329423264906" fill="#4287f5" r="2.5"/>
<circle cx="204.10557184750732" cy="-170.01329423264906" fill="#4287f5" r="2.5"/>
<circle cx="204.57478005865102" cy="-170.01329423264906" fill="#4287f5" r="2.5"/>
<circle cx="205.0439882697947" cy="-170.01329423264906" fill="#4287f5" r="2.5"/>
<circle cx="205.5131964809384" cy="-170.01329423264906" fill="#4287f5" r="2.5"/>
<circle cx="205.9824046920821" cy="-170.01329423264906" fill="#4287f5" r="2.5"/>
<circle cx="206.4516129032258" cy="-170.0099706744868" fill="#4287f5" r="2.5"/>
<circle cx="206.9208211143695" cy="-170.0099706744868" fill="#4287f5" r="2.5"/>
<circle cx="207.39002932551318" cy="-170.0099706744868" fill="#4287f5" r="2.5"/>
<circle cx="207.85923753665688" cy="-170.0099706744868" fill="#4287f5" r="2.5"/>
<circle cx="208.3284457478006" cy="-170.0099706744868" fill="#4287f5" r="2.5"/>
<circle cx="208.7976539589443" cy="-170.0099706744868" fill="#4287f5" r="2.5"/>
<circle cx="209.266862170088" cy="-170.0099706744868" fill="#4287f5" r="2.5"/>
<circle cx="209.73607038123168" cy="-170.0099706744868" fill="#4287f5" r="2.5"/>
<circle cx="210.20527859237538" cy="-170.0099706744868" fill="#4287f5" r="2.5"/>
<circle cx="210.67448680351907" cy="-170.0099706744868" fill="#4287f5" r="2.5"/>
<circle cx="211.14369501466277" cy="-170.0099706744868" fill="#4287f5" r="2.5"/>
<circle cx="211.61290322580646" cy="-170.0099706744868" fill="#4287f5" r="2.5"/>
<circle cx="212.08211143695016" cy="-170.0099706744868" fill="#4287f5" r="2.5"/>
<circle cx="212.55131964809385" cy="-170.0099706744868" fill="#4287f5" r="2.5"/>
<circle cx="213.02052785923755" cy="-170.0099706744868" fill="#4287f5" r="2.5"/>
<circle cx="213.48973607038124" cy="-170.0099706744868" fill="#4287f5" r="2.5"/>
<circle cx="213.95894428152494" cy="-170.0099706744868" fill="#4287f5" r="2.5"/>
<circle cx="214.42815249266863" cy="-170.0099706744868" fill="#4287f5" r="2.5"/>
<circle cx="214.89736070381232" cy="-170.0099706744868" fill="#4287f5" r="2.5"/>
<circle cx="215.36656891495602" cy="-170.0099706744868" fill="#4287f5" r="2.5"/>
<circle cx="215.8357771260997" cy="-170.00664711632453" fill="#4287f5" r="2.5"/>
<circle cx="216.3049853372434" cy="-170.00664711632453" fill="#4287f5" r="2.5"/>
<circle cx="216.7741935483871" cy="-170.00664711632453" fill="#4287f5" r="2.5"/>
<circle cx="217.2434017595308" cy="-170.00664711632453" fill="#4287f5" r="2.5"/>
<circle cx="217.7126099706745" cy="-170.00664711632453" fill="#4287f5" r="2.5"/>
<circle cx="218.1818181818182" cy="-170.00664711632453" fill="#4287f5" r="2.5"/>
<circle cx="218.65102639296188" cy="-170.00664711632453" fill="#4287f5" r="2.5"/>
<circle cx="219.12023460410558" cy="-170.00664711632453" fill="#4287f5" r="2.5"/>
<circle cx="219.58944281524927" cy="-170.00664711632453" fill="#4287f5" r="2.5"/>
<circle cx="220.05865102639297" cy="-170.00664711632453" fill="#4287f5" r="2.5"/>
<circle cx="220.52785923753666" cy="-170.00664711632453" fill="#4287f5" r="2.5"/>
<circle cx="220.99706744868035" cy="-170.00664711632453" fill="#4287f5" r="2.5"/>
<circle cx="221.46627565982405" cy="-170.00664711632453" fill="#4287f5" r="2.5"/>
<circle cx="221.93548387096774" cy="-170.00664711632453" fill="#4287f5" r="2.5"/>
<circle cx="222.40469208211144" cy="-170.00664711632453" fill="#4287f5" r="2.5"/>
<circle cx="222.87390029325513" cy="-170.00664711632453" fill="#4287f5" r="2.5"/>
<circle cx="223.34310850439883" cy="-170.00664711632453" fill="#4287f5" r="2.5"/>
<circle cx="223.81231671554252" cy="-170.00664711632453" fill="#4287f5" r="2.5"/>
<circle cx="224.28152492668622" cy="-170.00664711632453" fill="#4287f5" r="2.5"/>
<circle cx="224.7507331378299" cy="-170.00664711632453" fill="#4287f5" r="2.5"/>
<circle cx="225.2199413489736" cy="-170.00664711632453" fill="#4287f5" r="2.5"/>
<circle cx="225.6891495601173" cy="-170.00332355816226" fill="#4287f5" r="2.5"/>
<circle cx="226.158357771261" cy="-170.00332355816226" fill="#4287f5" r="2.5"/>
<circle cx="226.6275659824047" cy="-170.00332355816226" fill="#4287f5" r="2.5"/>
<circle cx="227.09677419354838" cy="-170.00332355816226" fill="#4287f5" r="2.5"/>
<circle cx="227.56598240469208" cy="-170.00332355816226" fill="#4287f5" r="2.5"/>
<circle cx="228.03519061583577" cy="-170.00332355816226" fill="#4287f5" r="2.5"/>
<circle cx="228.50439882697947" cy="-170.00332355816226" fill="#4287f5" r="2.5"/>
<circle cx="228.97360703812316" cy="-170.00332355816226" fill="#4287f5" r="2.5"/>
<circle cx="229.44281524926686" cy="-170.00332355816226" fill="#4287f5" r="2.5"/>
<circle cx="229.91202346041055" cy="-170.00332355816226" fill="#4287f5" r="2.5"/>
<circle cx="230.38123167155425" cy="-170.00332355816226" fill="#4287f5" r="2.5"/>
<circle cx="230.85043988269794" cy="-170.00332355816226" fill="#4287f5" r="2.5"/>
<circle cx="231.31964809384164" cy="-170.00332355816226" fill="#4287f5" r="2.5"/>
<circle cx="231.78885630498533" cy="-170.00332355816226" fill="#4287f5" r="2.5"/>
<circle cx="232.25806451612902" cy="-170.00332355816226" fill="#4287f5" r="2.5"/>
<circle cx="232.72727272727272" cy="-170.00332355816226" fill="#4287f5" r="2.5"/>
<circle cx="233.1964809384164" cy="-170.00332355816226" fill="#4287f5" r="2.5"/>
<circle cx="233.6656891495601" cy="-170.00332355816226" fill="#4287f5" r="2.5"/>
<circle cx="234.1348973607038" cy="-170.00332355816226" fill="#4287f5" r="2.5"/>
<circle cx="234.6041055718475" cy="-170.00332355816226" fill="#4287f5" r="2.5"/>
<circle cx="235.0733137829912" cy="-170.00332355816226" fill="#4287f5" r="2.5"/>
<circle cx="235.5425219941349" cy="-170" fill="#4287f5" r="2.5"/>
<circle cx="236.01173020527858" cy="-170" fill="#4287f5" r="2.5"/>
<circle cx="236.48093841642228" cy="-170" fill="#4287f5" r="2.5"/>
<circle cx="236.95014662756597" cy="-170" fill="#4287f5" r="2.5"/>
<circle cx="237.41935483870967" cy="-170" fill="#4287f5" r="2.5"/>
<circle cx="237.88856304985336" cy="-170" fill="#4287f5" r="2.5"/>
<circle cx="238.35777126099705" cy="-170" fill="#4287f5" r="2.5"/>
<circle cx="238.82697947214075" cy="-170" fill="#4287f5" r="2.5"/>
<circle cx="239.29618768328444" cy="-170" fill="#4287f5" r="2.5"/>
<circle cx="239.76539589442814" cy="-170" fill="#4287f5" r="2.5"/>
<circle cx="240.23460410557186" cy="-170" fill="#4287f5" r="2.5"/>
<circle cx="240.70381231671556" cy="-170" fill="#4287f5" r="2.5"/>
<circle cx="241.17302052785925" cy="-170" fill="#4287f5" r="2.5"/>
<circle cx="241.64222873900295" cy="-170" fill="#4287f5" r="2.5"/>
<circle cx="242.11143695014664" cy="-170" fill="#4287f5" r="2.5"/>
<circle cx="242.58064516129033" cy="-170" fill="#4287f5" r="2.5"/>
<circle cx="243.04985337243403" cy="-170" fill="#4287f5" r="2.5"/>
<circle cx="243.51906158357772" cy="-170" fill="#4287f5" r="2.5"/>
<circle cx="243.98826979472142" cy="-170" fill="#4287f5" r="2.5"/>
<circle cx="244.4574780058651" cy="-170" fill="#4287f5" r="2.5"/>
<circle cx="244.9266862170088" cy="-170" fill="#4287f5" r="2.5"/>
<circle cx="245.3958944281525" cy="-169.99667644183774" fill="#4287f5" r="2.5"/>
<circle cx="245.8651026392962" cy="-169.99667644183774" fill="#4287f5" r="2.5"/>
<circle cx="246.3343108504399" cy="-169.99667644183774" fill="#4287f5" r="2.5"/>
<circle cx="246.8035190615836" cy="-169.99667644183774" fill="#4287f5" r="2.5"/>
<circle cx="247.27272727272728" cy="-169.99667644183774" fill="#4287f5" r="2.5"/>
<circle cx="247.74193548387098" cy="-169.99667644183774" fill="#4287f5" r="2.5"/>
<circle cx="248.21114369501467" cy="-169.99667644183774" fill="#4287f5" r="2.5"/>
<circle cx="248.68035190615836" cy="-169.99667644183774" fill="#4287f5" r="2.5"/>
<circle cx="249.14956011730206" cy="-169.99667644183774" fill="#4287f5" r="2.5"/>
<circle cx="249.61876832844575" cy="-169.99667644183774" fill="#4287f5" r="2.5"/>
<circle cx="250.08797653958945" cy="-169.99667644183774" fill="#4287f5" r="2.5"/>
<circle cx="250.55718475073314" cy="-169.99667644183774" fill="#4287f5" r="2.5"/>
<circle cx="251.02639296187684" cy="-169.99667644183774" fill="#4287f5" r="2.5"/>
<circle cx="251.49560117302053" cy="-169.99667644183774" fill="#4287f5" r="2.5"/>
<circle cx="251.96480938416423" cy="-169.99667644183774" fill="#4287f5" r="2.5"/>
<circle cx="252.43401759530792" cy="-169.99667644183774" fill="#4287f5" r="2.5"/>
<circle cx="252.90322580645162" cy="-169.99667644183774" fill="#4287f5" r="2.5"/>
<circle cx="253.3724340175953" cy="-169.99667644183774" fill="#4287f5" r="2.5"/>
<circle cx="253.841642228739" cy="-169.99667644183774" fill="#4287f5" r="2.5"/>
<circle cx="254.3108504398827" cy="-169.99667644183774" fill="#4287f5" r="2.5"/>
<circle cx="254.7800586510264" cy="-169.99667644183774" fill="#4287f5" r="2.5"/>
<circle cx="255.2492668621701" cy="-169.99335288367547" fill="#4287f5" r="2.5"/>
<circle cx="255.71847507331378" cy="-169.99335288367547" fill="#4287f5" r="2.5"/>
<circle cx="256.1876832844575" cy="-169.99335288367547" fill="#4287f5" r="2.5"/>
<circle cx="256.6568914956012" cy="-169.99335288367547" fill="#4287f5" r="2.5"/>
<circle cx="257.12609970674487" cy="-169.99335288367547" fill="#4287f5" r="2.5"/>
<circle cx="257.5953079178886" cy="-169.99335288367547" fill="#4287f5" r="2.5"/>
<circle cx="258.06451612903226" cy="-169.99335288367547" fill="#4287f5" r="2.5"/>
<circle cx="258.533724340176" cy="-169.99335288367547" fill="#4287f5" r="2.5"/>
<circle cx="259.00293255131965" cy="-169.99335288367547" fill="#4287f5" r="2.5"/>
<circle cx="259.47214076246337" cy="-169.99335288367547" fill="#4287f5" r="2.5"/>
<circle cx="259.94134897360703" cy="-169.99335288367547" fill="#4287f5" r="2.5"/>
<circle cx="260.41055718475076" cy="-169.99335288367547" fill="#4287f5" r="2.5"/>
<circle cx="260.8797653958944" cy="-169.99335288367547" fill="#4287f5" r="2.5"/>
<circle cx="261.34897360703815" cy="-169.99335288367547" fill="#4287f5" r="2.5"/>
<circle cx="261.8181818181818" cy="-169.99335288367547" fill="#4287f5" r="2.5"/>
<circle cx="262.28739002932554" cy="-169.99335288367547" fill="#4287f5" r="2.5"/>
<circle cx="262.7565982404692" cy="-169.99335288367547" fill="#4287f5" r="2.5"/>
<circle cx="263.2258064516129" cy="-169.99335288367547" fill="#4287f5" r="2.5"/>
<circle cx="263.6950146627566" cy="-169.99335288367547" fill="#4287f5" r="2.5"/>
<circle cx="264.1642228739003" cy="-169.99335288367547" fill="#4287f5" r="2.5"/>
<circle cx="264.633431085044" cy="-169.99335288367547" fill="#4287f5" r="2.5"/>
<circle cx="265.1026392961877" cy="-169.9900293255132" fill="#4287f5" r="2.5"/>
<circle cx="265.57184750733137" cy="-169.9900293255132" fill="#4287f5" r="2.5"/>
<circle cx="266.0410557184751" cy="-169.9900293255132" fill="#4287f5" r="2.5"/>
<circle cx="266.51026392961876" cy="-169.9900293255132" fill="#4287f5" r="2.5"/>
<circle cx="266.9794721407625" cy="-169.9900293255132" fill="#4287f5" r="2.5"/>
<circle cx="267.44868035190615" cy="-169.9900293255132" fill="#4287f5" r="2.5"/>
<circle cx="267.91788856304987" cy="-169.9900293255132" fill="#4287f5" r="2.5"/>
<circle cx="268.38709677419354" cy="-169.9900293255132" fill="#4287f5" r="2.5"/>
<circle cx="268.85630498533726" cy="-169.9900293255132" fill="#4287f5" r="2.5"/>
<circle cx="269.3255131964809" cy="-169.9900293255132" fill="#4287f5" r="2.5"/>
<circle cx="269.79472140762465" cy="-169.9900293255132" fill="#4287f5" r="2.5"/>
<circle cx="270.2639296187683" cy="-169.9900293255132" fill="#4287f5" r="2.5"/>
<circle cx="270.73313782991204" cy="-169.9900293255132" fill="#4287f5" r="2.5"/>
<circle cx="271.2023460410557" cy="-169.9900293255132" fill="#4287f5" r="2.5"/>
<circle cx="271.6715542521994" cy="-169.9900293255132" fill="#4287f5" r="2.5"/>
<circle cx="272.1407624633431" cy="-169.9900293255132" fill="#4287f5" r="2.5"/>
<circle cx="272.6099706744868" cy="-169.9900293255132" fill="#4287f5" r="2.5"/>
<circle cx="273.0791788856305" cy="-169.9900293255132" fill="#4287f5" r="2.5"/>
<circle cx="273.5483870967742" cy="-169.9900293255132" fill="#4287f5" r="2.5"/>
<circle cx="274.0175953079179" cy="-169.9900293255132" fill="#4287f5" r="2.5"/>
<circle cx="274.4868035190616" cy="-169.9867057673509" fill="#4287f5" r="2.5"/>
<circle cx="274.95601173020526" cy="-169.9867057673509" fill="#4287f5" r="2.5"/>
<circle cx="275.425219941349" cy="-169.9867057673509" fill="#4287f5" r="2.5"/>
<circle cx="275.89442815249265" cy="-169.9867057673509" fill="#4287f5" r="2.5"/>
<circle cx="276.3636363636364" cy="-169.9867057673509" fill="#4287f5" r="2.5"/>
<circle cx="276.83284457478004" cy="-169.9867057673509" fill="#4287f5" r="2.5"/>
<circle cx="277.30205278592376" cy="-169.9867057673509" fill="#4287f5" r="2.5"/>
<circle cx="277.77126099706743" cy="-169.9867057673509" fill="#4287f5" r="2.5"/>
<circle cx="278.24046920821115" cy="-169.9867057673509" fill="#4287f5" r="2.5"/>
<circle cx="278.7096774193548" cy="-169.9867057673509" fill="#4287f5" r="2.5"/>
<circle cx="279.17888563049854" cy="-169.9867057673509" fill="#4287f5" r="2.5"/>
<circle cx="279.6480938416422" cy="-169.9867057673509" fill="#4287f5" r="2.5"/>
<circle cx="280.11730205278593" cy="-169.9867057673509" fill="#4287f5" r="2.5"/>
<circle cx="280.5865102639296" cy="-169.9867057673509" fill="#4287f5" r="2.5"/>
<circle cx="281.0557184750733" cy="-169.9867057673509" fill="#4287f5" r="2.5"/>
<circle cx="281.524926686217" cy="-169.9867057673509" fill="#4287f5" r="2.5"/>
<circle cx="281.9941348973607" cy="-169.9867057673509" fill="#4287f5" r="2.5"/>
<circle cx="282.4633431085044" cy="-169.9867057673509" fill="#4287f5" r="2.5"/>
<circle cx="282.9325513196481" cy="-169.9867057673509" fill="#4287f5" r="2.5"/>
<circle cx="283.40175953079176" cy="-169.9867057673509" fill="#4287f5" r="2.5"/>
<circle cx="283.8709677419355" cy="-169.98338220918865" fill="#4287f5" r="2.5"/>
<circle cx="284.34017595307915" cy="-169.98338220918865" fill="#4287f5" r="2.5"/>
<circle cx="284.8093841642229" cy="-169.98338220918865" fill="#4287f5" r="2.5"/>
<circle cx="285.27859237536654" cy="-169.98338220918865" fill="#4287f5" r="2.5"/>
<circle cx="285.74780058651027" cy="-169.98338220918865" fill="#4287f5" r="2.5"/>
<circle cx="286.21700879765393" cy="-169.98338220918865" fill="#4287f5" r="2.5"/>
<circle cx="286.68621700879766" cy="-169.98338220918865" fill="#4287f5" r="2.5"/>
<circle cx="287.1554252199413" cy="-169.98338220918865" fill="#4287f5" r="2.5"/>
<circle cx="287.62463343108504" cy="-169.98338220918865" fill="#4287f5" r="2.5"/>
<circle cx="288.09384164222877" cy="-169.98338220918865" fill="#4287f5" r="2.5"/>
<circle cx="288.56304985337243" cy="-169.98338220918865" fill="#4287f5" r="2.5"/>
<circle cx="289.03225806451616" cy="-169.98338220918865" fill="#4287f5" r="2.5"/>
<circle cx="289.5014662756598" cy="-169.98338220918865" fill="#4287f5" r="2.5"/>
<circle cx="289.97067448680355" cy="-169.98338220918865" fill="#4287f5" r="2.5"/>
<circle cx="290.4398826979472" cy="-169.98338220918865" fill="#4287f5" r="2.5"/>
<circle cx="290.90909090909093" cy="-169.98338220918865" fill="#4287f5" r="2.5"/>
<circle cx="291.3782991202346" cy="-169.98338220918865" fill="#4287f5" r="2.5"/>
<circle cx="291.8475073313783" cy="-169.98338220918865" fill="#4287f5" r="2.5"/>
<circle cx="292.316715542522" cy="-169.98005865102638" fill="#4287f5" r="2.5"/>
<circle cx="292.7859237536657" cy="-169.98005865102638" fill="#4287f5" r="2.5"/>
<circle cx="293.2551319648094" cy="-169.98005865102638" fill="#4287f5" r="2.5"/>
<circle cx="293.7243401759531" cy="-169.98005865102638" fill="#4287f5" r="2.5"/>
<circle cx="294.19354838709677" cy="-169.98005865102638" fill="#4287f5" r="2.5"/>
<circle cx="294.6627565982405" cy="-169.98005865102638" fill="#4287f5" r="2.5"/>
<circle cx="295.13196480938416" cy="-169.98005865102638" fill="#4287f5" r="2.5"/>
<circle cx="295.6011730205279" cy="-169.98005865102638" fill="#4287f5" r="2.5"/>
<circle cx="296.07038123167155" cy="-169.98005865102638" fill="#4287f5" r="2.5"/>
<circle cx="296.53958944281527" cy="-169.98005865102638" fill="#4287f5" r="2.5"/>
<circle cx="297.00879765395894" cy="-169.98005865102638" fill="#4287f5" r="2.5"/>
<circle cx="297.47800586510266" cy="-169.98005865102638" fill="#4287f5" r="2.5"/>
<circle cx="297.9472140762463" cy="-169.98005865102638" fill="#4287f5" r="2.5"/>
<circle cx="298.41642228739005" cy="-169.98005865102638" fill="#4287f5" r="2.5"/>
<circle cx="298.8856304985337" cy="-169.98005865102638" fill="#4287f5" r="2.5"/>
<circle cx="299.35483870967744" cy="-169.98005865102638" fill="#4287f5" r="2.5"/>
<circle cx="299.8240469208211" cy="-169.98005865102638" fill="#4287f5" r="2.5"/>
<circle cx="300.2932551319648" cy="-169.98005865102638" fill="#4287f5" r="2.5"/>
<circle cx="300.7624633431085" cy="-169.98005865102638" fill="#4287f5" r="2.5"/>
<circle cx="301.2316715542522" cy="-169.97673509286412" fill="#4287f5" r="2.5"/>
<circle cx="301.7008797653959" cy="-169.97673509286412" fill="#4287f5" r="2.5"/>
<circle cx="302.1700879765396" cy="-169.97673509286412" fill="#4287f5" r="2.5"/>
<circle cx="302.63929618768327" cy="-169.97673509286412" fill="#4287f5" r="2.5"/>
<circle cx="303.108504398827" cy="-169.97673509286412" fill="#4287f5" r="2.5"/>
<circle cx="303.57771260997066" cy="-169.97673509286412" fill="#4287f5" r="2.5"/>
<circle cx="304.0469208211144" cy="-169.97673509286412" fill="#4287f5" r="2.5"/>
<circle cx="304.51612903225805" cy="-169.97673509286412" fill="#4287f5" r="2.5"/>
<circle cx="304.9853372434018" cy="-169.97673509286412" fill="#4287f5" r="2.5"/>
<circle cx="305.45454545454544" cy="-169.97673509286412" fill="#4287f5" r="2.5"/>
<circle cx="305.92375366568916" cy="-169.97673509286412" fill="#4287f5" r="2.5"/>
<circle cx="306.3929618768328" cy="-169.97673509286412" fill="#4287f5" r="2.5"/>
<circle cx="306.86217008797655" cy="-169.97673509286412" fill="#4287f5" r="2.5"/>
<circle cx="307.3313782991202" cy="-169.97673509286412" fill="#4287f5" r="2.5"/>
<circle cx="307.80058651026394" cy="-169.97673509286412" fill="#4287f5" r="2.5"/>
<circle cx="308.2697947214076" cy="-169.97673509286412" fill="#4287f5" r="2.5"/>
<circle cx="308.73900293255133" cy="-169.97673509286412" fill="#4287f5" r="2.5"/>
<circle cx="309.208211143695" cy="-169.97341153470185" fill="#4287f5" r="2.5"/>
<circle cx="309.6774193548387" cy="-169.97341153470185" fill="#4287f5" r="2.5"/>
<circle cx="310.1466275659824" cy="-169.97341153470185" fill="#4287f5" r="2.5"/>
<circle cx="310.6158357771261" cy="-169.97341153470185" fill="#4287f5" r="2.5"/>
<circle cx="311.0850439882698" cy="-169.97341153470185" fill="#4287f5" r="2.5"/>
<circle cx="311.5542521994135" cy="-169.97341153470185" fill="#4287f5" r="2.5"/>
<circle cx="312.02346041055716" cy="-169.97341153470185" fill="#4287f5" r="2.5"/>
<circle cx="312.4926686217009" cy="-169.97341153470185" fill="#4287f5" r="2.5"/>
<circle cx="312.96187683284455" cy="-169.97341153470185" fill="#4287f5" r="2.5"/>
<circle cx="313.4310850439883" cy="-169.97341153470185" fill="#4287f5" r="2.5"/>
<circle cx="313.90029325513194" cy="-169.97341153470185" fill="#4287f5" r="2.5"/>
<circle cx="314.36950146627566" cy="-169.97341153470185" fill="#4287f5" r="2.5"/>
<circle cx="314.83870967741933" cy="-169.97341153470185" fill="#4287f5" r="2.5"/>
<circle cx="315.30791788856305" cy="-169.97341153470185" fill="#4287f5" r="2.5"/>
<circle cx="315.7771260997067" cy="-169.97341153470185" fill="#4287f5" r="2.5"/>
<circle cx="316.24633431085044" cy="-169.97341153470185" fill="#4287f5" r="2.5"/>
<circle cx="316.7155425219941" cy="-169.9700879765396" fill="#4287f5" r="2.5"/>
<circle cx="317.18475073313783" cy="-169.9700879765396" fill="#4287f5" r="2.5"/>
<circle cx="317.6539589442815" cy="-169.9700879765396" fill="#4287f5" r="2.5"/>
<circle cx="318.1231671554252" cy="-169.9700879765396" fill="#4287f5" r="2.5"/>
<circle cx="318.5923753665689" cy="-169.9700879765396" fill="#4287f5" r="2.5"/>
<circle cx="319.0615835777126" cy="-169.9700879765396" fill="#4287f5" r="2.5"/>
<circle cx="319.5307917888563" cy="-169.9700879765396" fill="#4287f5" r="2.5"/>
<circle cx="320" cy="-169.9700879765396" fill="#4287f5" r="2.5"/>
<circle cx="320.4692082111437" cy="-169.9700879765396" fill="#4287f5" r="2.5"/>
<circle cx="320.9384164222874" cy="-169.9700879765396" fill="#4287f5" r="2.5"/>
<circle cx="321.4076246334311" cy="-169.9700879765396" fill="#4287f5" r="2.5"/>
<circle cx="321.8768328445748" cy="-169.9700879765396" fill="#4287f5" r="2.5"/>
<circle cx="322.3460410557185" cy="-169.9700879765396" fill="#4287f5" r="2.5"/>
<circle cx="322.81524926686217" cy="-169.9700879765396" fill="#4287f5" r="2.5"/>
<circle cx="323.2844574780059" cy="-169.9700879765396" fill="#4287f5" r="2.5"/>
<circle cx="323.75366568914956" cy="-169.9700879765396" fill="#4287f5" r="2.5"/>
<circle cx="324.2228739002933" cy="-169.96676441837732" fill="#4287f5" r="2.5"/>
<circle cx="324.69208211143695" cy="-169.96676441837732" fill="#4287f5" r="2.5"/>
<circle cx="325.16129032258067" cy="-169.96676441837732" fill="#4287f5" r="2.5"/>
<circle cx="325.63049853372434" cy="-169.96676441837732" fill="#4287f5" r="2.5"/>
<circle cx="326.09970674486806" cy="-169.96676441837732" fill="#4287f5" r="2.5"/>
<circle cx="326.5689149560117" cy="-169.96676441837732" fill="#4287f5" r="2.5"/>
<circle cx="327.03812316715545" cy="-169.96676441837732" fill="#4287f5" r="2.5"/>
<circle cx="327.5073313782991" cy="-169.96676441837732" fill="#4287f5" r="2.5"/>
<circle cx="327.97653958944284" cy="-169.96676441837732" fill="#4287f5" r="2.5"/>
<circle cx="328.4457478005865" cy="-169.96676441837732" fill="#4287f5" r="2.5"/>
<circle cx="328.9149560117302" cy="-169.96676441837732" fill="#4287f5" r="2.5"/>
<circle cx="329.3841642228739" cy="-169.96676441837732" fill="#4287f5" r="2.5"/>
<circle cx="329.8533724340176" cy="-169.96676441837732" fill="#4287f5" r="2.5"/>
<circle cx="330.3225806451613" cy="-169.96676441837732" fill="#4287f5" r="2.5"/>
<circle cx="330.791788856305" cy="-169.96344086021506" fill="#4287f5" r="2.5"/>
<circle cx="331.26099706744867" cy="-169.96344086021506" fill="#4287f5" r="2.5"/>
<circle cx="331.7302052785924" cy="-169.96344086021506" fill="#4287f5" r="2.5"/>
<circle cx="332.19941348973606" cy="-169.96344086021506" fill="#4287f5" r="2.5"/>
<circle cx="332.6686217008798" cy="-169.96344086021506" fill="#4287f5" r="2.5"/>
<circle cx="333.13782991202345" cy="-169.96344086021506" fill="#4287f5" r="2.5"/>
<circle cx="333.6070381231672" cy="-169.96344086021506" fill="#4287f5" r="2.5"/>
<circle cx="334.07624633431084" cy="-169.96344086021506" fill="#4287f5" r="2.5"/>
<circle cx="334.54545454545456" cy="-169.96344086021506" fill="#4287f5" r="2.5"/>
<circle cx="335.0146627565982" cy="-169.96344086021506" fill="#4287f5" r="2.5"/>
<circle cx="335.48387096774195" cy="-169.96344086021506" fill="#4287f5" r="2.5"/>
<circle cx="335.9530791788856" cy="-169.96344086021506" fill="#4287f5" r="2.5"/>
<circle cx="336.42228739002934" cy="-169.96344086021506" fill="#4287f5" r="2.5"/>
<circle cx="336.891495601173" cy="-169.96344086021506" fill="#4287f5" r="2.5"/>
<circle cx="337.36070381231673" cy="-169.9601173020528" fill="#4287f5" r="2.5"/>
<circle cx="337.8299120234604" cy="-169.9601173020528" fill="#4287f5" r="2.5"/>
<circle cx="338.2991202346041" cy="-169.9601173020528" fill="#4287f5" r="2.5"/>
<circle cx="338.7683284457478" cy="-169.9601173020528" fill="#4287f5" r="2.5"/>
<circle cx="339.2375366568915" cy="-169.9601173020528" fill="#4287f5" r="2.5"/>
<circle cx="339.7067448680352" cy="-169.9601173020528" fill="#4287f5" r="2.5"/>
<circle cx="340.1759530791789" cy="-169.9601173020528" fill="#4287f5" r="2.5"/>
<circle cx="340.64516129032256" cy="-169.9601173020528" fill="#4287f5" r="2.5"/>
<circle cx="341.1143695014663" cy="-169.9601173020528" fill="#4287f5" r="2.5"/>
<circle cx="341.58357771260995" cy="-169.9601173020528" fill="#4287f5" r="2.5"/>
<circle cx="342.0527859237537" cy="-169.9601173020528" fill="#4287f5" r="2.5"/>
<circle cx="342.52199413489734" cy="-169.9601173020528" fill="#4287f5" r="2.5"/>
<circle cx="342.99120234604106" cy="-169.9601173020528" fill="#4287f5" r="2.5"/>
<circle cx="343.46041055718473" cy="-169.95679374389053" fill="#4287f5" r="2.5"/>
<circle cx="343.92961876832845" cy="-169.95679374389053" fill="#4287f5" r="2.5"/>
<circle cx="344.3988269794721" cy="-169.95679374389053" fill="#4287f5" r="2.5"/>
<circle cx="344.86803519061584" cy="-169.95679374389053" fill="#4287f5" r="2.5"/>
<circle cx="345.3372434017595" cy="-169.95679374389053" fill="#4287f5" r="2.5"/>
<circle cx="345.80645161290323" cy="-169.95679374389053" fill="#4287f5" r="2.5"/>
<circle cx="346.2756598240469" cy="-169.95679374389053" fill="#4287f5" r="2.5"/>
<circle cx="346.7448680351906" cy="-169.95679374389053" fill="#4287f5" r="2.5"/>
<circle cx="347.2140762463343" cy="-169.95679374389053" fill="#4287f5" r="2.5"/>
<circle cx="347.683284457478" cy="-169.95679374389053" fill="#4287f5" r="2.5"/>
<circle cx="348.1524926686217" cy="-169.95679374389053" fill="#4287f5" r="2.5"/>
<circle cx="348.6217008797654" cy="-169.95347018572826" fill="#4287f5" r="2.5"/>
<circle cx="349.09090909090907" cy="-169.95347018572826" fill="#4287f5" r="2.5"/>
<circle cx="349.5601173020528" cy="-169.95347018572826" fill="#4287f5" r="2.5"/>
<circle cx="350.02932551319645" cy="-169.95347018572826" fill="#4287f5" r="2.5"/>
<circle cx="350.4985337243402" cy="-169.95347018572826" fill="#4287f5" r="2.5"/>
<circle cx="350.96774193548384" cy="-169.95347018572826" fill="#4287f5" r="2.5"/>
<circle cx="351.43695014662757" cy="-169.95347018572826" fill="#4287f5" r="2.5"/>
<circle cx="351.90615835777123" cy="-169.95347018572826" fill="#4287f5" r="2.5"/>
<circle cx="352.37536656891496" cy="-169.95347018572826" fill="#4287f5" r="2.5"/>
<circle cx="352.8445747800587" cy="-169.95347018572826" fill="#4287f5" r="2.5"/>
<circle cx="353.31378299120234" cy="-169.95347018572826" fill="#4287f5" r="2.5"/>
<circle cx="353.78299120234607" cy="-169.95347018572826" fill="#4287f5" r="2.5"/>
<circle cx="354.25219941348973" cy="-169.950146627566" fill="#4287f5" r="2.5"/>
<circle cx="354.72140762463346" cy="-169.950146627566" fill="#4287f5" r="2.5"/>
<circle cx="355.1906158357771" cy="-169.950146627566" fill="#4287f5" r="2.5"/>
<circle cx="355.65982404692085" cy="-169.950146627566" fill="#4287f5" r="2.5"/>
<circle cx="356.1290322580645" cy="-169.950146627566" fill="#4287f5" r="2.5"/>
<circle cx="356.59824046920824" cy="-169.950146627566" fill="#4287f5" r="2.5"/>
<circle cx="357.0674486803519" cy="-169.950146627566" fill="#4287f5" r="2.5"/>
<circle cx="357.5366568914956" cy="-169.950146627566" fill="#4287f5" r="2.5"/>
<circle cx="358.0058651026393" cy="-169.950146627566" fill="#4287f5" r="2.5"/>
<circle cx="358.475073313783" cy="-169.950146627566" fill="#4287f5" r="2.5"/>
<circle cx="358.9442815249267" cy="-169.9468230694037" fill="#4287f5" r="2.5"/>
<circle cx="359.4134897360704" cy="-169.9468230694037" fill="#4287f5" r="2.5"/>
<circle cx="359.88269794721407" cy="-169.9468230694037" fill="#4287f5" r="2.5"/>
<circle cx="360.3519061583578" cy="-169.9468230694037" fill="#4287f5" r="2.5"/>
<circle cx="360.82111436950146" cy="-169.9468230694037" fill="#4287f5" r="2.5"/>
<circle cx="361.2903225806452" cy="-169.9468230694037" fill="#4287f5" r="2.5"/>
<circle cx="361.75953079178885" cy="-169.9468230694037" fill="#4287f5" r="2.5"/>
<circle cx="362.22873900293257" cy="-169.9468230694037" fill="#4287f5" r="2.5"/>
<circle cx="362.69794721407624" cy="-169.9468230694037" fill="#4287f5" r="2.5"/>
<circle cx="363.16715542521996" cy="-169.9468230694037" fill="#4287f5" r="2.5"/>
<circle cx="363.6363636363636" cy="-169.94349951124144" fill="#4287f5" r="2.5"/>
<circle cx="364.10557184750735" cy="-169.94349951124144" fill="#4287f5" r="2.5"/>
<circle cx="364.574780058651" cy="-169.94349951124144" fill="#4287f5" r="2.5"/>
<circle cx="365.04398826979474" cy="-169.94349951124144" fill="#4287f5" r="2.5"/>
<circle cx="365.5131964809384" cy="-169.94349951124144" fill="#4287f5" r="2.5"/>
<circle cx="365.9824046920821" cy="-169.94349951124144" fill="#4287f5" r="2.5"/>
<circle cx="366.4516129032258" cy="-169.94349951124144" fill="#4287f5" r="2.5"/>
<circle cx="366.9208211143695" cy="-169.94349951124144" fill="#4287f5" r="2.5"/>
<circle cx="367.3900293255132" cy="-169.94349951124144" fill="#4287f5" r="2.5"/>
<circle cx="367.8592375366569" cy="-169.94017595307918" fill="#4287f5" r="2.5"/>
<circle cx="368.3284457478006" cy="-169.94017595307918" fill="#4287f5" r="2.5"/>
<circle cx="368.7976539589443" cy="-169.94017595307918" fill="#4287f5" r="2.5"/>
<circle cx="369.26686217008796" cy="-169.94017595307918" fill="#4287f5" r="2.5"/>
<circle cx="369.7360703812317" cy="-169.94017595307918" fill="#4287f5" r="2.5"/>
<circle cx="370.20527859237535" cy="-169.94017595307918" fill="#4287f5" r="2.5"/>
<circle cx="370.6744868035191" cy="-169.94017595307918" fill="#4287f5" r="2.5"/>
<circle cx="371.14369501466274" cy="-169.94017595307918" fill="#4287f5" r="2.5"/>
<circle cx="371.61290322580646" cy="-169.9368523949169" fill="#4287f5" r="2.5"/>
<circle cx="372.08211143695013" cy="-169.9368523949169" fill="#4287f5" r="2.5"/>
<circle cx="372.55131964809385" cy="-169.9368523949169" fill="#4287f5" r="2.5"/>
<circle cx="373.0205278592375" cy="-169.9368523949169" fill="#4287f5" r="2.5"/>
<circle cx="373.48973607038124" cy="-169.9368523949169" fill="#4287f5" r="2.5"/>
<circle cx="373.9589442815249" cy="-169.9368523949169" fill="#4287f5" r="2.5"/>
<circle cx="374.42815249266863" cy="-169.9368523949169" fill="#4287f5" r="2.5"/>
<circle cx="374.8973607038123" cy="-169.9368523949169" fill="#4287f5" r="2.5"/>
<circle cx="375.366568914956" cy="-169.93352883675465" fill="#4287f5" r="2.5"/>
<circle cx="375.8357771260997" cy="-169.93352883675465" fill="#4287f5" r="2.5"/>
<circle cx="376.3049853372434" cy="-169.93352883675465" fill="#4287f5" r="2.5"/>
<circle cx="376.7741935483871" cy="-169.93352883675465" fill="#4287f5" r="2.5"/>
<circle cx="377.2434017595308" cy="-169.93352883675465" fill="#4287f5" r="2.5"/>
<circle cx="377.71260997067446" cy="-169.93352883675465" fill="#4287f5" r="2.5"/>
<circle cx="378.1818181818182" cy="-169.93352883675465" fill="#4287f5" r="2.5"/>
<circle cx="378.65102639296185" cy="-169.93020527859238" fill="#4287f5" r="2.5"/>
<circle cx="379.1202346041056" cy="-169.93020527859238" fill="#4287f5" r="2.5"/>
<circle cx="379.58944281524924" cy="-169.93020527859238" fill="#4287f5" r="2.5"/>
<circle cx="380.05865102639297" cy="-169.93020527859238" fill="#4287f5" r="2.5"/>
<circle cx="380.52785923753663" cy="-169.93020527859238" fill="#4287f5" r="2.5"/>
<circle cx="380.99706744868035" cy="-169.93020527859238" fill="#4287f5" r="2.5"/>
<circle cx="381.466275659824" cy="-169.93020527859238" fill="#4287f5" r="2.5"/>
<circle cx="381.93548387096774" cy="-169.9268817204301" fill="#4287f5" r="2.5"/>
<circle cx="382.4046920821114" cy="-169.9268817204301" fill="#4287f5" r="2.5"/>
<circle cx="382.87390029325513" cy="-169.9268817204301" fill="#4287f5" r="2.5"/>
<circle cx="383.3431085043988" cy="-169.9268817204301" fill="#4287f5" r="2.5"/>
<circle cx="383.8123167155425" cy="-169.9268817204301" fill="#4287f5" r="2.5"/>
<circle cx="384.28152492668625" cy="-169.9268817204301" fill="#4287f5" r="2.5"/>
<circle cx="384.7507331378299" cy="-169.9268817204301" fill="#4287f5" r="2.5"/>
<circle cx="385.21994134897363" cy="-169.92355816226782" fill="#4287f5" r="2.5"/>
<circle cx="385.6891495601173" cy="-169.92355816226782" fill="#4287f5" r="2.5"/>
<circle cx="386.158357771261" cy="-169.92355816226782" fill="#4287f5" r="2.5"/>
<circle cx="386.6275659824047" cy="-169.92355816226782" fill="#4287f5" r="2.5"/>
<circle cx="387.0967741935484" cy="-169.92355816226782" fill="#4287f5" r="2.5"/>
<circle cx="387.5659824046921" cy="-169.92355816226782" fill="#4287f5" r="2.5"/>
<circle cx="388.0351906158358" cy="-169.92023460410556" fill="#4287f5" r="2.5"/>
<circle cx="388.50439882697947" cy="-169.92023460410556" fill="#4287f5" r="2.5"/>
<circle cx="388.9736070381232" cy="-169.92023460410556" fill="#4287f5" r="2.5"/>
<circle cx="389.44281524926686" cy="-169.92023460410556" fill="#4287f5" r="2.5"/>
<circle cx="389.9120234604106" cy="-169.92023460410556" fill="#4287f5" r="2.5"/>
<circle cx="390.38123167155425" cy="-169.92023460410556" fill="#4287f5" r="2.5"/>
<circle cx="390.85043988269797" cy="-169.9169110459433" fill="#4287f5" r="2.5"/>
<circle cx="391.31964809384164" cy="-169.9169110459433" fill="#4287f5" r="2.5"/>
<circle cx="391.78885630498536" cy="-169.9169110459433" fill="#4287f5" r="2.5"/>
<circle cx="392.258064516129" cy="-169.9169110459433" fill="#4287f5" r="2.5"/>
<circle cx="392.72727272727275" cy="-169.9169110459433" fill="#4287f5" r="2.5"/>
<circle cx="393.1964809384164" cy="-169.91358748778103" fill="#4287f5" r="2.5"/>
<circle cx="393.66568914956014" cy="-169.91358748778103" fill="#4287f5" r="2.5"/>
<circle cx="394.1348973607038" cy="-169.91358748778103" fill="#4287f5" r="2.5"/>
<circle cx="394.6041055718475" cy="-169.91358748778103" fill="#4287f5" r="2.5"/>
<circle cx="395.0733137829912" cy="-169.91358748778103" fill="#4287f5" r="2.5"/>
<circle cx="395.5425219941349" cy="-169.91026392961876" fill="#4287f5" r="2.5"/>
<circle cx="396.0117302052786" cy="-169.91026392961876" fill="#4287f5" r="2.5"/>
<circle cx="396.4809384164223" cy="-169.91026392961876" fill="#4287f5" r="2.5"/>
<circle cx="396.95014662756597" cy="-169.91026392961876" fill="#4287f5" r="2.5"/>
<circle cx="397.4193548387097" cy="-169.91026392961876" fill="#4287f5" r="2.5"/>
<circle cx="397.88856304985336" cy="-169.9069403714565" fill="#4287f5" r="2.5"/>
<circle cx="398.3577712609971" cy="-169.9069403714565" fill="#4287f5" r="2.5"/>
<circle cx="398.82697947214075" cy="-169.9069403714565" fill="#4287f5" r="2.5"/>
<circle cx="399.2961876832845" cy="-169.9069403714565" fill="#4287f5" r="2.5"/>
<circle cx="399.76539589442814" cy="-169.90361681329424" fill="#4287f5" r="2.5"/>
<circle cx="400.23460410557186" cy="-169.90361681329424" fill="#4287f5" r="2.5"/>
<circle cx="400.7038123167155" cy="-169.90361681329424" fill="#4287f5" r="2.5"/>
<circle cx="401.17302052785925" cy="-169.90361681329424" fill="#4287f5" r="2.5"/>
<circle cx="401.6422287390029" cy="-169.90029325513197" fill="#4287f5" r="2.5"/>
<circle cx="402.11143695014664" cy="-169.90029325513197" fill="#4287f5" r="2.5"/>
<circle cx="402.5806451612903" cy="-169.90029325513197" fill="#4287f5" r="2.5"/>
<circle cx="403.04985337243403" cy="-169.90029325513197" fill="#4287f5" r="2.5"/>
<circle cx="403.5190615835777" cy="-169.8969696969697" fill="#4287f5" r="2.5"/>
<circle cx="403.9882697947214" cy="-169.8969696969697" fill="#4287f5" r="2.5"/>
<circle cx="404.4574780058651" cy="-169.8969696969697" fill="#4287f5" r="2.5"/>
<circle cx="404.9266862170088" cy="-169.8969696969697" fill="#4287f5" r="2.5"/>
<circle cx="405.3958944281525" cy="-169.89364613880744" fill="#4287f5" r="2.5"/>
<circle cx="405.8651026392962" cy="-169.89364613880744" fill="#4287f5" r="2.5"/>
<circle cx="406.33431085043986" cy="-169.89364613880744" fill="#4287f5" r="2.5"/>
<circle cx="406.8035190615836" cy="-169.89364613880744" fill="#4287f5" r="2.5"/>
<circle cx="407.27272727272725" cy="-169.89032258064518" fill="#4287f5" r="2.5"/>
<circle cx="407.741935483871" cy="-169.89032258064518" fill="#4287f5" r="2.5"/>
<circle cx="408.21114369501464" cy="-169.89032258064518" fill="#4287f5" r="2.5"/>
<circle cx="408.68035190615836" cy="-169.8869990224829" fill="#4287f5" r="2.5"/>
<circle cx="409.14956011730203" cy="-169.8869990224829" fill="#4287f5" r="2.5"/>
<circle cx="409.61876832844575" cy="-169.8869990224829" fill="#4287f5" r="2.5"/>
<circle cx="410.0879765395894" cy="-169.88367546432062" fill="#4287f5" r="2.5"/>
<circle cx="410.55718475073314" cy="-169.88367546432062" fill="#4287f5" r="2.5"/>
<circle cx="411.0263929618768" cy="-169.88367546432062" fill="#4287f5" r="2.5"/>
<circle cx="411.49560117302053" cy="-169.88035190615835" fill="#4287f5" r="2.5"/>
<circle cx="411.9648093841642" cy="-169.88035190615835" fill="#4287f5" r="2.5"/>
<circle cx="412.4340175953079" cy="-169.88035190615835" fill="#4287f5" r="2.5"/>
<circle cx="412.9032258064516" cy="-169.8770283479961" fill="#4287f5" r="2.5"/>
<circle cx="413.3724340175953" cy="-169.8770283479961" fill="#4287f5" r="2.5"/>
<circle cx="413.841642228739" cy="-169.8770283479961" fill="#4287f5" r="2.5"/>
<circle cx="414.3108504398827" cy="-169.87370478983382" fill="#4287f5" r="2.5"/>
<circle cx="414.78005865102637" cy="-169.87370478983382" fill="#4287f5" r="2.5"/>
<circle cx="415.2492668621701" cy="-169.87038123167156" fill="#4287f5" r="2.5"/>
<circle cx="415.71847507331375" cy="-169.87038123167156" fill="#4287f5" r="2.5"/>
<circle cx="416.1876832844575" cy="-169.87038123167156" fill="#4287f5" r="2.5"/>
<circle cx="416.6568914956012" cy="-169.8670576735093" fill="#4287f5" r="2.5"/>
<circle cx="417.12609970674487" cy="-169.8670576735093" fill="#4287f5" r="2.5"/>
<circle cx="417.5953079178886" cy="-169.863734115347" fill="#4287f5" r="2.5"/>
<circle cx="418.06451612903226" cy="-169.863734115347" fill="#4287f5" r="2.5"/>
<circle cx="418.533724340176" cy="-169.86041055718474" fill="#4287f5" r="2.5"/>
<circle cx="419.00293255131965" cy="-169.86041055718474" fill="#4287f5" r="2.5"/>
<circle cx="419.47214076246337" cy="-169.86041055718474" fill="#4287f5" r="2.5"/>
<circle cx="419.94134897360703" cy="-169.85708699902247" fill="#4287f5" r="2.5"/>
<circle cx="420.41055718475076" cy="-169.85708699902247" fill="#4287f5" r="2.5"/>
<circle cx="420.8797653958944" cy="-169.8537634408602" fill="#4287f5" r="2.5"/>
<circle cx="421.34897360703815" cy="-169.8537634408602" fill="#4287f5" r="2.5"/>
<circle cx="421.8181818181818" cy="-169.85043988269794" fill="#4287f5" r="2.5"/>
<circle cx="422.28739002932554" cy="-169.84711632453568" fill="#4287f5" r="2.5"/>
<circle cx="422.7565982404692" cy="-169.84711632453568" fill="#4287f5" r="2.5"/>
<circle cx="423.2258064516129" cy="-169.8437927663734" fill="#4287f5" r="2.5"/>
<circle cx="423.6950146627566" cy="-169.8437927663734" fill="#4287f5" r="2.5"/>
<circle cx="424.1642228739003" cy="-169.84046920821115" fill="#4287f5" r="2.5"/>
<circle cx="424.633431085044" cy="-169.84046920821115" fill="#4287f5" r="2.5"/>
<circle cx="425.1026392961877" cy="-169.83714565004888" fill="#4287f5" r="2.5"/>
<circle cx="425.57184750733137" cy="-169.83382209188662" fill="#4287f5" r="2.5"/>
<circle cx="426.0410557184751" cy="-169.83382209188662" fill="#4287f5" r="2.5"/>
<circle cx="426.51026392961876" cy="-169.83049853372435" fill="#4287f5" r="2.5"/>
<circle cx="426.9794721407625" cy="-169.8271749755621" fill="#4287f5" r="2.5"/>
<circle cx="427.44868035190615" cy="-169.8271749755621" fill="#4287f5" r="2.5"/>
<circle cx="427.91788856304987" cy="-169.82385141739982" fill="#4287f5" r="2.5"/>
<circle cx="428.38709677419354" cy="-169.82052785923753" fill="#4287f5" r="2.5"/>
<circle cx="428.85630498533726" cy="-169.81720430107526" fill="#4287f5" r="2.5"/>
<circle cx="429.3255131964809" cy="-169.813880742913" fill="#4287f5" r="2.5"/>
<circle cx="429.79472140762465" cy="-169.813880742913" fill="#4287f5" r="2.5"/>
<circle cx="430.2639296187683" cy="-169.81055718475073" fill="#4287f5" r="2.5"/>
<circle cx="430.73313782991204" cy="-169.80723362658847" fill="#4287f5" r="2.5"/>
<circle cx="431.2023460410557" cy="-169.8039100684262" fill="#4287f5" r="2.5"/>
<circle cx="431.6715542521994" cy="-169.8005865102639" fill="#4287f5" r="2.5"/>
<circle cx="432.1407624633431" cy="-169.79726295210165" fill="#4287f5" r="2.5"/>
<circle cx="432.6099706744868" cy="-169.79393939393938" fill="#4287f5" r="2.5"/>
<circle cx="433.0791788856305" cy="-169.79061583577712" fill="#4287f5" r="2.5"/>
<circle cx="433.5483870967742" cy="-169.78729227761485" fill="#4287f5" r="2.5"/>
<circle cx="434.0175953079179" cy="-169.7839687194526" fill="#4287f5" r="2.5"/>
<circle cx="434.4868035190616" cy="-169.78064516129032" fill="#4287f5" r="2.5"/>
<circle cx="434.95601173020526" cy="-169.7739980449658" fill="#4287f5" r="2.5"/>
<circle cx="435.425219941349" cy="-169.77067448680353" fill="#4287f5" r="2.5"/>
<circle cx="435.89442815249265" cy="-169.76735092864126" fill="#4287f5" r="2.5"/>
<circle cx="436.3636363636364" cy="-169.7607038123167" fill="#4287f5" r="2.5"/>
<circle cx="436.83284457478004" cy="-169.75738025415444" fill="#4287f5" r="2.5"/>
<circle cx="437.30205278592376" cy="-169.7507331378299" fill="#4287f5" r="2.5"/>
<circle cx="437.77126099706743" cy="-169.74740957966765" fill="#4287f5" r="2.5"/>
<circle cx="438.24046920821115" cy="-169.74076246334312" fill="#4287f5" r="2.5"/>
<circle cx="438.7096774193548" cy="-169.73411534701856" fill="#4287f5" r="2.5"/>
<circle cx="439.17888563049854" cy="-169.7307917888563" fill="#4287f5" r="2.5"/>
<circle cx="439.6480938416422" cy="-169.72414467253176" fill="#4287f5" r="2.5"/>
<circle cx="440.11730205278593" cy="-169.71749755620723" fill="#4287f5" r="2.5"/>
<circle cx="440.5865102639296" cy="-169.7108504398827" fill="#4287f5" r="2.5"/>
<circle cx="441.0557184750733" cy="-169.7008797653959" fill="#4287f5" r="2.5"/>
<circle cx="441.524926686217" cy="-169.69423264907135" fill="#4287f5" r="2.5"/>
<circle cx="441.9941348973607" cy="-169.68758553274682" fill="#4287f5" r="2.5"/>
<circle cx="442.4633431085044" cy="-169.67761485826" fill="#4287f5" r="2.5"/>
<circle cx="442.9325513196481" cy="-169.6676441837732" fill="#4287f5" r="2.5"/>
<circle cx="443.40175953079176" cy="-169.6576735092864" fill="#4287f5" r="2.5"/>
<circle cx="443.8709677419355" cy="-169.64770283479962" fill="#4287f5" r="2.5"/>
<circle cx="444.34017595307915" cy="-169.63440860215053" fill="#4287f5" r="2.5"/>
<circle cx="444.8093841642229" cy="-169.62443792766373" fill="#4287f5" r="2.5"/>
<circle cx="445.27859237536654" cy="-169.61114369501465" fill="#4287f5" r="2.5"/>
<circle cx="445.74780058651027" cy="-169.59452590420332" fill="#4287f5" r="2.5"/>
<circle cx="446.21700879765393" cy="-169.58123167155426" fill="#4287f5" r="2.5"/>
<circle cx="446.68621700879766" cy="-169.5646138807429" fill="#4287f5" r="2.5"/>
<circle cx="447.1554252199413" cy="-169.5446725317693" fill="#4287f5" r="2.5"/>
<circle cx="447.62463343108504" cy="-169.5247311827957" fill="#4287f5" r="2.5"/>
<circle cx="448.09384164222877" cy="-169.50146627565982" fill="#4287f5" r="2.5"/>
<circle cx="448.56304985337243" cy="-169.47820136852394" fill="#4287f5" r="2.5"/>
<circle cx="449.03225806451616" cy="-169.45161290322582" fill="#4287f5" r="2.5"/>
<circle cx="449.5014662756598" cy="-169.41837732160312" fill="#4287f5" r="2.5"/>
<circle cx="449.97067448680355" cy="-169.38514173998044" fill="#4287f5" r="2.5"/>
<circle cx="450.4398826979472" cy="-169.34525904203323" fill="#4287f5" r="2.5"/>
<circle cx="450.90909090909093" cy="-169.29872922776147" fill="#4287f5" r="2.5"/>
<circle cx="451.3782991202346" cy="-169.2455522971652" fill="#4287f5" r="2.5"/>
<circle cx="451.8475073313783" cy="-169.18240469208212" fill="#4287f5" r="2.5"/>
<circle cx="452.316715542522" cy="-169.10596285434994" fill="#4287f5" r="2.5"/>
<circle cx="452.7859237536657" cy="-169.01290322580644" fill="#4287f5" r="2.5"/>
<circle cx="453.2551319648094" cy="-168.8965786901271" fill="#4287f5" r="2.5"/>
<circle cx="453.7243401759531" cy="-168.7503421309873" fill="#4287f5" r="2.5"/>
<circle cx="454.19354838709677" cy="-168.55092864125123" fill="#4287f5" r="2.5"/>
<circle cx="454.6627565982405" cy="-168.27174975562073" fill="#4287f5" r="2.5"/>
<circle cx="455.13196480938416" cy="-167.852981427175" fill="#4287f5" r="2.5"/>
<circle cx="455.6011730205279" cy="-167.1483870967742" fill="#4287f5" r="2.5"/>
<circle cx="456.07038123167155" cy="-165.72590420332355" fill="#4287f5" r="2.5"/>
<circle cx="456.53958944281527" cy="-161.31554252199413" fill="#4287f5" r="2.5"/>
<circle cx="457.00879765395894" cy="-337.42424242424244" fill="#4287f5" r="2.5"/>
<circle cx="457.47800586510266" cy="-177.72394916911045" fill="#4287f5" r="2.5"/>
<circle cx="457.9472140762463" cy="-173.9151515151515" fill="#4287f5" r="2.5"/>
<circle cx="458.41642228739005" cy="-172.60234604105574" fill="#4287f5" r="2.5"/>
<circle cx="458.8856304985337" cy="-171.93763440860215" fill="#4287f5" r="2.5"/>
<circle cx="459.35483870967744" cy="-171.53880742913" fill="#4287f5" r="2.5"/>
<circle cx="459.8240469208211" cy="-171.26959921798633" fill="#4287f5" r="2.5"/>
<circle cx="460.2932551319648" cy="-171.0768328445748" fill="#4287f5" r="2.5"/>
<circle cx="460.7624633431085" cy="-170.93059628543497" fill="#4287f5" r="2.5"/>
<circle cx="461.2316715542522" cy="-170.8175953079179" fill="#4287f5" r="2.5"/>
<circle cx="461.7008797653959" cy="-170.72453567937438" fill="#4287f5" r="2.5"/>
<circle cx="462.1700879765396" cy="-170.6514173998045" fill="#4287f5" r="2.5"/>
<circle cx="462.63929618768327" cy="-170.5882697947214" fill="#4287f5" r="2.5"/>
<circle cx="463.108504398827" cy="-170.53509286412512" fill="#4287f5" r="2.5"/>
<circle cx="463.57771260997066" cy="-170.48856304985338" fill="#4287f5" r="2.5"/>
<circle cx="464.0469208211144" cy="-170.44868035190618" fill="#4287f5" r="2.5"/>
<circle cx="464.51612903225805" cy="-170.41544477028347" fill="#4287f5" r="2.5"/>
<circle cx="464.9853372434018" cy="-170.3822091886608" fill="#4287f5" r="2.5"/>
<circle cx="465.45454545454544" cy="-170.35562072336268" fill="#4287f5" r="2.5"/>
<circle cx="465.92375366568916" cy="-170.32903225806453" fill="#4287f5" r="2.5"/>
<circle cx="466.3929618768328" cy="-170.30909090909088" fill="#4287f5" r="2.5"/>
<circle cx="466.86217008797655" cy="-170.28582600195503" fill="#4287f5" r="2.5"/>
<circle cx="467.3313782991202" cy="-170.26920821114368" fill="#4287f5" r="2.5"/>
<circle cx="467.80058651026394" cy="-170.2492668621701" fill="#4287f5" r="2.5"/>
<circle cx="468.2697947214076" cy="-170.23264907135876" fill="#4287f5" r="2.5"/>
<circle cx="468.73900293255133" cy="-170.21935483870968" fill="#4287f5" r="2.5"/>
<circle cx="469.208211143695" cy="-170.20606060606062" fill="#4287f5" r="2.5"/>
<circle cx="469.6774193548387" cy="-170.19276637341156" fill="#4287f5" r="2.5"/>
<circle cx="470.1466275659824" cy="-170.17947214076244" fill="#4287f5" r="2.5"/>
<circle cx="470.6158357771261" cy="-170.16617790811338" fill="#4287f5" r="2.5"/>
<circle cx="471.0850439882698" cy="-170.1562072336266" fill="#4287f5" r="2.5"/>
<circle cx="471.5542521994135" cy="-170.1462365591398" fill="#4287f5" r="2.5"/>
<circle cx="472.02346041055716" cy="-170.13626588465297" fill="#4287f5" r="2.5"/>
<circle cx="472.4926686217009" cy="-170.12629521016618" fill="#4287f5" r="2.5"/>
<circle cx="472.96187683284455" cy="-170.11632453567938" fill="#4287f5" r="2.5"/>
<circle cx="473.4310850439883" cy="-170.10967741935485" fill="#4287f5" r="2.5"/>
<circle cx="473.90029325513194" cy="-170.09970674486803" fill="#4287f5" r="2.5"/>
<circle cx="474.36950146627566" cy="-170.0930596285435" fill="#4287f5" r="2.5"/>
<circle cx="474.83870967741933" cy="-170.0830889540567" fill="#4287f5" r="2.5"/>
<circle cx="475.30791788856305" cy="-170.07644183773218" fill="#4287f5" r="2.5"/>
<circle cx="475.7771260997067" cy="-170.06979472140765" fill="#4287f5" r="2.5"/>
<circle cx="476.24633431085044" cy="-170.0598240469208" fill="#4287f5" r="2.5"/>
<circle cx="476.7155425219941" cy="-170.05317693059627" fill="#4287f5" r="2.5"/>
<circle cx="477.18475073313783" cy="-170.04652981427174" fill="#4287f5" r="2.5"/>
<circle cx="477.6539589442815" cy="-170.0398826979472" fill="#4287f5" r="2.5"/>
<circle cx="478.1231671554252" cy="-170.03323558162268" fill="#4287f5" r="2.5"/>
<circle cx="478.5923753665689" cy="-170.02658846529815" fill="#4287f5" r="2.5"/>
<circle cx="479.0615835777126" cy="-170.0199413489736" fill="#4287f5" r="2.5"/>
<circle cx="479.5307917888563" cy="-170.01329423264906" fill="#4287f5" r="2.5"/>
</g>
</g>
<g>
<g>
<line stroke="black" stroke-width="1" x1="0" x2="0" y1="0" y2="10"/>
<line stroke="black" stroke-width="1" x1="93.841642228739" x2="93.841642228739" y1="0" y2="10"/>
<line stroke="black" stroke-width="1" x1="187.683284457478" x2="187.683284457478" y1="0" y2="10"/>
<line stroke="black" stroke-width="1" x1="281.524926686217" x2="281.524926686217" y1="0" y2="10"/>
<line stroke="black" stroke-width="1" x1="375.366568914956" x2="375.366568914956" y1="0" y2="10"/>
<line stroke="black" stroke-width="1" x1="469.208211143695" x2="469.208211143695" y1="0" y2="10"/>
</g>
<line stroke="black" stroke-width="1" x1="0" x2="480" y1="0" y2="0"/>
<g>
<text font-size="12" text-anchor="middle" x="0" y="20">
0
</text>
<text font-size="12" text-anchor="middle" x="93.841642228739" y="20">
200
</text>
<text font-size="12" text-anchor="middle" x="187.683284457478" y="20">
400
</text>
<text font-size="12" text-anchor="middle" x="281.524926686217" y="20">
600
</text>
<text font-size="12" text-anchor="middle" x="375.366568914956" y="20">
800
</text>
<text font-size="12" text-anchor="middle" x="469.208211143695" y="20">
1000
</text>
</g>
<text font-size="12" text-anchor="middle" x="240" y="30">

</text>
</g>
<g>
<g>
<line stroke="black" stroke-width="1" x1="0" x2="-10" y1="-0" y2="-0"/>
<line stroke="black" stroke-width="1" x1="0" x2="-10" y1="-85" y2="-85"/>
<line stroke="black" stroke-width="1" x1="0" x2="-10" y1="-170" y2="-170"/>
<line stroke="black" stroke-width="1" x1="0" x2="-10" y1="-255" y2="-255"/>
<line stroke="black" stroke-width="1" x1="0" x2="-10" y1="-340" y2="-340"/>
</g>
<line stroke="black" stroke-width="1" x1="0" x2="0" y1="0" y2="-340"/>
<g>
<text dominant-baseline="middle" font-size="12" text-anchor="end" x="-15" y="-0">
-1
</text>
<text dominant-baseline="middle" font-size="12" text-anchor="end" x="-15" y="-85">
-0.5
</text>
<text dominant-baseline="middle" font-size="12" text-anchor="end" x="-15" y="-170">
0
</text>
<text dominant-baseline="middle" font-size="12" text-anchor="end" x="-15" y="-255">
0.5
</text>
<text dominant-baseline="middle" font-size="12" text-anchor="end" x="-15" y="-340">
1
</text>
</g>
<text font-size="12" text-anchor="middle" transform="rotate(-90 -48 -170)" x="-48" y="-182">

</text>
</g>
</g>
</svg>