<svg viewBox="0 0 600 400" xmlns="http://www.w3.org/2000/svg">
<g transform="translate(72, 364)">
<g>
<g>
<circle cx="0" cy="-170" fill="#4287f5" r="1.5"/>
<circle cx="4.8" cy="-170" fill="#4287f5" r="1.5"/>
<circle cx="9.6" cy="-170" fill="#4287f5" r="1.5"/>
<circle cx="14.4" cy="-0" fill="#4287f5" r="1.5"/>
<circle cx="19.2" cy="-170" fill="#4287f5" r="1.5"/>
<circle cx="24" cy="-170" fill="#4287f5" r="1.5"/>
<circle cx="28.8" cy="-170" fill="#4287f5" r="1.5"/>
<circle cx="33.6" cy="-170" fill="#4287f5" r="1.5"/>
<circle cx="38.4" cy="-170" fill="#4287f5" r="1.5"/>
<circle cx="43.2" cy="-170" fill="#4287f5" r="1.5"/>
<circle cx="48" cy="-170" fill="#4287f5" r="1.5"/>
<circle cx="52.8" cy="-170" fill="#4287f5" r="1.5"/>
<circle cx="57.6" cy="-170" fill="#4287f5" r="1.5"/>
<circle cx="62.4" cy="-170" fill="#4287f5" r="1.5"/>
<circle cx="67.2" cy="-170" fill="#4287f5" r="1.5"/>
<circle cx="72" cy="-170" fill="#4287f5" r="1.5"/>
<circle cx="76.8" cy="-170" fill="#4287f5" r="1.5"/>
<circle cx="81.6" cy="-170" fill="#4287f5" r="1.5"/>
<circle cx="86.4" cy="-170" fill="#4287f5" r="1.5"/>
<circle cx="91.2" cy="-170" fill="#4287f5" r="1.5"/>
<circle cx="96" cy="-170" fill="#4287f5" r="1.5"/>
<circle cx="100.8" cy="-170" fill="#4287f5" r="1.5"/>
<circle cx="105.6" cy="-170" fill="#4287f5" r="1.5"/>
<circle cx="110.4" cy="-170" fill="#4287f5" r="1.5"/>
<circle cx="115.2" cy="-170" fill="#4287f5" r="1.5"/>
<circle cx="120" cy="-170" fill="#4287f5" r="1.5"/>
<circle cx="124.8" cy="-170" fill="#4287f5" r="1.5"/>
<circle cx="129.6" cy="-170" fill="#4287f5" r="1.5"/>
<circle cx="134.4" cy="-170" fill="#4287f5" r="1.5"/>
<circle cx="139.2" cy="-170" fill="#4287f5" r="1.5"/>
<circle cx="144" cy="-170" fill="#4287f5" r="1.5"/>
<circle cx="148.8" cy="-170" fill="#4287f5" r="1.5"/>
<circle cx="153.6" cy="-170" fill="#4287f5" r="1.5"/>
<circle cx="158.4" cy="-170" fill="#4287f5" r="1.5"/>
<circle cx="163.2" cy="-170" fill="#4287f5" r="1.5"/>
<circle cx="168" cy="-170" fill="#4287f5" r="1.5"/>
<circle cx="172.8" cy="-170" fill="#4287f5" r="1.5"/>
<circle cx="177.6" cy="-170" fill="#4287f5" r="1.5"/>
<circle cx="182.4" cy="-170" fill="#4287f5" r="1.5"/>
<circle cx="187.2" cy="-170" fill="#4287f5" r="1.5"/>
<circle cx="192" cy="-170" fill="#4287f5" r="1.5"/>
<circle cx="196.8" cy="-170" fill="#4287f5" r="1.5"/>
<circle cx="201.6" cy="-170" fill="#4287f5" r="1.5"/>
<circle cx="206.4" cy="-170" fill="#4287f5" r="1.5"/>
<circle cx="211.2" cy="-170" fill="#4287f5" r="1.5"/>
<circle cx="216" cy="-170" fill="#4287f5" r="1.5"/>
<circle cx="220.8" cy="-170" fill="#4287f5" r="1.5"/>
<circle cx="225.6" cy="-170" fill="#4287f5" r="1.5"/>
<circle cx="230.4" cy="-170" fill="#4287f5" r="1.5"/>
<circle cx="235.2" cy="-170" fill="#4287f5" r="1.5"/>
<circle cx="240" cy="-170" fill="#4287f5" r="1.5"/>
<circle cx="244.8" cy="-170" fill="#4287f5" r="1.5"/>
<circle cx="249.6" cy="-170" fill="#4287f5" r="1.5"/>
<circle cx="254.4" cy="-170" fill="#4287f5" r="1.5"/>
<circle cx="259.2" cy="-170" fill="#4287f5" r="1.5"/>
<circle cx="264" cy="-170" fill="#4287f5" r="1.5"/>
<circle cx="268.8" cy="-170" fill="#4287f5" r="1.5"/>
<circle cx="273.6" cy="-170" fill="#4287f5" r="1.5"/>
<circle cx="278.4" cy="-170" fill="#4287f5" r="1.5"/>
<circle cx="283.2" cy="-170" fill="#4287f5" r="1.5"/>
<circle cx="288" cy="-170" fill="#4287f5" r="1.5"/>
<circle cx="292.8" cy="-170" fill="#4287f5" r="1.5"/>
<circle cx="297.6" cy="-170" fill="#4287f5" r="1.5"/>
<circle cx="302.4" cy="-170" fill="#4287f5" r="1.5"/>
<circle cx="307.2" cy="-170" fill="#4287f5" r="1.5"/>
<circle cx="312" cy="-170" fill="#4287f5" r="1.5"/>
<circle cx="316.8" cy="-170" fill="#4287f5" r="1.5"/>
<circle cx="321.6" cy="-170" fill="#4287f5" r="1.5"/>
<circle cx="326.4" cy="-170" fill="#4287f5" r="1.5"/>
<circle cx="331.2" cy="-170" fill="#4287f5" r="1.5"/>
<circle cx="336" cy="-170" fill="#4287f5" r="1.5"/>
<circle cx="340.8" cy="-170" fill="#4287f5" r="1.5"/>
<circle cx="345.6" cy="-170" fill="#4287f5" r="1.5"/>
<circle cx="350.4" cy="-170" fill="#4287f5" r="1.5"/>
<circle cx="355.2" cy="-170" fill="#4287f5" r="1.5"/>
<circle cx="360" cy="-170" fill="#4287f5" r="1.5"/>
<circle cx="364.8" cy="-170" fill="#4287f5" r="1.5"/>
<circle cx="369.6" cy="-170" fill="#4287f5" r="1.5"/>
<circle cx="374.4" cy="-170" fill="#4287f5" r="1.5"/>
<circle cx="379.2" cy="-170" fill="#4287f5" r="1.5"/>
<circle cx="384" cy="-170" fill="#4287f5" r="1.5"/>
<circle cx="388.8" cy="-170" fill="#4287f5" r="1.5"/>
<circle cx="393.6" cy="-170" fill="#4287f5" r="1.5"/>
<circle cx="398.4" cy="-170" fill="#4287f5" r="1.5"/>
<circle cx="403.2" cy="-170" fill="#4287f5" r="1.5"/>
<circle cx="408" cy="-170" fill="#4287f5" r="1.5"/>
<circle cx="412.8" cy="-170" fill="#4287f5" r="1.5"/>
<circle cx="417.6" cy="-170" fill="#4287f5" r="1.5"/>
<circle cx="422.4" cy="-170" fill="#4287f5" r="1.5"/>
<circle cx="427.2" cy="-170" fill="#4287f5" r="1.5"/>
<circle cx="432" cy="-170" fill="#4287f5" r="1.5"/>
<circle cx="436.8" cy="-170" fill="#4287f5" r="1.5"/>
<circle cx="441.6" cy="-170" fill="#4287f5" r="1.5"/>
<circle cx="446.4" cy="-170" fill="#4287f5" r="1.5"/>
<circle cx="451.2" cy="-170" fill="#4287f5" r="1.5"/>
<circle cx="456" cy="-170" fill="#4287f5" r="1.5"/>
<circle cx="460.8" cy="-170" fill="#4287f5" r="1.5"/>
<circle cx="465.6" cy="-340" fill="#4287f5" r="1.5"/>
<circle cx="470.4" cy="-170" fill="#4287f5" r="1.5"/>
<circle cx="475.2" cy="-170" fill="#4287f5" r="1.5"/>
</g>
</g>
<g>
<g>
<line stroke="black" stroke-width="1" x1="0" x2="0" y1="0" y2="10"/>
<line stroke="black" stroke-width="1" x1="96" x2="96" y1="0" y2="10"/>
<line stroke="black" stroke-width="1" x1="192" x2="192" y1="0" y2="10"/>
<line stroke="black" stroke-width="1" x1="288" x2="288" y1="0" y2="10"/>
<line stroke="black" stroke-width="1" x1="384" x2="384" y1="0" y2="10"/>
<line stroke="black" stroke-width="1" x1="480" x2="480" y1="0" y2="10"/>
</g>
<line stroke="black" stroke-width="1" x1="0" x2="480" y1="0" y2="0"/>
<g>
<text font-size="12" text-anchor="middle" x="0" y="20">
0
</text>
<text font-size="12" text-anchor="middle" x="96" y="20">
20
</text>
<text font-size="12" text-anchor="middle" x="192" y="20">
40
</text>
<text font-size="12" text-anchor="middle" x="288" y="20">
60
</text>
<text font-size="12" text-anchor="middle" x="384" y="20">
80
</text>
<text font-size="12" text-anchor="middle" x="480" y="20">
100
</text>
</g>
<text font-size="12" text-anchor="middle" x="240" y="30">

</text>
</g>
<g>
<g>
<line stroke="black" stroke-width="1" x1="0" x2="-10" y1="-0" y2="-0"/>
<line stroke="black" stroke-width="1" x1="0" x2="-10" y1="-85" y2="-85"/>
<line stroke="black" stroke-width="1" x1="0" x2="-10" y1="-170" y2="-170"/>
<line stroke="black" stroke-width="1" x1="0" x2="-10" y1="-255" y2="-255"/>
<line stroke="black" stroke-width="1" x1="0" x2="-10" y1="-340" y2="-340"/>
</g>
<line stroke="black" stroke-width="1" x1="0" x2="0" y1="0" y2="-340"/>
<g>
<text dominant-baseline="middle" font-size="12" text-anchor="end" x="-15" y="-0">
-1
</text>
<text dominant-baseline="middle" font-size="12" text-anchor="end" x="-15" y="-85">
-0.5
</text>
<text dominant-baseline="middle" font-size="12" text-anchor="end" x="-15" y="-170">
0
</text>
<text dominant-baseline="middle" font-size="12" text-anchor="end" x="-15" y="-255">
0.5
</text>
<text dominant-baseline="middle" font-size="12" text-anchor="end" x="-15" y="-340">
1
</text>
</g>
<text font-size="12" text-anchor="middle" transform="rotate(-90 -48 -170)" x="-48" y="-182">

</text>
</g>
</g>
</svg>